CommonSerif-Italic.ufo
<glyph name="percent" format="2">
  <advance width="637"/>
  <unicode hex="0025"/>
  <outline>
    <contour>
      <point x="102" y="-5" type="line"/>
      <point x="139" y="-14" type="line"/>
      <point x="619" y="548" type="line"/>
      <point x="586" y="569" type="line"/>
      <point x="545" y="525"/>
      <point x="478" y="515"/>
      <point x="436" y="515" type="curve" smooth="yes"/>
      <point x="418" y="515"/>
      <point x="383" y="515"/>
      <point x="329" y="540" type="curve"/>
      <point x="315" y="556"/>
      <point x="284" y="565"/>
      <point x="263" y="565" type="curve" smooth="yes"/>
      <point x="181" y="565"/>
      <point x="132" y="478"/>
      <point x="132" y="403" type="curve" smooth="yes"/>
      <point x="132" y="347"/>
      <point x="160" y="297"/>
      <point x="222" y="297" type="curve" smooth="yes"/>
      <point x="304" y="297"/>
      <point x="349" y="405"/>
      <point x="349" y="474" type="curve" smooth="yes"/>
      <point x="349" y="482"/>
      <point x="348" y="491"/>
      <point x="346" y="499" type="curve"/>
      <point x="365" y="488"/>
      <point x="403" y="478"/>
      <point x="427" y="478" type="curve" smooth="yes"/>
      <point x="456" y="478"/>
      <point x="491" y="481"/>
      <point x="530" y="497" type="curve"/>
    </contour>
    <contour>
      <point x="520" y="250" type="curve" smooth="yes"/>
      <point x="446" y="250"/>
      <point x="388" y="167"/>
      <point x="388" y="91" type="curve" smooth="yes"/>
      <point x="388" y="37"/>
      <point x="419" y="-19" name=".hr01"/>
      <point x="478" y="-19" type="curve" smooth="yes"/>
      <point x="561" y="-19"/>
      <point x="605" y="90"/>
      <point x="605" y="159" type="curve" smooth="yes"/>
      <point x="605" y="212"/>
      <point x="578" y="250"/>
    </contour>
    <contour>
      <point x="439" y="77" type="curve" smooth="yes"/>
      <point x="439" y="122"/>
      <point x="474" y="218"/>
      <point x="530" y="218" type="curve" smooth="yes"/>
      <point x="563" y="218"/>
      <point x="575" y="185"/>
      <point x="575" y="157" type="curve" smooth="yes"/>
      <point x="575" y="110"/>
      <point x="544" y="10"/>
      <point x="484" y="10" type="curve" smooth="yes"/>
      <point x="450" y="10"/>
      <point x="439" y="50"/>
    </contour>
    <contour>
      <point x="182" y="392" type="curve" smooth="yes"/>
      <point x="182" y="436"/>
      <point x="217" y="533"/>
      <point x="273" y="533" type="curve" smooth="yes"/>
      <point x="307" y="533"/>
      <point x="318" y="501"/>
      <point x="318" y="473" type="curve" smooth="yes"/>
      <point x="318" y="427"/>
      <point x="287" y="326"/>
      <point x="228" y="326" type="curve" smooth="yes"/>
      <point x="193" y="326"/>
      <point x="182" y="363"/>
    </contour>
  </outline>
</glyph>
<glyph name="A" format="2">
  <advance width="667"/>
  <unicode hex="0041"/>
  <anchor x="477" y="740" name="t.uni0302"/>
  <outline>
    <contour>
      <point x="154" y="56" type="curve" smooth="yes"/>
      <point x="154" y="63"/>
      <point x="156" y="71"/>
      <point x="161" y="79" type="curve"/>
      <point x="175.331" y="103.737"/>
      <point x="222.677" y="185.465"/>
      <point x="245" y="224" type="curve"/>
      <point x="252" y="237"/>
      <point x="259" y="241"/>
      <point x="282" y="241" type="curve" smooth="yes"/>
      <point x="482" y="241" type="line"/>
      <point x="486.836" y="207.842"/>
      <point x="502.052" y="103.503"/>
      <point x="503" y="97" type="curve" smooth="yes"/>
      <point x="507" y="71"/>
      <point x="508" y="65"/>
      <point x="508" y="60" type="curve" smooth="yes"/>
      <point x="508" y="41"/>
      <point x="492" y="36"/>
      <point x="459" y="32" type="curve" smooth="yes"/>
      <point x="455.919" y="31.6699"/>
      <point x="434.123" y="29.3346"/>
      <point x="431" y="29" type="curve"/>
      <point x="422" y="21"/>
      <point x="424" y="3"/>
      <point x="426" y="-2" type="curve"/>
      <point x="468" y="-1"/>
      <point x="507" y="0"/>
      <point x="548" y="0" type="curve" smooth="yes"/>
      <point x="588" y="0"/>
      <point x="627" y="-1"/>
      <point x="662" y="-2" type="curve"/>
      <point x="669" y="8"/>
      <point x="671" y="19"/>
      <point x="668" y="29" type="curve"/>
      <point x="664.355" y="29.5467"/>
      <point x="650.718" y="31.5923"/>
      <point x="648" y="32" type="curve" smooth="yes"/>
      <point x="610" y="38"/>
      <point x="595" y="47"/>
      <point x="588" y="86" type="curve" smooth="yes"/>
      <point x="491" y="658" type="line"/>
      <point x="490.685" y="658"/>
      <point x="487.169" y="658"/>
      <point x="487" y="658" type="curve"/>
      <point x="481" y="654"/>
      <point x="461" y="645"/>
      <point x="451" y="645" type="curve"/>
      <point x="383.543" y="533.664"/>
      <point x="186.919" y="209.145"/>
      <point x="122" y="102" type="curve" smooth="yes"/>
      <point x="85" y="40"/>
      <point x="57" y="31"/>
      <point x="15" y="29" type="curve"/>
      <point x="8" y="19"/>
      <point x="6" y="8"/>
      <point x="9" y="-2" type="curve"/>
      <point x="45" y="-1"/>
      <point x="56" y="0"/>
      <point x="93" y="0" type="curve" smooth="yes"/>
      <point x="132" y="0"/>
      <point x="183" y="-1"/>
      <point x="218" y="-2" type="curve"/>
      <point x="225" y="8"/>
      <point x="226" y="19"/>
      <point x="222" y="29" type="curve"/>
      <point x="214.622" y="29.6917"/>
      <point x="194.32" y="31.595"/>
      <point x="190" y="32" type="curve" smooth="yes"/>
      <point x="165" y="34"/>
      <point x="154" y="41"/>
    </contour>
    <contour>
      <point x="307" y="283" type="line" smooth="yes"/>
      <point x="291" y="283"/>
      <point x="284" y="285"/>
      <point x="284" y="290" type="curve" smooth="yes"/>
      <point x="284" y="292"/>
      <point x="285" y="294"/>
      <point x="286" y="296" type="curve"/>
      <point x="431" y="550" type="line"/>
      <point x="433" y="550" type="line"/>
      <point x="474" y="283" type="line"/>
    </contour>
  </outline>
  <guideline angle="99.6337" x="588" y="86"/>
  <guideline angle="238.794" x="437" y="622"/>
  <guideline angle="278.415" x="482" y="241"/>
  <guideline angle="78" x="317" y="3"/>
  <guideline angle="0" x="0" y="740"/>
</glyph>
<glyph name="E" format="2">
  <advance width="526"/>
  <unicode hex="0045"/>
  <anchor x="385" y="740" name="t.uni0302"/>
  <anchor x="231" y="-60" name="b.minus-60"/>
  <anchor x="274" y="10" name="b.cedilla"/>
  <anchor x="312" y="10" name="b.ogonek"/>
  <outline>
    <contour>
      <point x="135" y="0" type="line"/>
      <point x="341" y="0" type="line" smooth="yes"/>
      <point x="387" y="0"/>
      <point x="455" y="-2"/>
      <point x="463" y="-2" type="curve"/>
      <point x="484" y="50"/>
      <point x="509" y="113"/>
      <point x="531" y="165" type="curve"/>
      <point x="526" y="168"/>
      <point x="512" y="170"/>
      <point x="502" y="170" type="curve"/>
      <point x="469" y="98"/>
      <point x="420" y="39"/>
      <point x="347" y="39" type="curve" smooth="yes"/>
      <point x="217" y="39" type="line" smooth="yes"/>
      <point x="199" y="39"/>
      <point x="187" y="43"/>
      <point x="187" y="62" type="curve" smooth="yes"/>
      <point x="187" y="65"/>
      <point x="187" y="68"/>
      <point x="188" y="72" type="curve"/>
    </contour>
    <contour>
      <point x="282" y="554" type="line"/>
      <point x="286" y="571" type="line" smooth="yes"/>
      <point x="292" y="595"/>
      <point x="304" y="605"/>
      <point x="327" y="605" type="curve" smooth="yes"/>
      <point x="427" y="605" type="line" smooth="yes"/>
      <point x="499" y="605"/>
      <point x="509" y="565"/>
      <point x="517" y="496" type="curve"/>
      <point x="526" y="496"/>
      <point x="539" y="498"/>
      <point x="545" y="501" type="curve"/>
      <point x="545" y="545"/>
      <point x="552" y="637"/>
      <point x="553" y="645" type="curve"/>
      <point x="553" y="647"/>
      <point x="552" y="649"/>
      <point x="549" y="649" type="curve"/>
      <point x="532" y="646"/>
      <point x="517" y="645"/>
      <point x="503" y="645" type="curve" smooth="yes"/>
      <point x="251" y="645" type="line"/>
      <point x="251" y="554" type="line"/>
    </contour>
    <contour>
      <point x="174" y="0" type="line"/>
      <point x="282" y="554" type="line"/>
      <point x="251" y="645" type="line"/>
      <point x="207" y="645"/>
      <point x="170" y="646"/>
      <point x="137" y="647" type="curve"/>
      <point x="135" y="645"/>
      <point x="129" y="628"/>
      <point x="134" y="618" type="curve"/>
      <point x="185" y="616"/>
      <point x="205" y="606"/>
      <point x="205" y="585" type="curve" smooth="yes"/>
      <point x="205" y="567"/>
      <point x="204" y="551"/>
      <point x="198" y="521" type="curve" smooth="yes"/>
      <point x="121" y="122" type="line" smooth="yes"/>
      <point x="108" y="56"/>
      <point x="85" y="34"/>
      <point x="17" y="27" type="curve"/>
      <point x="11" y="17"/>
      <point x="8" y="5"/>
      <point x="13" y="-2" type="curve"/>
      <point x="58" y="-1"/>
      <point x="98" y="0"/>
      <point x="135" y="0" type="curve" smooth="yes"/>
    </contour>
    <contour>
      <point x="367" y="361" type="curve" smooth="yes"/>
      <point x="230" y="361" type="line"/>
      <point x="222" y="323" type="line"/>
      <point x="359" y="323" type="line" smooth="yes"/>
      <point x="384" y="323"/>
      <point x="398" y="301"/>
      <point x="398" y="260" type="curve" smooth="yes"/>
      <point x="398" y="254" type="line"/>
      <point x="409" y="251"/>
      <point x="421" y="253"/>
      <point x="430" y="258" type="curve"/>
      <point x="436" y="318"/>
      <point x="448" y="378"/>
      <point x="464" y="436" type="curve"/>
      <point x="456" y="439"/>
      <point x="438" y="439"/>
      <point x="431" y="436" type="curve"/>
      <point x="417" y="381"/>
      <point x="409" y="361"/>
    </contour>
  </outline>
</glyph>
<glyph name="H" format="2">
  <advance width="668"/>
  <unicode hex="0048"/>
  <anchor x="474" y="740" name="t.uni0302"/>
  <anchor x="316" y="-60" name="b.minus-60"/>
  <anchor x="145" y="10" name="b.cedilla"/>
  <outline>
    <contour>
      <point x="598" y="569" type="curve" smooth="yes"/>
      <point x="558" y="363" type="line"/>
      <point x="245" y="363" type="line"/>
      <point x="285" y="569" type="line" smooth="yes"/>
      <point x="291" y="600"/>
      <point x="322" y="613"/>
      <point x="378" y="618" type="curve"/>
      <point x="382" y="622"/>
      <point x="384" y="638"/>
      <point x="380" y="647" type="curve"/>
      <point x="341" y="646"/>
      <point x="309" y="645"/>
      <point x="277" y="645" type="curve" smooth="yes"/>
      <point x="251" y="645" type="line"/>
      <point x="127" y="0" type="line"/>
      <point x="132" y="0"/>
      <point x="147" y="0"/>
      <point x="153" y="0" type="curve" smooth="yes"/>
      <point x="187" y="0"/>
      <point x="225" y="-1"/>
      <point x="263" y="-2" type="curve"/>
      <point x="266" y="2"/>
      <point x="269" y="22"/>
      <point x="266" y="27" type="curve"/>
      <point x="231" y="30"/>
      <point x="181" y="38"/>
      <point x="191" y="90" type="curve" smooth="yes"/>
      <point x="236" y="321" type="line"/>
      <point x="549" y="321" type="line"/>
      <point x="503" y="90" type="line" smooth="yes"/>
      <point x="496" y="53"/>
      <point x="488" y="35"/>
      <point x="408" y="27" type="curve"/>
      <point x="404" y="23"/>
      <point x="402" y="7"/>
      <point x="406" y="-2" type="curve"/>
      <point x="445" y="-1"/>
      <point x="477" y="0"/>
      <point x="509" y="0" type="curve" smooth="yes"/>
      <point x="526" y="0" type="line" smooth="yes"/>
      <point x="564" y="0"/>
      <point x="609" y="-1"/>
      <point x="653" y="-2" type="curve"/>
      <point x="656" y="2"/>
      <point x="659" y="22"/>
      <point x="656" y="27" type="curve"/>
      <point x="613" y="31"/>
      <point x="571" y="39"/>
      <point x="581" y="90" type="curve" smooth="yes"/>
      <point x="675" y="569" type="line" smooth="yes"/>
      <point x="681" y="600"/>
      <point x="704" y="613"/>
      <point x="768" y="618" type="curve"/>
      <point x="772" y="622"/>
      <point x="774" y="638"/>
      <point x="770" y="647" type="curve"/>
      <point x="725" y="646"/>
      <point x="689" y="645"/>
      <point x="650" y="645" type="curve" smooth="yes"/>
      <point x="633" y="645" type="line" smooth="yes"/>
      <point x="599" y="645"/>
      <point x="561" y="646"/>
      <point x="523" y="647" type="curve"/>
      <point x="520" y="643"/>
      <point x="517" y="623"/>
      <point x="520" y="618" type="curve"/>
      <point x="577" y="615"/>
      <point x="604" y="600"/>
    </contour>
    <contour>
      <point x="174" y="0" type="line"/>
      <point x="282" y="554" type="line"/>
      <point x="251" y="645" type="line"/>
      <point x="207" y="645"/>
      <point x="170" y="646"/>
      <point x="137" y="647" type="curve"/>
      <point x="135" y="645"/>
      <point x="129" y="628"/>
      <point x="134" y="618" type="curve"/>
      <point x="185" y="616"/>
      <point x="205" y="606"/>
      <point x="205" y="585" type="curve" smooth="yes"/>
      <point x="205" y="567"/>
      <point x="204" y="551"/>
      <point x="198" y="521" type="curve" smooth="yes"/>
      <point x="121" y="122" type="line" smooth="yes"/>
      <point x="108" y="56"/>
      <point x="85" y="34"/>
      <point x="17" y="27" type="curve"/>
      <point x="11" y="17"/>
      <point x="8" y="5"/>
      <point x="13" y="-2" type="curve"/>
      <point x="58" y="-1"/>
      <point x="98" y="0"/>
      <point x="135" y="0" type="curve" smooth="yes"/>
    </contour>
  </outline>
</glyph>
<glyph name="I" format="2">
  <advance width="280"/>
  <unicode hex="0049"/>
  <anchor x="294" y="740" name="t.uni0302"/>
  <anchor x="193" y="10" name="b.ogonek"/>
  <anchor x="129" y="-60" name="b.minus-60"/>
  <outline>
    <contour>
      <point x="122" y="0" type="line"/>
      <point x="156" y="0"/>
      <point x="227" y="-1"/>
      <point x="265" y="-2" type="curve"/>
      <point x="268" y="2"/>
      <point x="271" y="22"/>
      <point x="268" y="27" type="curve"/>
      <point x="206" y="33"/>
      <point x="182" y="38"/>
      <point x="200" y="129" type="curve" smooth="yes"/>
      <point x="278" y="534" type="line" smooth="yes"/>
      <point x="289" y="591"/>
      <point x="301" y="610"/>
      <point x="378" y="618" type="curve"/>
      <point x="382" y="622"/>
      <point x="384" y="638"/>
      <point x="380" y="647" type="curve"/>
      <point x="335" y="646"/>
      <point x="302" y="645"/>
      <point x="263" y="645" type="curve" smooth="yes"/>
      <point x="251" y="645" type="line"/>
    </contour>
    <contour>
      <point x="174" y="0" type="line"/>
      <point x="282" y="554" type="line"/>
      <point x="251" y="645" type="line"/>
      <point x="207" y="645"/>
      <point x="170" y="646"/>
      <point x="137" y="647" type="curve"/>
      <point x="135" y="645"/>
      <point x="129" y="628"/>
      <point x="134" y="618" type="curve"/>
      <point x="185" y="616"/>
      <point x="205" y="606"/>
      <point x="205" y="585" type="curve" smooth="yes"/>
      <point x="205" y="567"/>
      <point x="204" y="551"/>
      <point x="198" y="521" type="curve" smooth="yes"/>
      <point x="121" y="122" type="line" smooth="yes"/>
      <point x="108" y="56"/>
      <point x="85" y="34"/>
      <point x="17" y="27" type="curve"/>
      <point x="11" y="17"/>
      <point x="8" y="5"/>
      <point x="13" y="-2" type="curve"/>
      <point x="58" y="-1"/>
      <point x="98" y="0"/>
      <point x="135" y="0" type="curve" smooth="yes"/>
    </contour>
  </outline>
  <guideline angle="258.69" x="251" y="645"/>
</glyph>
<glyph name="b" format="2">
  <advance width="478"/>
  <unicode hex="0062"/>
  <outline>
    <contour>
      <point x="182" y="133" type="curve" smooth="yes"/>
      <point x="208.944" y="251.869"/>
      <point x="269.992" y="521.201"/>
      <point x="284" y="583" type="curve" smooth="yes"/>
      <point x="292" y="618"/>
      <point x="300" y="651"/>
      <point x="312" y="688" type="curve"/>
      <point x="312" y="695"/>
      <point x="309" y="698"/>
      <point x="300" y="698" type="curve"/>
      <point x="279" y="690"/>
      <point x="190" y="674"/>
      <point x="157" y="672" type="curve"/>
      <point x="154" y="663"/>
      <point x="152" y="652"/>
      <point x="152" y="643" type="curve"/>
      <point x="196" y="641"/>
      <point x="211" y="633"/>
      <point x="211" y="610" type="curve" smooth="yes"/>
      <point x="211" y="602"/>
      <point x="209" y="585"/>
      <point x="204" y="563" type="curve" smooth="yes"/>
      <point x="186.15" y="482.95"/>
      <point x="129.719" y="229.882"/>
      <point x="107" y="128" type="curve"/>
      <point x="102" y="113"/>
      <point x="98" y="95"/>
      <point x="98" y="78" type="curve" smooth="yes"/>
      <point x="98" y="30"/>
      <point x="129" y="-10"/>
      <point x="203" y="-10" type="curve" smooth="yes"/>
      <point x="337" y="-10"/>
      <point x="492" y="199"/>
      <point x="492" y="320" type="curve" smooth="yes"/>
      <point x="492" y="399"/>
      <point x="469" y="439"/>
      <point x="387" y="439" type="curve" smooth="yes"/>
      <point x="318" y="439"/>
      <point x="266" y="378"/>
      <point x="231" y="335" type="curve"/>
      <point x="227.206" y="335"/>
      <point x="208.837" y="335"/>
      <point x="204" y="335" type="curve"/>
      <point x="204" y="323.968"/>
      <point x="204" y="279.468"/>
      <point x="204" y="262" type="curve"/>
      <point x="278" y="360"/>
      <point x="316" y="392"/>
      <point x="355" y="392" type="curve" smooth="yes"/>
      <point x="403" y="392"/>
      <point x="410" y="336"/>
      <point x="410" y="301" type="curve" smooth="yes"/>
      <point x="410" y="157"/>
      <point x="284" y="27"/>
      <point x="211" y="27" type="curve" smooth="yes"/>
      <point x="185" y="27"/>
      <point x="174" y="44"/>
      <point x="174" y="75" type="curve" smooth="yes"/>
      <point x="174" y="91"/>
      <point x="177" y="111"/>
    </contour>
  </outline>
</glyph>
<glyph name="f" format="2">
  <advance width="314"/>
  <unicode hex="0066"/>
  <anchor x="410" y="740" name="t.uni0302"/>
  <outline>
    <contour>
      <point x="188" y="390" type="line"/>
      <point x="168" y="276"/>
      <point x="157" y="216"/>
      <point x="147" y="141" type="curve" smooth="yes"/>
      <point x="139" y="81"/>
      <point x="119" y="-205"/>
      <point x="33" y="-205" type="curve" smooth="yes"/>
      <point x="19" y="-205"/>
      <point x="15" y="-198"/>
      <point x="9" y="-188" type="curve"/>
      <point x="0" y="-175"/>
      <point x="-19" y="-156"/>
      <point x="-41" y="-156" type="curve" smooth="yes"/>
      <point x="-69" y="-156"/>
      <point x="-78" y="-175"/>
      <point x="-78" y="-192" type="curve" smooth="yes"/>
      <point x="-78" y="-214"/>
      <point x="-54" y="-238"/>
      <point x="14" y="-238" type="curve" smooth="yes"/>
      <point x="173" y="-238"/>
      <point x="196" y="20"/>
      <point x="219" y="130" type="curve" smooth="yes"/>
      <point x="235" y="208"/>
      <point x="251" y="289"/>
      <point x="266" y="373" type="curve" smooth="yes"/>
      <point x="269" y="390" type="line"/>
      <point x="362" y="390" type="line" smooth="yes"/>
      <point x="371" y="390"/>
      <point x="386" y="394"/>
      <point x="388" y="402" type="curve" name=".hr01"/>
      <point x="388" y="402"/>
      <point x="393" y="423"/>
      <point x="393" y="424" type="curve"/>
      <point x="393" y="427"/>
      <point x="391" y="429"/>
      <point x="386" y="429" type="curve" smooth="yes"/>
      <point x="276" y="429" type="line"/>
      <point x="287" y="486" type="line" smooth="yes"/>
      <point x="297" y="538"/>
      <point x="333" y="665"/>
      <point x="400" y="665" type="curve" smooth="yes"/>
      <point x="423" y="665"/>
      <point x="434" y="660"/>
      <point x="439" y="639" type="curve"/>
      <point x="443" y="617"/>
      <point x="451" y="590"/>
      <point x="485" y="590" type="curve" smooth="yes"/>
      <point x="516" y="590"/>
      <point x="523" y="614"/>
      <point x="523" y="624" type="curve" smooth="yes"/>
      <point x="523" y="664"/>
      <point x="479" y="698"/>
      <point x="408" y="698" type="curve" smooth="yes"/>
      <point x="266" y="698"/>
      <point x="221" y="540"/>
      <point x="198" y="429" type="curve"/>
      <point x="132" y="426" type="line" smooth="yes"/>
      <point x="113" y="425"/>
      <point x="106" y="417"/>
      <point x="104" y="409" type="curve"/>
      <point x="103" y="406"/>
      <point x="100" y="394"/>
      <point x="100" y="392" type="curve" smooth="yes"/>
      <point x="100" y="390" name=".hr02"/>
      <point x="103" y="390"/>
      <point x="106" y="390" type="curve" smooth="yes"/>
    </contour>
  </outline>
</glyph>
<glyph name="i" format="2">
  <advance width="276"/>
  <unicode hex="0069"/>
  <outline>
    <contour>
      <point x="245" y="320" type="line" smooth="yes"/>
      <point x="254" y="359"/>
      <point x="266" y="398"/>
      <point x="266" y="415" type="curve" smooth="yes"/>
      <point x="266" y="429"/>
      <point x="258" y="436"/>
      <point x="245" y="436" type="curve" smooth="yes"/>
      <point x="213" y="436"/>
      <point x="168" y="429"/>
      <point x="121" y="423" type="curve"/>
      <point x="114" y="415"/>
      <point x="116" y="404"/>
      <point x="122" y="395" type="curve"/>
      <point x="162" y="392" type="line" smooth="yes"/>
      <point x="174" y="391"/>
      <point x="180" y="382"/>
      <point x="180" y="372" type="curve" smooth="yes"/>
      <point x="180" y="363"/>
      <point x="177" y="349"/>
      <point x="171" y="321" type="curve" smooth="yes"/>
      <point x="124" y="115" type="line" smooth="yes"/>
      <point x="117" y="83"/>
      <point x="107" y="42"/>
      <point x="107" y="23" type="curve" smooth="yes"/>
      <point x="107" y="4"/>
      <point x="118" y="-10"/>
      <point x="148" y="-10" type="curve" smooth="yes"/>
      <point x="196" y="-10"/>
      <point x="241" y="24"/>
      <point x="287" y="83" type="curve"/>
      <point x="284" y="92"/>
      <point x="278" y="100"/>
      <point x="264" y="100" type="curve"/>
      <point x="238" y="70"/>
      <point x="209" y="50"/>
      <point x="199" y="50" type="curve" smooth="yes"/>
      <point x="192" y="50"/>
      <point x="189" y="55"/>
      <point x="189" y="67" type="curve" smooth="yes"/>
      <point x="189" y="76"/>
      <point x="194" y="98"/>
      <point x="200" y="124" type="curve" smooth="yes"/>
    </contour>
    <contour>
      <point x="201" y="570" type="curve" smooth="yes" name=".hr01"/>
      <point x="201" y="544"/>
      <point x="223" y="522"/>
      <point x="249" y="522" type="curve" smooth="yes"/>
      <point x="275" y="522"/>
      <point x="297" y="544"/>
      <point x="297" y="570" type="curve" smooth="yes"/>
      <point x="297" y="596"/>
      <point x="275" y="618"/>
      <point x="249" y="618" type="curve" smooth="yes"/>
      <point x="223" y="618"/>
      <point x="201" y="596"/>
    </contour>
  </outline>
</glyph>
<glyph name="l" format="2">
  <advance width="266"/>
  <unicode hex="006C"/>
  <outline>
    <contour>
      <point x="196" y="512" type="line"/>
      <point x="107" y="119" type="line" smooth="yes"/>
      <point x="101" y="92"/>
      <point x="93" y="50"/>
      <point x="93" y="34" type="curve" smooth="yes"/>
      <point x="93" y="15"/>
      <point x="98" y="-10"/>
      <point x="135" y="-10" type="curve" smooth="yes"/>
      <point x="180" y="-10"/>
      <point x="235" y="16"/>
      <point x="280" y="91" type="curve"/>
      <point x="276" y="101"/>
      <point x="271" y="108"/>
      <point x="258" y="108" type="curve"/>
      <point x="228" y="72"/>
      <point x="196" y="50"/>
      <point x="184" y="50" type="curve" smooth="yes"/>
      <point x="176" y="50"/>
      <point x="171" y="56"/>
      <point x="171" y="64" type="curve" smooth="yes"/>
      <point x="171" y="72"/>
      <point x="173" y="87"/>
      <point x="182" y="127" type="curve" smooth="yes"/>
      <point x="270" y="512" type="line"/>
    </contour>
    <contour>
      <point x="196" y="512" type="line"/>
      <point x="270" y="512" type="line"/>
      <point x="286" y="582" type="line" smooth="yes"/>
      <point x="300" y="645"/>
      <point x="311" y="669"/>
      <point x="311" y="683" type="curve" smooth="yes"/>
      <point x="311" y="693"/>
      <point x="306" y="698"/>
      <point x="299" y="698" type="curve"/>
      <point x="267" y="691"/>
      <point x="209" y="687"/>
      <point x="162" y="685" type="curve"/>
      <point x="155" y="677"/>
      <point x="157" y="666"/>
      <point x="163" y="657" type="curve"/>
      <point x="203" y="654" type="line" smooth="yes"/>
      <point x="215" y="653"/>
      <point x="221" y="644"/>
      <point x="221" y="633" type="curve" smooth="yes"/>
      <point x="221" y="625"/>
      <point x="218" y="611"/>
      <point x="212" y="583" type="curve" smooth="yes"/>
    </contour>
  </outline>
  <guideline angle="257.3" x="212" y="583"/>
  <guideline angle="77.125" x="270" y="512"/>
</glyph>
<glyph name="n" format="2">
  <advance width="518"/>
  <unicode hex="006E"/>
  <outline>
    <contour>
      <point x="158" y="321" type="curve" smooth="yes"/>
      <point x="102" y="72" type="line" smooth="yes"/>
      <point x="97" y="52"/>
      <point x="89" y="27"/>
      <point x="89" y="17" type="curve" smooth="yes"/>
      <point x="89" y="1"/>
      <point x="100" y="-10"/>
      <point x="132" y="-10" type="curve" smooth="yes"/>
      <point x="170" y="-10"/>
      <point x="169" y="34"/>
      <point x="178" y="72" type="curve" smooth="yes"/>
      <point x="179" y="76"/>
      <point x="180" y="80"/>
      <point x="181" y="84" type="curve" smooth="yes"/>
      <point x="216" y="238" type="line"/>
      <point x="241" y="271"/>
      <point x="323" y="379"/>
      <point x="370" y="379" type="curve" smooth="yes"/>
      <point x="391" y="379"/>
      <point x="405" y="374"/>
      <point x="405" y="343" type="curve" smooth="yes"/>
      <point x="405" y="331"/>
      <point x="399" y="303"/>
      <point x="392" y="275" type="curve" smooth="yes"/>
      <point x="354" y="115" type="line" smooth="yes"/>
      <point x="346" y="83"/>
      <point x="337" y="42"/>
      <point x="337" y="23" type="curve" smooth="yes"/>
      <point x="337" y="4"/>
      <point x="348" y="-10"/>
      <point x="378" y="-10" type="curve" smooth="yes"/>
      <point x="426" y="-10"/>
      <point x="474" y="24"/>
      <point x="520" y="83" type="curve"/>
      <point x="517" y="92"/>
      <point x="511" y="100"/>
      <point x="497" y="100" type="curve"/>
      <point x="471" y="70"/>
      <point x="442" y="50"/>
      <point x="432" y="50" type="curve" smooth="yes"/>
      <point x="425" y="50"/>
      <point x="422" y="55"/>
      <point x="422" y="67" type="curve" smooth="yes"/>
      <point x="422" y="76"/>
      <point x="427" y="98"/>
      <point x="433" y="124" type="curve" smooth="yes"/>
      <point x="471" y="283" type="line" smooth="yes"/>
      <point x="479" y="318"/>
      <point x="484" y="341"/>
      <point x="484" y="359" type="curve" smooth="yes"/>
      <point x="484" y="419"/>
      <point x="457" y="439"/>
      <point x="418" y="439" type="curve" smooth="yes"/>
      <point x="364" y="439"/>
      <point x="308" y="401"/>
      <point x="231" y="310" type="curve"/>
      <point x="230" y="311" type="line"/>
      <point x="231" y="314"/>
      <point x="232" y="317"/>
      <point x="233" y="320" type="curve" smooth="yes"/>
      <point x="246" y="357"/>
      <point x="255" y="400"/>
      <point x="255" y="415" type="curve" smooth="yes"/>
      <point x="255" y="429"/>
      <point x="247" y="436" name=".hr01"/>
      <point x="234" y="436" type="curve" smooth="yes"/>
      <point x="202" y="436"/>
      <point x="155" y="430"/>
      <point x="108" y="423" type="curve"/>
      <point x="101" y="415"/>
      <point x="103" y="404"/>
      <point x="109" y="395" type="curve"/>
      <point x="149" y="392" type="line" smooth="yes"/>
      <point x="161" y="391"/>
      <point x="167" y="382"/>
      <point x="167" y="372" type="curve" smooth="yes"/>
      <point x="167" y="364"/>
      <point x="164" y="349"/>
    </contour>
  </outline>
</glyph>
<glyph name="o" format="2">
  <advance width="447"/>
  <unicode hex="006F"/>
  <anchor x="333" y="500" name="t.uni0302"/>
  <anchor x="297" y="10" name="b.ogonek"/>
  <anchor x="219" y="-60" name="b.minus-60"/>
  <outline>
    <contour>
      <point x="309" y="402" type="line"/>
      <point x="338" y="402"/>
      <point x="381" y="364"/>
      <point x="381" y="259" type="curve" smooth="yes"/>
      <point x="381" y="169"/>
      <point x="339" y="27"/>
      <point x="233" y="27" type="curve"/>
      <point x="218" y="-10" type="line"/>
      <point x="368" y="-10"/>
      <point x="464" y="124"/>
      <point x="464" y="267" type="curve" smooth="yes"/>
      <point x="464" y="320"/>
      <point x="451" y="439"/>
      <point x="324" y="439" type="curve"/>
    </contour>
    <contour>
      <point x="233" y="27" type="line"/>
      <point x="204" y="27"/>
      <point x="161" y="65"/>
      <point x="161" y="170" type="curve" smooth="yes"/>
      <point x="161" y="260"/>
      <point x="203" y="402"/>
      <point x="309" y="402" type="curve"/>
      <point x="324" y="439" type="line"/>
      <point x="174" y="439"/>
      <point x="78" y="305"/>
      <point x="78" y="162" type="curve" smooth="yes"/>
      <point x="78" y="109"/>
      <point x="91" y="-10"/>
      <point x="218" y="-10" type="curve"/>
    </contour>
  </outline>
</glyph>
<glyph name="p" format="2">
  <advance width="489"/>
  <unicode hex="0070"/>
  <anchor x="366" y="530" name="t.uni0302"/>
  <anchor x="255" y="-60" name="b.minus-60"/>
  <outline>
    <contour>
      <point x="248" y="321" type="line" smooth="yes"/>
      <point x="261" y="380"/>
      <point x="263" y="392"/>
      <point x="273" y="426" type="curve"/>
      <point x="273" y="433"/>
      <point x="270" y="436"/>
      <point x="261" y="436" type="curve"/>
      <point x="219" y="422"/>
      <point x="165" y="414"/>
      <point x="121" y="410" type="curve"/>
      <point x="117" y="403"/>
      <point x="114" y="391"/>
      <point x="116" y="381" type="curve"/>
      <point x="158" y="377"/>
      <point x="175" y="367"/>
      <point x="175" y="351" type="curve" smooth="yes"/>
      <point x="175" y="340"/>
      <point x="173" y="323"/>
      <point x="168" y="301" type="curve" smooth="yes"/>
      <point x="58" y="-161" type="line" smooth="yes"/>
      <point x="51" y="-189"/>
      <point x="37" y="-201"/>
      <point x="5" y="-206" type="curve" smooth="yes"/>
      <point x="-14" y="-209" type="line"/>
      <point x="-19" y="-210"/>
      <point x="-24" y="-211"/>
      <point x="-24" y="-217" type="curve" smooth="yes"/>
      <point x="-24" y="-236" type="line"/>
      <point x="-22" y="-238" type="line"/>
      <point x="-22" y="-238"/>
      <point x="51" y="-233"/>
      <point x="87" y="-233" type="curve" smooth="yes"/>
      <point x="93.844" y="-233"/>
      <point x="116.021" y="-233"/>
      <point x="120" y="-233" type="curve" smooth="yes"/>
      <point x="156" y="-233"/>
      <point x="194" y="-235"/>
      <point x="194" y="-235" type="curve"/>
      <point x="196" y="-233" type="line"/>
      <point x="196" y="-213" type="line" smooth="yes"/>
      <point x="196" y="-208"/>
      <point x="194" y="-206"/>
      <point x="190" y="-205" type="curve"/>
      <point x="171" y="-202" type="line" smooth="yes"/>
      <point x="158" y="-200"/>
      <point x="137" y="-197"/>
      <point x="137" y="-173" type="curve" smooth="yes"/>
      <point x="137" y="-170"/>
      <point x="137" y="-166"/>
      <point x="138" y="-161" type="curve"/>
    </contour>
    <contour>
      <point x="246" y="352" type="line"/>
      <point x="273" y="369"/>
      <point x="304" y="393"/>
      <point x="349" y="393" type="curve" smooth="yes"/>
      <point x="415" y="393"/>
      <point x="427" y="327"/>
      <point x="427" y="273" type="curve" smooth="yes"/>
      <point x="427" y="193"/>
      <point x="363" y="25"/>
      <point x="265" y="25" type="curve" smooth="yes"/>
      <point x="235" y="25"/>
      <point x="203" y="43"/>
      <point x="181" y="83" type="curve"/>
      <point x="175" y="32" type="line"/>
      <point x="186" y="14"/>
      <point x="221" y="-10"/>
      <point x="255" y="-10" type="curve" smooth="yes"/>
      <point x="397" y="-10"/>
      <point x="509" y="160"/>
      <point x="509" y="289" type="curve" smooth="yes"/>
      <point x="509" y="392"/>
      <point x="470" y="439"/>
      <point x="386" y="439" type="curve" smooth="yes"/>
      <point x="347" y="439"/>
      <point x="288" y="416"/>
      <point x="255" y="391" type="curve"/>
    </contour>
  </outline>
</glyph>
<glyph name="s" format="2">
  <advance width="353"/>
  <unicode hex="0073"/>
  <anchor x="273" y="500" name="t.uni0302"/>
  <outline>
    <contour>
      <point x="59" y="66" type="curve" smooth="yes"/>
      <point x="59" y="23"/>
      <point x="119" y="-10"/>
      <point x="192" y="-10" type="curve" smooth="yes"/>
      <point x="283" y="-10"/>
      <point x="346" y="42"/>
      <point x="346" y="115" type="curve" smooth="yes"/>
      <point x="346" y="165"/>
      <point x="318" y="208"/>
      <point x="258" y="250" type="curve" smooth="yes"/>
      <point x="227" y="272" type="line" smooth="yes"/>
      <point x="199" y="292"/>
      <point x="187" y="309"/>
      <point x="187" y="336" type="curve" smooth="yes"/>
      <point x="187" y="377"/>
      <point x="214" y="406"/>
      <point x="253" y="406" type="curve" smooth="yes"/>
      <point x="316" y="406"/>
      <point x="281" y="325"/>
      <point x="344" y="325" type="curve" smooth="yes"/>
      <point x="363" y="325"/>
      <point x="377" y="338"/>
      <point x="377" y="358" type="curve" smooth="yes"/>
      <point x="377" y="399"/>
      <point x="318" y="439"/>
      <point x="257" y="439" type="curve" smooth="yes"/>
      <point x="183" y="439"/>
      <point x="123" y="382"/>
      <point x="123" y="312" type="curve" smooth="yes"/>
      <point x="123" y="272"/>
      <point x="144" y="235"/>
      <point x="184" y="206" type="curve" smooth="yes"/>
      <point x="210" y="187" type="line" smooth="yes"/>
      <point x="250" y="157"/>
      <point x="270" y="127"/>
      <point x="270" y="92" type="curve" smooth="yes"/>
      <point x="270" y="49"/>
      <point x="239" y="23"/>
      <point x="186" y="23" type="curve" smooth="yes"/>
      <point x="115" y="23"/>
      <point x="161" y="103"/>
      <point x="95" y="103" type="curve" smooth="yes"/>
      <point x="74" y="103"/>
      <point x="59" y="88"/>
    </contour>
  </outline>
</glyph>
<glyph name="bar" format="2">
  <advance width="209"/>
  <unicode hex="007C"/>
  <outline>
    <contour>
      <point x="172.874" y="-240" type="curve"/>
      <point x="173" y="720" type="line"/>
      <point x="159.755" y="726"/>
      <point x="144.795" y="726"/>
      <point x="129" y="720" type="curve"/>
      <point x="128.874" y="-240" type="line"/>
      <point x="142.119" y="-246"/>
      <point x="157.079" y="-246"/>
    </contour>
  </outline>
</glyph>
<glyph name="dieresis" format="2">
  <advance width="375"/>
  <unicode hex="00A8"/>
  <outline>
    <contour>
      <point x="155" y="565" type="curve" smooth="yes"/>
      <point x="155" y="543"/>
      <point x="171" y="527"/>
      <point x="193" y="527" type="curve" smooth="yes"/>
      <point x="217" y="527"/>
      <point x="247" y="549"/>
      <point x="247" y="581" type="curve" smooth="yes"/>
      <point x="247" y="602"/>
      <point x="231" y="618"/>
      <point x="209" y="618" type="curve" smooth="yes"/>
      <point x="184" y="618"/>
      <point x="155" y="596"/>
    </contour>
    <contour>
      <point x="316" y="565" type="curve" smooth="yes"/>
      <point x="316" y="544"/>
      <point x="332" y="528"/>
      <point x="354" y="528" type="curve" smooth="yes"/>
      <point x="379" y="528"/>
      <point x="408" y="550"/>
      <point x="408" y="581" type="curve" smooth="yes"/>
      <point x="408" y="602"/>
      <point x="392" y="619"/>
      <point x="370" y="619" type="curve" smooth="yes"/>
      <point x="345" y="619"/>
      <point x="316" y="597"/>
    </contour>
  </outline>
</glyph>
<glyph name="uni00B2" format="2">
  <advance width="277"/>
  <unicode hex="00B2"/>
  <outline>
    <contour>
      <point x="136" y="607" type="curve" smooth="yes"/>
      <point x="136" y="596"/>
      <point x="147" y="587"/>
      <point x="159" y="587" type="curve" smooth="yes"/>
      <point x="179.905" y="587"/>
      <point x="191" y="604.303"/>
      <point x="191" y="623" type="curve" smooth="yes"/>
      <point x="191" y="655.641"/>
      <point x="229.623" y="664"/>
      <point x="250" y="664" type="curve" smooth="yes"/>
      <point x="276.924" y="664"/>
      <point x="293" y="645.625"/>
      <point x="293" y="619" type="curve" smooth="yes"/>
      <point x="293" y="577.271"/>
      <point x="267.433" y="538.588"/>
      <point x="235" y="515" type="curve" smooth="yes"/>
      <point x="202" y="491" type="line" smooth="yes"/>
      <point x="133.581" y="441.241"/>
      <point x="96.2779" y="404.029"/>
      <point x="87" y="364" type="curve"/>
      <point x="293" y="364" type="line"/>
      <point x="302" y="393"/>
      <point x="315" y="428"/>
      <point x="329" y="458" type="curve"/>
      <point x="323.236" y="461.806"/>
      <point x="314.995" y="463"/>
      <point x="306" y="463" type="curve"/>
      <point x="292" y="437"/>
      <point x="263.511" y="396"/>
      <point x="236.052" y="396" type="curve" smooth="yes"/>
      <point x="155" y="396" type="line"/>
      <point x="163.296" y="429"/>
      <point x="206.094" y="466.856"/>
      <point x="238" y="486" type="curve" smooth="yes"/>
      <point x="248" y="492" type="line" smooth="yes"/>
      <point x="295.35" y="520.41"/>
      <point x="352" y="560.769"/>
      <point x="352" y="623" type="curve" smooth="yes"/>
      <point x="352" y="669.48"/>
      <point x="307.886" y="688"/>
      <point x="268" y="688" type="curve" smooth="yes"/>
      <point x="224.662" y="688"/>
      <point x="136" y="663.739"/>
    </contour>
  </outline>
</glyph>
<glyph name="uni00B3" format="2">
  <advance width="307"/>
  <unicode hex="00B3"/>
  <outline>
    <contour>
      <point x="115" y="393" type="curve" smooth="yes"/>
      <point x="115" y="373"/>
      <point x="162" y="358"/>
      <point x="198" y="358" type="curve" smooth="yes"/>
      <point x="272" y="358"/>
      <point x="368" y="406"/>
      <point x="368" y="491" type="curve" smooth="yes"/>
      <point x="368" y="537"/>
      <point x="332" y="558"/>
      <point x="303" y="561" type="curve"/>
      <point x="333" y="576"/>
      <point x="368" y="603"/>
      <point x="368" y="640" type="curve" smooth="yes"/>
      <point x="368" y="670"/>
      <point x="341" y="688"/>
      <point x="294" y="688" type="curve" smooth="yes"/>
      <point x="233" y="688"/>
      <point x="164" y="651"/>
      <point x="164" y="618" type="curve" smooth="yes"/>
      <point x="164" y="606"/>
      <point x="170" y="600"/>
      <point x="184" y="600" type="curve" smooth="yes"/>
      <point x="207" y="600"/>
      <point x="211" y="611"/>
      <point x="214" y="625" type="curve" smooth="yes"/>
      <point x="220" y="651"/>
      <point x="240" y="664"/>
      <point x="277" y="664" type="curve" smooth="yes"/>
      <point x="294" y="664"/>
      <point x="311" y="657" name=".hr01"/>
      <point x="311" y="635" type="curve" smooth="yes"/>
      <point x="311" y="587"/>
      <point x="265" y="557"/>
      <point x="222" y="551" type="curve"/>
      <point x="219" y="527" type="line"/>
      <point x="224" y="528"/>
      <point x="233" y="529"/>
      <point x="240" y="529" type="curve" smooth="yes"/>
      <point x="262" y="529"/>
      <point x="307" y="523" name=".hr02"/>
      <point x="307" y="480" type="curve" smooth="yes"/>
      <point x="307" y="430"/>
      <point x="264" y="383"/>
      <point x="213" y="383" type="curve" smooth="yes"/>
      <point x="155" y="383"/>
      <point x="175" y="415"/>
      <point x="144" y="415" type="curve" smooth="yes"/>
      <point x="134" y="415"/>
      <point x="115" y="406"/>
    </contour>
  </outline>
</glyph>
<glyph name="Eth" format="2">
  <advance width="667"/>
  <unicode hex="00D0"/>
  <outline>
    <contour>
      <point x="220" y="287" type="line"/>
      <point x="338" y="287" type="line"/>
      <point x="346" y="326" type="line"/>
      <point x="228" y="326" type="line"/>
    </contour>
    <contour>
      <point x="180" y="326" type="line"/>
      <point x="75" y="326" type="line"/>
      <point x="67" y="287" type="line"/>
      <point x="173" y="287" type="line"/>
    </contour>
    <contour>
      <point x="135" y="0" type="line"/>
      <point x="172" y="0"/>
      <point x="210" y="-2"/>
      <point x="309" y="-2" type="curve" smooth="yes"/>
      <point x="527" y="-2"/>
      <point x="690" y="158"/>
      <point x="690" y="375" type="curve" smooth="yes"/>
      <point x="690" y="551"/>
      <point x="565" y="647"/>
      <point x="398" y="647" type="curve" smooth="yes"/>
      <point x="352" y="647"/>
      <point x="297" y="645"/>
      <point x="251" y="645" type="curve"/>
    </contour>
    <contour>
      <point x="189" y="73" type="curve" smooth="yes"/>
      <point x="287" y="574" type="line" smooth="yes"/>
      <point x="294" y="609"/>
      <point x="328" y="613"/>
      <point x="375" y="613" type="curve" smooth="yes"/>
      <point x="528" y="613"/>
      <point x="599" y="516"/>
      <point x="599" y="374" type="curve" smooth="yes"/>
      <point x="599" y="175"/>
      <point x="501" y="32"/>
      <point x="286" y="32" type="curve" smooth="yes"/>
      <point x="206" y="32"/>
      <point x="188" y="39"/>
      <point x="188" y="60" type="curve" smooth="yes"/>
      <point x="188" y="64"/>
      <point x="188" y="68"/>
    </contour>
    <contour>
      <point x="174" y="0" type="line"/>
      <point x="282" y="554" type="line"/>
      <point x="251" y="645" type="line"/>
      <point x="207" y="645"/>
      <point x="170" y="646"/>
      <point x="137" y="647" type="curve"/>
      <point x="135" y="645"/>
      <point x="129" y="628"/>
      <point x="134" y="618" type="curve"/>
      <point x="185" y="616"/>
      <point x="205" y="606"/>
      <point x="205" y="585" type="curve" smooth="yes"/>
      <point x="205" y="567"/>
      <point x="204" y="551"/>
      <point x="198" y="521" type="curve" smooth="yes"/>
      <point x="121" y="122" type="line" smooth="yes"/>
      <point x="108" y="56"/>
      <point x="85" y="34"/>
      <point x="17" y="27" type="curve"/>
      <point x="11" y="17"/>
      <point x="8" y="5"/>
      <point x="13" y="-2" type="curve"/>
      <point x="58" y="-1"/>
      <point x="98" y="0"/>
      <point x="135" y="0" type="curve" smooth="yes"/>
    </contour>
  </outline>
</glyph>
<glyph name="eng" format="2">
  <advance width="489"/>
  <unicode hex="014B"/>
  <outline>
    <contour>
      <point x="155" y="310" type="line"/>
      <point x="102" y="72" type="line"/>
      <point x="178" y="72" type="line"/>
      <point x="216" y="238" type="line"/>
      <point x="241" y="271"/>
      <point x="323" y="379"/>
      <point x="370" y="379" type="curve" smooth="yes"/>
      <point x="391" y="379"/>
      <point x="405" y="374"/>
      <point x="405" y="343" type="curve" smooth="yes"/>
      <point x="405" y="331"/>
      <point x="399" y="303"/>
      <point x="392" y="275" type="curve" smooth="yes"/>
      <point x="355" y="122" type="line"/>
      <point x="431" y="122" type="line"/>
      <point x="471" y="283" type="line" smooth="yes"/>
      <point x="480" y="318"/>
      <point x="484" y="341"/>
      <point x="484" y="359" type="curve" smooth="yes"/>
      <point x="484" y="419"/>
      <point x="457" y="439"/>
      <point x="418" y="439" type="curve" smooth="yes"/>
      <point x="364" y="439"/>
      <point x="308" y="401"/>
      <point x="231" y="310" type="curve"/>
    </contour>
    <contour>
      <point x="155" y="310" type="line"/>
      <point x="228" y="310" type="line"/>
      <point x="230" y="320" type="line" smooth="yes"/>
      <point x="243" y="383"/>
      <point x="257" y="407"/>
      <point x="257" y="421" type="curve" smooth="yes"/>
      <point x="257" y="431"/>
      <point x="252" y="436"/>
      <point x="245" y="436" type="curve"/>
      <point x="213" y="429"/>
      <point x="155" y="425"/>
      <point x="108" y="423" type="curve"/>
      <point x="101" y="415"/>
      <point x="103" y="404"/>
      <point x="109" y="395" type="curve"/>
      <point x="149" y="392" type="line" smooth="yes"/>
      <point x="161" y="391"/>
      <point x="167" y="382"/>
      <point x="167" y="371" type="curve" smooth="yes"/>
      <point x="167" y="363"/>
      <point x="163" y="342"/>
      <point x="156" y="314" type="curve" smooth="yes"/>
    </contour>
    <contour>
      <point x="90" y="12" type="curve" smooth="yes"/>
      <point x="90" y="-1"/>
      <point x="98" y="-10"/>
      <point x="129" y="-10" type="curve" smooth="yes"/>
      <point x="152" y="-10"/>
      <point x="164" y="8"/>
      <point x="172" y="45" type="curve" smooth="yes"/>
      <point x="178" y="72" type="line"/>
      <point x="102" y="72" type="line"/>
      <point x="97" y="48" type="line" smooth="yes"/>
      <point x="94" y="35"/>
      <point x="90" y="20"/>
    </contour>
    <contour>
      <point x="337" y="42" type="line" smooth="yes"/>
      <point x="304" y="-104"/>
      <point x="285" y="-160"/>
      <point x="250" y="-160" type="curve" smooth="yes"/>
      <point x="223" y="-160"/>
      <point x="222" y="-117"/>
      <point x="173" y="-117" type="curve" smooth="yes"/>
      <point x="160" y="-117"/>
      <point x="144" y="-127"/>
      <point x="144" y="-148" type="curve" smooth="yes"/>
      <point x="144" y="-180"/>
      <point x="182" y="-196"/>
      <point x="226" y="-196" type="curve" smooth="yes"/>
      <point x="327" y="-196"/>
      <point x="372" y="-110"/>
      <point x="406" y="24" type="curve" smooth="yes"/>
      <point x="431" y="122" type="line"/>
      <point x="355" y="122" type="line"/>
    </contour>
  </outline>
  <guideline angle="256.64" x="392" y="275"/>
  <guideline angle="76.5588" x="433" y="124"/>
</glyph>
<glyph name="Tbar" format="2">
  <advance width="544"/>
  <unicode hex="0166"/>
  <outline>
    <contour>
      <point x="167" y="-2" type="curve"/>
      <point x="212" y="-1"/>
      <point x="248" y="0"/>
      <point x="287" y="0" type="curve" smooth="yes"/>
      <point x="325" y="0"/>
      <point x="370" y="-1"/>
      <point x="414" y="-2" type="curve"/>
      <point x="417" y="2"/>
      <point x="420" y="22"/>
      <point x="417" y="27" type="curve"/>
      <point x="361" y="33"/>
      <point x="333" y="43"/>
      <point x="339" y="76" type="curve" smooth="yes"/>
      <point x="388" y="329" type="line"/>
      <point x="516" y="329" type="line" smooth="yes"/>
      <point x="528" y="329"/>
      <point x="540" y="344"/>
      <point x="542" y="355" type="curve"/>
      <point x="542" y="362"/>
      <point x="541" y="368"/>
      <point x="533" y="368" type="curve" smooth="yes"/>
      <point x="396" y="368" type="line"/>
      <point x="434" y="564" type="line" smooth="yes"/>
      <point x="441" y="598"/>
      <point x="454" y="606"/>
      <point x="488" y="606" type="curve" smooth="yes"/>
      <point x="542" y="606" type="line" smooth="yes"/>
      <point x="594" y="606"/>
      <point x="609" y="580"/>
      <point x="626" y="513" type="curve"/>
      <point x="636" y="513"/>
      <point x="644" y="513"/>
      <point x="656" y="518" type="curve"/>
      <point x="645" y="575"/>
      <point x="643" y="618"/>
      <point x="646" y="657" type="curve"/>
      <point x="645.745" y="657.255"/>
      <point x="644.255" y="658.745"/>
      <point x="644" y="659" type="curve"/>
      <point x="612" y="653"/>
      <point x="599" y="645"/>
      <point x="563" y="645" type="curve" smooth="yes"/>
      <point x="229" y="645" type="line" smooth="yes"/>
      <point x="203" y="645"/>
      <point x="182" y="654"/>
      <point x="159" y="659" type="curve"/>
      <point x="158.678" y="658.678"/>
      <point x="157.161" y="657.161"/>
      <point x="157" y="657" type="curve"/>
      <point x="145" y="609"/>
      <point x="133" y="581"/>
      <point x="111" y="528" type="curve"/>
      <point x="119" y="523"/>
      <point x="132" y="521"/>
      <point x="141" y="521" type="curve"/>
      <point x="170" y="586"/>
      <point x="195" y="606"/>
      <point x="248" y="606" type="curve" smooth="yes"/>
      <point x="317" y="606" type="line" smooth="yes"/>
      <point x="356" y="606"/>
      <point x="363" y="596"/>
      <point x="357" y="567" type="curve" smooth="yes"/>
      <point x="319" y="368" type="line"/>
      <point x="196" y="368" type="line" smooth="yes"/>
      <point x="184" y="368"/>
      <point x="172" y="349"/>
      <point x="172" y="339" type="curve" smooth="yes"/>
      <point x="172" y="334"/>
      <point x="174" y="329"/>
      <point x="180" y="329" type="curve" smooth="yes"/>
      <point x="311" y="329" type="line"/>
      <point x="262" y="76" type="line" smooth="yes"/>
      <point x="255" y="41"/>
      <point x="229" y="29"/>
      <point x="169" y="27" type="curve"/>
      <point x="165" y="23"/>
      <point x="163" y="7"/>
    </contour>
  </outline>
</glyph>
<glyph name="Uhungarumlaut" format="2">
  <advance width="634"/>
  <unicode hex="0170"/>
  <outline>
    <component base="U"/>
    <contour>
      <point x="644" y="830" type="curve" smooth="yes"/>
      <point x="631.105" y="830"/>
      <point x="622.68" y="822.849"/>
      <point x="615" y="813" type="curve" smooth="yes"/>
      <point x="530" y="704" type="line" smooth="yes"/>
      <point x="529.13" y="702.885"/>
      <point x="528" y="699"/>
      <point x="528" y="696" type="curve" smooth="yes"/>
      <point x="528" y="690"/>
      <point x="534" y="686"/>
      <point x="539" y="686" type="curve" smooth="yes"/>
      <point x="544.349" y="686"/>
      <point x="547.803" y="687.964"/>
      <point x="552" y="691" type="curve" smooth="yes"/>
      <point x="664" y="772" type="line" smooth="yes"/>
      <point x="673.223" y="778.67"/>
      <point x="677" y="788.636"/>
      <point x="677" y="799" type="curve" smooth="yes"/>
      <point x="677" y="815"/>
      <point x="668" y="830"/>
    </contour>
    <contour>
      <point x="517" y="835" type="curve" smooth="yes"/>
      <point x="504.922" y="835"/>
      <point x="495.634" y="833.452"/>
      <point x="488" y="823" type="curve" smooth="yes"/>
      <point x="404" y="708" type="line" smooth="yes"/>
      <point x="403.166" y="706.858"/>
      <point x="402" y="704"/>
      <point x="402" y="701" type="curve" smooth="yes"/>
      <point x="402" y="695.038"/>
      <point x="406.987" y="690"/>
      <point x="413" y="690" type="curve" smooth="yes"/>
      <point x="415" y="690"/>
      <point x="418.476" y="690.096"/>
      <point x="421" y="692" type="curve" smooth="yes"/>
      <point x="535" y="778" type="line" smooth="yes"/>
      <point x="543.592" y="784.482"/>
      <point x="548" y="794.362"/>
      <point x="548" y="805" type="curve" smooth="yes"/>
      <point x="548" y="823"/>
      <point x="531" y="835"/>
    </contour>
  </outline>
</glyph>
<glyph name="longs" format="2">
  <advance width="299"/>
  <unicode hex="017F"/>
  <anchor x="398.401" y="740" name="t.uni0302"/>
  <outline>
    <contour>
      <point x="-67" y="-187" type="curve" smooth="yes"/>
      <point x="-67" y="-212"/>
      <point x="-28" y="-233"/>
      <point x="6" y="-233" type="curve" smooth="yes"/>
      <point x="108.54" y="-233"/>
      <point x="163.508" y="-136.315"/>
      <point x="185.941" y="-24.535" type="curve" smooth="yes"/>
      <point x="288" y="484" type="line" smooth="yes"/>
      <point x="296.921" y="528.453"/>
      <point x="327.395" y="664"/>
      <point x="393" y="664" type="curve" smooth="yes"/>
      <point x="419" y="664"/>
      <point x="424.015" y="648"/>
      <point x="425" y="630" type="curve" smooth="yes"/>
      <point x="426.225" y="607.907"/>
      <point x="431.533" y="583"/>
      <point x="459.453" y="583" type="curve" smooth="yes"/>
      <point x="487.827" y="583"/>
      <point x="501" y="602"/>
      <point x="501" y="628" type="curve" smooth="yes"/>
      <point x="501" y="663"/>
      <point x="457.427" y="698"/>
      <point x="402" y="698" type="curve" smooth="yes"/>
      <point x="272.782" y="698"/>
      <point x="232.519" y="563"/>
      <point x="208" y="461" type="curve" smooth="yes"/>
      <point x="202.67" y="438.828"/>
      <point x="185.25" y="430.225"/>
      <point x="163" y="428" type="curve" smooth="yes"/>
      <point x="133" y="425" type="line"/>
      <point x="127.013" y="415.797"/>
      <point x="126.238" y="402.24"/>
      <point x="129" y="395" type="curve"/>
      <point x="165" y="393" type="line" smooth="yes"/>
      <point x="178.872" y="392.229"/>
      <point x="188.373" y="384.655"/>
      <point x="186" y="372" type="curve" smooth="yes"/>
      <point x="113.705" y="-13.572" type="line" smooth="yes"/>
      <point x="84.005" y="-171.976"/>
      <point x="73.54" y="-197"/>
      <point x="37" y="-197" type="curve" smooth="yes"/>
      <point x="21" y="-197"/>
      <point x="17" y="-193"/>
      <point x="11" y="-182" type="curve" smooth="yes"/>
      <point x="0" y="-162"/>
      <point x="-16" y="-150"/>
      <point x="-34" y="-150" type="curve" smooth="yes"/>
      <point x="-49" y="-150"/>
      <point x="-67" y="-165"/>
    </contour>
  </outline>
</glyph>
<glyph name="uni0197" format="2">
  <advance width="280"/>
  <unicode hex="0197"/>
  <outline>
    <contour>
      <point x="97" y="371" type="line" smooth="yes"/>
      <point x="88" y="371"/>
      <point x="75" y="356"/>
      <point x="73" y="346" type="curve"/>
      <point x="71" y="340"/>
      <point x="73" y="332"/>
      <point x="81" y="332" type="curve" smooth="yes"/>
      <point x="310" y="332" type="line" smooth="yes"/>
      <point x="322" y="332"/>
      <point x="334" y="347"/>
      <point x="336" y="358" type="curve" smooth="yes"/>
      <point x="337" y="363"/>
      <point x="336" y="371"/>
      <point x="327" y="371" type="curve" smooth="yes"/>
    </contour>
    <contour>
      <point x="122" y="0" type="line"/>
      <point x="156" y="0"/>
      <point x="227" y="-1"/>
      <point x="265" y="-2" type="curve"/>
      <point x="268" y="2"/>
      <point x="271" y="22"/>
      <point x="268" y="27" type="curve"/>
      <point x="206" y="33"/>
      <point x="182" y="38"/>
      <point x="200" y="129" type="curve" smooth="yes"/>
      <point x="278" y="534" type="line" smooth="yes"/>
      <point x="289" y="591"/>
      <point x="301" y="610"/>
      <point x="378" y="618" type="curve"/>
      <point x="382" y="622"/>
      <point x="384" y="638"/>
      <point x="380" y="647" type="curve"/>
      <point x="335" y="646"/>
      <point x="302" y="645"/>
      <point x="263" y="645" type="curve" smooth="yes"/>
      <point x="251" y="645" type="line"/>
    </contour>
    <contour>
      <point x="174" y="0" type="line"/>
      <point x="282" y="554" type="line"/>
      <point x="251" y="645" type="line"/>
      <point x="207" y="645"/>
      <point x="170" y="646"/>
      <point x="137" y="647" type="curve"/>
      <point x="135" y="645"/>
      <point x="129" y="628"/>
      <point x="134" y="618" type="curve"/>
      <point x="185" y="616"/>
      <point x="205" y="606"/>
      <point x="205" y="585" type="curve" smooth="yes"/>
      <point x="205" y="567"/>
      <point x="204" y="551"/>
      <point x="198" y="521" type="curve" smooth="yes"/>
      <point x="121" y="122" type="line" smooth="yes"/>
      <point x="108" y="56"/>
      <point x="85" y="34"/>
      <point x="17" y="27" type="curve"/>
      <point x="11" y="17"/>
      <point x="8" y="5"/>
      <point x="13" y="-2" type="curve"/>
      <point x="58" y="-1"/>
      <point x="98" y="0"/>
      <point x="135" y="0" type="curve" smooth="yes"/>
    </contour>
  </outline>
</glyph>
<glyph name="uni019F" format="2">
  <advance width="668"/>
  <unicode hex="019F"/>
  <outline>
    <component base="O"/>
    <contour>
      <point x="168" y="311" type="line"/>
      <point x="639.075" y="311" type="line"/>
      <point x="645.14" y="353" type="line"/>
      <point x="176" y="353" type="line"/>
    </contour>
  </outline>
</glyph>
<glyph name="uni01DD" format="2">
  <advance width="396"/>
  <unicode hex="01DD"/>
  <outline>
    <contour>
      <point x="332" y="230" type="curve"/>
      <point x="135.632" y="188.192"/>
      <point x="75" y="141.611"/>
      <point x="75" y="76.952" type="curve" smooth="yes"/>
      <point x="75" y="24.7"/>
      <point x="118.375" y="-10"/>
      <point x="170" y="-10" type="curve" smooth="yes"/>
      <point x="309.596" y="-10"/>
      <point x="416" y="118.463"/>
      <point x="416" y="287" type="curve" smooth="yes"/>
      <point x="416" y="380.785"/>
      <point x="368.891" y="439"/>
      <point x="293" y="439" type="curve" smooth="yes"/>
      <point x="224.982" y="439"/>
      <point x="164.13" y="402.879"/>
      <point x="106" y="328" type="curve"/>
      <point x="111.275" y="316.396"/>
      <point x="117.594" y="312"/>
      <point x="129" y="312" type="curve"/>
      <point x="182.925" y="366.871"/>
      <point x="213.186" y="379"/>
      <point x="246.028" y="379" type="curve" smooth="yes"/>
      <point x="299.143" y="379"/>
      <point x="333" y="333.45"/>
      <point x="333" y="264" type="curve" smooth="yes"/>
      <point x="333" y="248.5"/>
      <point x="332.596" y="234.769"/>
    </contour>
    <contour>
      <point x="144" y="63.456" type="curve" smooth="yes"/>
      <point x="144" y="126.923"/>
      <point x="212.401" y="177.184"/>
      <point x="325" y="192" type="curve"/>
      <point x="297.546" y="81.401"/>
      <point x="247.26" y="21"/>
      <point x="189.339" y="21" type="curve" smooth="yes"/>
      <point x="159.958" y="21"/>
      <point x="144" y="36.226"/>
    </contour>
  </outline>
</glyph>
<glyph name="uni0271" format="2">
  <advance width="673"/>
  <unicode hex="0271"/>
  <outline>
    <contour>
      <point x="155" y="310" type="line"/>
      <point x="228" y="310" type="line"/>
      <point x="230" y="320" type="line" smooth="yes"/>
      <point x="243" y="383"/>
      <point x="257" y="407"/>
      <point x="257" y="421" type="curve" smooth="yes"/>
      <point x="257" y="431"/>
      <point x="252" y="436"/>
      <point x="245" y="436" type="curve"/>
      <point x="213" y="429"/>
      <point x="155" y="425"/>
      <point x="108" y="423" type="curve"/>
      <point x="101" y="415"/>
      <point x="103" y="404"/>
      <point x="109" y="395" type="curve"/>
      <point x="149" y="392" type="line" smooth="yes"/>
      <point x="161" y="391"/>
      <point x="167" y="382"/>
      <point x="167" y="371" type="curve" smooth="yes"/>
      <point x="167" y="363"/>
      <point x="166" y="349"/>
      <point x="158" y="321" type="curve" smooth="yes"/>
    </contour>
    <contour>
      <point x="89" y="12" type="curve" smooth="yes"/>
      <point x="89" y="-1"/>
      <point x="97" y="-10"/>
      <point x="128" y="-10" type="curve" smooth="yes"/>
      <point x="151" y="-10"/>
      <point x="156" y="-5"/>
      <point x="175" y="72" type="curve" smooth="yes"/>
      <point x="215" y="233" type="line"/>
      <point x="293" y="346"/>
      <point x="349" y="379"/>
      <point x="383" y="379" type="curve" smooth="yes"/>
      <point x="407" y="379"/>
      <point x="407" y="362"/>
      <point x="407" y="342" type="curve" smooth="yes"/>
      <point x="407" y="330"/>
      <point x="406" y="306"/>
      <point x="399" y="275" type="curve" smooth="yes"/>
      <point x="351" y="72" type="line" smooth="yes"/>
      <point x="341" y="29"/>
      <point x="339" y="20"/>
      <point x="339" y="14" type="curve" smooth="yes"/>
      <point x="339" y="1"/>
      <point x="347" y="-10"/>
      <point x="370" y="-10" type="curve" smooth="yes"/>
      <point x="404" y="-10"/>
      <point x="407" y="-5"/>
      <point x="425" y="72" type="curve" smooth="yes"/>
      <point x="462" y="229" type="line"/>
      <point x="493" y="276"/>
      <point x="562" y="379"/>
      <point x="622" y="379" type="curve" smooth="yes"/>
      <point x="638" y="379"/>
      <point x="648" y="372"/>
      <point x="648" y="341" type="curve" smooth="yes"/>
      <point x="648" y="331"/>
      <point x="647" y="302"/>
      <point x="639" y="271" type="curve" smooth="yes"/>
      <point x="600" y="114" type="line"/>
      <point x="671" y="101" type="line"/>
      <point x="717" y="279" type="line" smooth="yes"/>
      <point x="723" y="302"/>
      <point x="727" y="333"/>
      <point x="727" y="354" type="curve" smooth="yes"/>
      <point x="727" y="415"/>
      <point x="694" y="439"/>
      <point x="656" y="439" type="curve" smooth="yes"/>
      <point x="604" y="439"/>
      <point x="544" y="396"/>
      <point x="479" y="305" type="curve"/>
      <point x="482" y="321"/>
      <point x="483" y="339"/>
      <point x="483" y="352" type="curve" smooth="yes"/>
      <point x="483" y="422"/>
      <point x="453" y="439"/>
      <point x="417" y="439" type="curve" smooth="yes"/>
      <point x="344" y="439"/>
      <point x="277" y="370"/>
      <point x="230" y="310" type="curve"/>
      <point x="155" y="310" type="line"/>
      <point x="101" y="72" type="line" smooth="yes"/>
      <point x="91" y="29"/>
      <point x="89" y="20"/>
    </contour>
    <contour>
      <point x="398" y="-189" type="curve" smooth="yes"/>
      <point x="398" y="-208"/>
      <point x="415" y="-229"/>
      <point x="461" y="-229" type="curve" smooth="yes"/>
      <point x="565" y="-229"/>
      <point x="624" y="-78"/>
      <point x="666" y="82" type="curve" smooth="yes"/>
      <point x="671" y="101" type="line"/>
      <point x="600" y="114" type="line"/>
      <point x="595" y="92" type="line" smooth="yes"/>
      <point x="560" y="-63"/>
      <point x="520" y="-202"/>
      <point x="474" y="-202" type="curve" smooth="yes"/>
      <point x="438" y="-202"/>
      <point x="460" y="-163"/>
      <point x="421" y="-163" type="curve" smooth="yes"/>
      <point x="407" y="-163"/>
      <point x="398" y="-174"/>
    </contour>
  </outline>
  <guideline angle="75.5102" x="671" y="101"/>
  <guideline angle="256.05" x="639" y="271"/>
  <guideline angle="257.106" x="158" y="321"/>
</glyph>
<glyph name="dotaccent" format="2">
  <advance width="217"/>
  <unicode hex="02D9"/>
  <outline>
    <contour>
      <point x="179" y="577" type="curve" smooth="yes"/>
      <point x="179" y="551"/>
      <point x="200" y="530"/>
      <point x="226" y="530" type="curve" smooth="yes"/>
      <point x="252" y="530"/>
      <point x="273" y="551"/>
      <point x="273" y="577" type="curve" smooth="yes"/>
      <point x="273" y="603"/>
      <point x="252" y="624"/>
      <point x="226" y="624" type="curve" smooth="yes"/>
      <point x="200" y="624"/>
      <point x="179" y="603"/>
    </contour>
  </outline>
</glyph>
<glyph name="tildecomb" format="2">
  <unicode hex="0303"/>
  <anchor x="-28" y="500" name="_t.uni0302"/>
  <outline>
    <contour>
      <point x="28" y="544" type="curve" smooth="yes"/>
      <point x="9" y="544"/>
      <point x="-6" y="554"/>
      <point x="-20" y="566" type="curve" smooth="yes"/>
      <point x="-37" y="580"/>
      <point x="-56" y="594"/>
      <point x="-86" y="594" type="curve" smooth="yes"/>
      <point x="-129" y="594"/>
      <point x="-158" y="564"/>
      <point x="-184" y="505" type="curve"/>
      <point x="-179" y="504"/>
      <point x="-165" y="501"/>
      <point x="-161" y="500" type="curve"/>
      <point x="-144" y="533"/>
      <point x="-128" y="548"/>
      <point x="-102" y="548" type="curve" smooth="yes"/>
      <point x="-85" y="548"/>
      <point x="-69" y="537"/>
      <point x="-53" y="526" type="curve"/>
      <point x="-35" y="512"/>
      <point x="-16" y="500"/>
      <point x="6" y="500" type="curve" smooth="yes"/>
      <point x="52" y="500"/>
      <point x="87" y="530"/>
      <point x="111" y="590" type="curve"/>
      <point x="107" y="591"/>
      <point x="92" y="595"/>
      <point x="88" y="596" type="curve"/>
      <point x="66" y="554"/>
      <point x="50" y="544"/>
    </contour>
  </outline>
</glyph>
<glyph name="uni0304" format="2">
  <unicode hex="0304"/>
  <anchor x="-103" y="500" name="_t.uni0302"/>
  <anchor x="-97" y="500" name="_top"/>
  <outline>
    <contour>
      <point x="15" y="500" type="line" smooth="yes"/>
      <point x="28" y="500"/>
      <point x="42" y="518"/>
      <point x="45" y="530" type="curve"/>
      <point x="46" y="536"/>
      <point x="43" y="544"/>
      <point x="33" y="544" type="curve" smooth="yes"/>
      <point x="-212" y="544" type="line" smooth="yes"/>
      <point x="-223" y="544"/>
      <point x="-237" y="527"/>
      <point x="-239" y="515" type="curve"/>
      <point x="-241" y="508"/>
      <point x="-238" y="500"/>
      <point x="-229" y="500" type="curve" smooth="yes"/>
    </contour>
  </outline>
</glyph>
<glyph name="uni0305" format="2">
  <unicode hex="0305"/>
  <outline>
    <contour>
      <point x="37" y="500" type="line" smooth="yes"/>
      <point x="50" y="500"/>
      <point x="64" y="518"/>
      <point x="66" y="530" type="curve"/>
      <point x="68" y="536"/>
      <point x="65" y="544"/>
      <point x="56" y="544" type="curve" smooth="yes"/>
      <point x="-285" y="544" type="line" smooth="yes"/>
      <point x="-296" y="544"/>
      <point x="-310" y="527"/>
      <point x="-313" y="515" type="curve"/>
      <point x="-314" y="508"/>
      <point x="-312" y="500"/>
      <point x="-303" y="500" type="curve" smooth="yes"/>
    </contour>
  </outline>
</glyph>
<glyph name="uni0307" format="2">
  <unicode hex="0307"/>
  <anchor x="-35" y="500" name="_t.uni0302"/>
  <anchor x="48" y="556" name="_t.acutedot"/>
  <outline>
    <contour>
      <point x="-76" y="539" type="curve" smooth="yes"/>
      <point x="-76" y="517"/>
      <point x="-60" y="500"/>
      <point x="-37" y="500" type="curve" smooth="yes"/>
      <point x="-7" y="500"/>
      <point x="22" y="528"/>
      <point x="22" y="558" type="curve" smooth="yes"/>
      <point x="22" y="579"/>
      <point x="6" y="596"/>
      <point x="-16" y="596" type="curve" smooth="yes"/>
      <point x="-45" y="596"/>
      <point x="-76" y="568"/>
    </contour>
  </outline>
  <guideline angle="90" x="-55" y="0"/>
  <guideline angle="0" x="0" y="604"/>
</glyph>
<glyph name="uni030E" format="2">
  <unicode hex="030E"/>
  <outline>
    <contour>
      <point x="-60" y="539" type="line"/>
      <point x="-24" y="719" type="line"/>
      <point x="-68" y="719" type="line"/>
      <point x="-104" y="539" type="line"/>
    </contour>
    <contour>
      <point x="-164" y="540" type="line" name=".hr01"/>
      <point x="-128" y="719" type="line"/>
      <point x="-173" y="719" type="line"/>
      <point x="-209" y="540" type="line"/>
    </contour>
  </outline>
</glyph>
<glyph name="uni0312" format="2">
  <unicode hex="0312"/>
  <anchor x="8.039" y="510" name="_t.uni0302"/>
  <outline>
    <contour>
      <point x="8.039" y="510" type="curve" smooth="yes"/>
      <point x="32.222" y="510"/>
      <point x="65.709" y="528.391"/>
      <point x="66.952" y="554.922" type="curve" smooth="yes"/>
      <point x="67.143" y="559" type="line" smooth="yes"/>
      <point x="67.875" y="574.63"/>
      <point x="58.436" y="592"/>
      <point x="24.424" y="592" type="curve" smooth="yes"/>
      <point x="18.424" y="592"/>
      <point x="13.467" y="591.571"/>
      <point x="4.407" y="590.873" type="curve" smooth="yes"/>
      <point x="0.492" y="590.571" type="line" smooth="yes"/>
      <point x="-1.965" y="590.382"/>
      <point x="-3.369" y="591.615"/>
      <point x="-3.369" y="595.044" type="curve"/>
      <point x="-3.359" y="639.071"/>
      <point x="53.057" y="664.807"/>
      <point x="88.424" y="672" type="curve"/>
      <point x="89.424" y="675.5"/>
      <point x="90.174" y="679.5"/>
      <point x="90.174" y="683.125" type="curve" smooth="yes"/>
      <point x="90.174" y="686.75"/>
      <point x="89.424" y="690"/>
      <point x="87.424" y="692" type="curve"/>
      <point x="24.673" y="684.294"/>
      <point x="-42.033" y="634.135"/>
      <point x="-41.782" y="567.787" type="curve" smooth="yes"/>
      <point x="-41.659" y="535.368"/>
      <point x="-25.591" y="510"/>
    </contour>
  </outline>
</glyph>
<glyph name="uni0314" format="2">
  <unicode hex="0314"/>
  <anchor x="14" y="510" name="_t.uni0302"/>
  <anchor x="107" y="696" name="_t.gr"/>
  <outline>
    <contour>
      <point x="66.905" y="696" type="curve" smooth="yes"/>
      <point x="19.298" y="696"/>
      <point x="-15.17" y="642.923"/>
      <point x="-15.17" y="596.73" type="curve" smooth="yes"/>
      <point x="-15.17" y="546.72"/>
      <point x="22.734" y="516.582"/>
      <point x="71.439" y="510" type="curve"/>
      <point x="75.439" y="514"/>
      <point x="78.439" y="523"/>
      <point x="80.439" y="530" type="curve"/>
      <point x="32.478" y="540.464"/>
      <point x="16.455" y="566.137"/>
      <point x="16.458" y="590.556" type="curve" smooth="yes"/>
      <point x="16.459" y="596.967"/>
      <point x="16.914" y="612.146"/>
      <point x="25.374" y="611.444" type="curve" smooth="yes"/>
      <point x="29.865" y="611.072" type="line" smooth="yes"/>
      <point x="80.689" y="606.855"/>
      <point x="107.661" y="623.679"/>
      <point x="107.648" y="659.591" type="curve" smooth="yes"/>
      <point x="107.642" y="675.052"/>
      <point x="95.969" y="696"/>
    </contour>
  </outline>
</glyph>
<glyph name="uni0316" format="2">
  <unicode hex="0316"/>
  <anchor x="-293" y="-60" name="_b.minus-60"/>
  <outline>
    <contour>
      <point x="-364" y="-101" type="curve"/>
      <point x="-366" y="-111" type="line"/>
      <point x="-244" y="-189" type="line" smooth="yes"/>
      <point x="-230" y="-198"/>
      <point x="-223" y="-201"/>
      <point x="-217" y="-201" type="curve" smooth="yes"/>
      <point x="-210" y="-201"/>
      <point x="-201" y="-193"/>
      <point x="-200" y="-187" type="curve"/>
      <point x="-198" y="-180"/>
      <point x="-200" y="-174"/>
      <point x="-206" y="-165" type="curve"/>
      <point x="-283" y="-62" type="line"/>
      <point x="-284" y="-61"/>
      <point x="-289" y="-60"/>
      <point x="-293" y="-60" type="curve" smooth="yes"/>
      <point x="-322" y="-60"/>
      <point x="-349" y="-83"/>
    </contour>
  </outline>
</glyph>
<glyph name="uni0320" format="2">
  <unicode hex="0320"/>
  <anchor x="-281" y="-60" name="_b.minus-60"/>
  <outline>
    <contour>
      <point x="-186" y="-60" type="curve"/>
      <point x="-365" y="-60" type="line"/>
      <point x="-373" y="-66"/>
      <point x="-378" y="-74"/>
      <point x="-379" y="-81" type="curve"/>
      <point x="-381" y="-88"/>
      <point x="-380" y="-96"/>
      <point x="-377" y="-103" type="curve"/>
      <point x="-196" y="-103" type="line"/>
      <point x="-188" y="-94"/>
      <point x="-184" y="-87"/>
      <point x="-182" y="-81" type="curve"/>
      <point x="-181" y="-74"/>
      <point x="-183" y="-67"/>
    </contour>
  </outline>
</glyph>
<glyph name="uni0326" format="2">
  <unicode hex="0326"/>
  <anchor x="-258" y="-60" name="_b.minus-60"/>
  <outline>
    <contour>
      <point x="-258" y="-60" type="curve" smooth="yes"/>
      <point x="-295" y="-60"/>
      <point x="-316" y="-78"/>
      <point x="-316" y="-108" type="curve" smooth="yes"/>
      <point x="-316" y="-160"/>
      <point x="-256" y="-132"/>
      <point x="-256" y="-159" type="curve" smooth="yes"/>
      <point x="-256" y="-195"/>
      <point x="-316" y="-215"/>
      <point x="-343" y="-221" type="curve"/>
      <point x="-345" y="-230"/>
      <point x="-345" y="-239"/>
      <point x="-340" y="-245" type="curve"/>
      <point x="-271" y="-234"/>
      <point x="-211" y="-194"/>
      <point x="-211" y="-117" type="curve" smooth="yes"/>
      <point x="-211" y="-82"/>
      <point x="-229" y="-60"/>
    </contour>
  </outline>
</glyph>
<glyph name="uni0327" format="2">
  <unicode hex="0327"/>
  <anchor x="-181" y="-0" name="_b.cedilla"/>
  <outline>
    <contour>
      <point x="-161" y="0" type="line"/>
      <point x="-197" y="0" type="line"/>
      <point x="-256" y="-96" type="line"/>
      <point x="-252" y="-102" type="line"/>
      <point x="-200" y="-106"/>
      <point x="-177" y="-112"/>
      <point x="-177" y="-135" type="curve" smooth="yes"/>
      <point x="-177" y="-160"/>
      <point x="-207" y="-171"/>
      <point x="-239" y="-171" type="curve" smooth="yes"/>
      <point x="-259" y="-171"/>
      <point x="-269" y="-167"/>
      <point x="-294" y="-157" type="curve"/>
      <point x="-302" y="-164"/>
      <point x="-307" y="-171"/>
      <point x="-309" y="-183" type="curve"/>
      <point x="-284" y="-194"/>
      <point x="-266" y="-200"/>
      <point x="-239" y="-200" type="curve" smooth="yes"/>
      <point x="-154" y="-200"/>
      <point x="-115" y="-172"/>
      <point x="-115" y="-122" type="curve" smooth="yes"/>
      <point x="-115" y="-94"/>
      <point x="-148" y="-73"/>
      <point x="-202" y="-67" type="curve"/>
    </contour>
  </outline>
</glyph>
<glyph name="uni032A" format="2">
  <unicode hex="032A"/>
  <anchor x="-276" y="-60" name="_b.minus-60"/>
  <outline>
    <contour>
      <point x="-371" y="-169" type="curve"/>
      <point x="-358" y="-104" type="line"/>
      <point x="-206" y="-104" type="line"/>
      <point x="-220" y="-172" type="line"/>
      <point x="-214" y="-178"/>
      <point x="-207" y="-181"/>
      <point x="-201" y="-181" type="curve" smooth="yes"/>
      <point x="-194" y="-181"/>
      <point x="-187" y="-177"/>
      <point x="-175" y="-169" type="curve"/>
      <point x="-157" y="-82" type="line"/>
      <point x="-155" y="-68"/>
      <point x="-157" y="-60"/>
      <point x="-177" y="-60" type="curve" smooth="yes"/>
      <point x="-362" y="-60" type="line" smooth="yes"/>
      <point x="-378" y="-60"/>
      <point x="-396" y="-73"/>
      <point x="-398" y="-84" type="curve" smooth="yes"/>
      <point x="-416" y="-172" type="line"/>
      <point x="-409" y="-175"/>
      <point x="-403" y="-179"/>
      <point x="-395" y="-179" type="curve" smooth="yes"/>
      <point x="-388" y="-179"/>
      <point x="-380" y="-176"/>
    </contour>
  </outline>
</glyph>
<glyph name="uni032F" format="2">
  <unicode hex="032F"/>
  <anchor x="-269" y="-60" name="_b.minus-60"/>
  <outline>
    <contour>
      <point x="-191" y="-207" type="curve"/>
      <point x="-162" y="-195" type="line"/>
      <point x="-162" y="-110"/>
      <point x="-199" y="-60"/>
      <point x="-269" y="-60" type="curve" smooth="yes"/>
      <point x="-328" y="-60"/>
      <point x="-402" y="-109"/>
      <point x="-431" y="-195" type="curve"/>
      <point x="-407" y="-207" type="line"/>
      <point x="-385" y="-149"/>
      <point x="-333" y="-117"/>
      <point x="-281" y="-117" type="curve" smooth="yes"/>
      <point x="-227" y="-117"/>
      <point x="-191" y="-154"/>
    </contour>
  </outline>
</glyph>
<glyph name="uni033B" format="2">
  <unicode hex="033B"/>
  <anchor x="-269" y="-60" name="_b.minus-60"/>
  <outline>
    <contour>
      <point x="-358" y="-60" type="line"/>
      <point x="-391" y="-226" type="line"/>
      <point x="-209" y="-226" type="line"/>
      <point x="-176" y="-60" type="line"/>
    </contour>
    <contour>
      <point x="-327" y="-92" type="line"/>
      <point x="-219" y="-92" type="line"/>
      <point x="-240" y="-194" type="line"/>
      <point x="-348" y="-194" type="line"/>
    </contour>
  </outline>
</glyph>
<glyph name="uni0342" format="2">
  <unicode hex="0342"/>
  <anchor x="-144.725" y="510" name="_t.uni0302"/>
  <outline>
    <contour>
      <point x="-68.725" y="554" type="curve" smooth="yes"/>
      <point x="-87.725" y="554"/>
      <point x="-102.597" y="564.151"/>
      <point x="-116.725" y="576" type="curve" smooth="yes"/>
      <point x="-133.598" y="590.152"/>
      <point x="-152.725" y="604"/>
      <point x="-182.725" y="604" type="curve" smooth="yes"/>
      <point x="-225.725" y="604"/>
      <point x="-254.725" y="574"/>
      <point x="-280.725" y="515" type="curve"/>
      <point x="-275.725" y="514"/>
      <point x="-261.725" y="511"/>
      <point x="-257.725" y="510" type="curve"/>
      <point x="-241.725" y="543"/>
      <point x="-225.725" y="558"/>
      <point x="-199.725" y="558" type="curve" smooth="yes"/>
      <point x="-182.725" y="558"/>
      <point x="-165.725" y="547"/>
      <point x="-149.725" y="536" type="curve"/>
      <point x="-131.725" y="522"/>
      <point x="-112.725" y="510"/>
      <point x="-90.725" y="510" type="curve" smooth="yes"/>
      <point x="-44.725" y="510"/>
      <point x="-9.725" y="540"/>
      <point x="14.275" y="600" type="curve"/>
      <point x="10.275" y="601"/>
      <point x="-4.725" y="605"/>
      <point x="-8.725" y="606" type="curve"/>
      <point x="-30.725" y="564"/>
      <point x="-46.725" y="554"/>
    </contour>
  </outline>
</glyph>
<glyph name="uni0345" format="2">
  <unicode hex="0345"/>
  <anchor x="-204" y="-60" name="_b.minus-60"/>
  <outline>
    <contour>
      <point x="-237" y="-73" type="line"/>
      <point x="-254" y="-155" type="line" smooth="yes"/>
      <point x="-266" y="-213"/>
      <point x="-231" y="-237"/>
      <point x="-183" y="-237" type="curve" smooth="yes"/>
      <point x="-158" y="-237"/>
      <point x="-109" y="-223"/>
      <point x="-80" y="-154" type="curve"/>
      <point x="-104" y="-146" type="line"/>
      <point x="-116" y="-173"/>
      <point x="-137" y="-197"/>
      <point x="-155" y="-197" type="curve" smooth="yes"/>
      <point x="-175" y="-197"/>
      <point x="-183" y="-174"/>
      <point x="-171" y="-119" type="curve"/>
      <point x="-161" y="-67" type="line"/>
      <point x="-181" y="-60" type="line"/>
    </contour>
  </outline>
</glyph>
<glyph name="tonos" format="2">
  <advance width="219"/>
  <unicode hex="0384"/>
  <outline>
    <contour>
      <point x="227" y="689" type="curve" smooth="yes"/>
      <point x="217.439" y="664.648"/>
      <point x="176.228" y="559.69"/>
      <point x="163" y="526" type="curve" smooth="yes"/>
      <point x="160" y="518"/>
      <point x="159" y="514"/>
      <point x="160" y="509" type="curve"/>
      <point x="160" y="505"/>
      <point x="168" y="500"/>
      <point x="176" y="500" type="curve" smooth="yes"/>
      <point x="180" y="500"/>
      <point x="185" y="504"/>
      <point x="188" y="509" type="curve"/>
      <point x="207.623" y="535.227"/>
      <point x="277.984" y="629.267"/>
      <point x="292" y="648" type="curve" smooth="yes"/>
      <point x="297" y="655"/>
      <point x="300" y="664"/>
      <point x="298" y="673" type="curve"/>
      <point x="295" y="692"/>
      <point x="277" y="708"/>
      <point x="258" y="708" type="curve" smooth="yes"/>
      <point x="246" y="708"/>
      <point x="232" y="701"/>
    </contour>
  </outline>
</glyph>
<glyph name="Alpha" format="2">
  <advance width="667"/>
  <unicode hex="0391"/>
  <anchor x="338" y="733" name="t.gr"/>
  <anchor x="304" y="-60" name="b.minus-60"/>
  <anchor x="594" y="10" name="b.ogonek"/>
  <outline>
    <contour>
      <point x="9" y="-2" type="curve"/>
      <point x="45" y="-1"/>
      <point x="56" y="0"/>
      <point x="93" y="0" type="curve" smooth="yes"/>
      <point x="132" y="0"/>
      <point x="183" y="-1"/>
      <point x="218" y="-2" type="curve"/>
      <point x="225" y="8"/>
      <point x="226" y="19"/>
      <point x="222" y="29" type="curve"/>
      <point x="190" y="32" type="line" smooth="yes"/>
      <point x="165" y="34"/>
      <point x="154" y="41"/>
      <point x="154" y="56" type="curve" smooth="yes"/>
      <point x="154" y="63"/>
      <point x="156" y="71"/>
      <point x="161" y="79" type="curve"/>
      <point x="245" y="224" type="line"/>
      <point x="252" y="237"/>
      <point x="259" y="241"/>
      <point x="282" y="241" type="curve" smooth="yes"/>
      <point x="482" y="241" type="line"/>
      <point x="503" y="97" type="line" smooth="yes"/>
      <point x="507" y="71"/>
      <point x="508" y="65"/>
      <point x="508" y="60" type="curve" smooth="yes"/>
      <point x="508" y="41"/>
      <point x="492" y="36"/>
      <point x="459" y="32" type="curve" smooth="yes"/>
      <point x="431" y="29" type="line"/>
      <point x="422" y="21"/>
      <point x="424" y="3"/>
      <point x="426" y="-2" type="curve"/>
      <point x="468" y="-1"/>
      <point x="507" y="0"/>
      <point x="548" y="0" type="curve" smooth="yes"/>
      <point x="588" y="0"/>
      <point x="627" y="-1"/>
      <point x="662" y="-2" type="curve"/>
      <point x="669" y="8"/>
      <point x="671" y="19"/>
      <point x="668" y="29" type="curve"/>
      <point x="648" y="32" type="line" smooth="yes"/>
      <point x="610" y="38"/>
      <point x="595" y="47"/>
      <point x="588" y="86" type="curve" smooth="yes"/>
      <point x="491" y="658" type="line"/>
      <point x="487" y="658" type="line"/>
      <point x="481" y="654"/>
      <point x="461" y="645"/>
      <point x="451" y="645" type="curve"/>
      <point x="122" y="102" type="line" smooth="yes"/>
      <point x="85" y="40"/>
      <point x="57" y="31"/>
      <point x="15" y="29" type="curve"/>
      <point x="8" y="19"/>
      <point x="6" y="8"/>
    </contour>
    <contour>
      <point x="307" y="283" type="line" smooth="yes"/>
      <point x="291" y="283"/>
      <point x="284" y="285"/>
      <point x="284" y="290" type="curve" smooth="yes"/>
      <point x="284" y="292"/>
      <point x="285" y="294"/>
      <point x="286" y="296" type="curve"/>
      <point x="431" y="550" type="line"/>
      <point x="433" y="550" type="line"/>
      <point x="474" y="283" type="line"/>
    </contour>
  </outline>
</glyph>
<glyph name="uni03A9" format="2">
  <advance width="693"/>
  <unicode hex="03A9"/>
  <anchor x="168" y="724" name="t.gr"/>
  <anchor x="356" y="-60" name="b.minus-60"/>
  <outline>
    <contour>
      <point x="154.483" y="59" type="line" smooth="yes"/>
      <point x="99.652" y="59"/>
      <point x="88.703" y="73.291"/>
      <point x="89.275" y="125" type="curve"/>
      <point x="80.695" y="125"/>
      <point x="69.801" y="122.814"/>
      <point x="62" y="119" type="curve"/>
      <point x="59.06" y="79.432"/>
      <point x="55.787" y="39.604"/>
      <point x="49" y="0" type="curve"/>
      <point x="260.859" y="0" type="line" smooth="yes"/>
      <point x="270.748" y="0"/>
      <point x="279.659" y="5.504"/>
      <point x="280.813" y="16" type="curve" smooth="yes"/>
      <point x="294.781" y="143" type="line"/>
      <point x="233.758" y="189.35"/>
      <point x="200" y="238.363"/>
      <point x="200" y="317" type="curve" smooth="yes"/>
      <point x="200" y="464.806"/>
      <point x="297.779" y="626"/>
      <point x="459.401" y="626" type="curve" smooth="yes"/>
      <point x="572.57" y="626"/>
      <point x="633" y="545.092"/>
      <point x="633" y="437" type="curve" smooth="yes"/>
      <point x="633" y="306.505"/>
      <point x="570.148" y="203.314"/>
      <point x="455.41" y="143" type="curve"/>
      <point x="423.529" y="10.221" type="line"/>
      <point x="423.529" y="2.282"/>
      <point x="430.835" y="0"/>
      <point x="437.452" y="0" type="curve" smooth="yes"/>
      <point x="645" y="0" type="line"/>
      <point x="651.953" y="39.756"/>
      <point x="662.047" y="79.244"/>
      <point x="673" y="119" type="curve"/>
      <point x="664.847" y="123.067"/>
      <point x="656.855" y="125"/>
      <point x="648.275" y="125" type="curve"/>
      <point x="633.384" y="71.191"/>
      <point x="611.948" y="59"/>
      <point x="560.168" y="59" type="curve" smooth="yes"/>
      <point x="462.394" y="59" type="line"/>
      <point x="478.357" y="117" type="line"/>
      <point x="613.29" y="159.8"/>
      <point x="721" y="289.664"/>
      <point x="721" y="434" type="curve" smooth="yes"/>
      <point x="721" y="586.318"/>
      <point x="609.473" y="661"/>
      <point x="466.385" y="661" type="curve" smooth="yes"/>
      <point x="287.028" y="661"/>
      <point x="112" y="516.188"/>
      <point x="112" y="329" type="curve" smooth="yes"/>
      <point x="112" y="231.266"/>
      <point x="170.239" y="150.62"/>
      <point x="261.857" y="117" type="curve"/>
      <point x="255.871" y="59" type="line"/>
    </contour>
  </outline>
</glyph>
<glyph name="alpha" format="2">
  <advance width="522"/>
  <unicode hex="03B1"/>
  <anchor x="325.174" y="510" name="t.uni0302"/>
  <outline>
    <contour>
      <point x="331.127" y="442" type="curve" smooth="yes"/>
      <point x="169.473" y="442"/>
      <point x="66.5" y="261.185"/>
      <point x="66.5" y="115" type="curve" smooth="yes"/>
      <point x="66.5" y="31.554"/>
      <point x="109.576" y="-12"/>
      <point x="194.243" y="-12" type="curve" smooth="yes"/>
      <point x="199.233" y="-12"/>
      <point x="204.156" y="-11.572"/>
      <point x="209.213" y="-11" type="curve" smooth="yes"/>
      <point x="266.051" y="-4.57"/>
      <point x="315" y="37"/>
      <point x="379" y="128" type="curve"/>
      <point x="378" y="27"/>
      <point x="385.994" y="-12"/>
      <point x="429" y="-12" type="curve" smooth="yes"/>
      <point x="469" y="-12"/>
      <point x="498" y="14"/>
      <point x="534" y="77" type="curve"/>
      <point x="529.037" y="82.952"/>
      <point x="519.519" y="86"/>
      <point x="511" y="86" type="curve"/>
      <point x="488" y="56"/>
      <point x="476" y="49"/>
      <point x="452" y="49" type="curve" smooth="yes"/>
      <point x="432.195" y="49"/>
      <point x="420" y="79.651"/>
      <point x="420" y="189" type="curve"/>
      <point x="588" y="434" type="line"/>
      <point x="576" y="434"/>
      <point x="559.969" y="428.069"/>
      <point x="546" y="429" type="curve" smooth="yes"/>
      <point x="531" y="430" type="line" smooth="yes"/>
      <point x="521.801" y="430.613"/>
      <point x="511" y="434"/>
      <point x="502" y="434" type="curve"/>
      <point x="421" y="292" type="line"/>
      <point x="421" y="302" type="line" smooth="yes"/>
      <point x="421" y="390"/>
      <point x="399.031" y="442"/>
    </contour>
    <contour>
      <point x="380" y="220" type="line"/>
      <point x="355.949" y="179" type="line" smooth="yes"/>
      <point x="329.654" y="134.174"/>
      <point x="261.671" y="22"/>
      <point x="206.635" y="22" type="curve" smooth="yes"/>
      <point x="160.538" y="22"/>
      <point x="142.5" y="60"/>
      <point x="142.5" y="118" type="curve" smooth="yes"/>
      <point x="142.5" y="216.176"/>
      <point x="200.416" y="408"/>
      <point x="316.867" y="408" type="curve" smooth="yes"/>
      <point x="369.979" y="408"/>
      <point x="380" y="346"/>
      <point x="380" y="260" type="curve" smooth="yes"/>
    </contour>
  </outline>
</glyph>
<glyph name="beta" format="2">
  <advance width="472"/>
  <unicode hex="03B2"/>
  <outline>
    <contour>
      <point x="67" y="-7" type="line" smooth="yes"/>
      <point x="39" y="-131"/>
      <point x="16" y="-183"/>
      <point x="-4" y="-217" type="curve"/>
      <point x="2" y="-235" type="line"/>
      <point x="80" y="-205" type="line"/>
      <point x="97" y="-165"/>
      <point x="110" y="-117"/>
      <point x="124" y="-58" type="curve" smooth="yes"/>
      <point x="142" y="20" type="line"/>
      <point x="164" y="-3"/>
      <point x="199" y="-12"/>
      <point x="250" y="-12" type="curve" smooth="yes"/>
      <point x="382" y="-12"/>
      <point x="486" y="141"/>
      <point x="486" y="263" type="curve" smooth="yes"/>
      <point x="486" y="360"/>
      <point x="416" y="390"/>
      <point x="384" y="402" type="curve"/>
      <point x="459" y="440"/>
      <point x="526" y="503"/>
      <point x="526" y="592" type="curve" smooth="yes"/>
      <point x="526" y="662"/>
      <point x="469" y="698"/>
      <point x="405" y="698" type="curve" smooth="yes"/>
      <point x="286" y="698"/>
      <point x="205" y="592"/>
      <point x="153" y="367" type="curve" smooth="yes"/>
    </contour>
    <contour>
      <point x="154" y="74" type="curve"/>
      <point x="250" y="490" type="line" smooth="yes"/>
      <point x="265" y="554"/>
      <point x="303" y="668"/>
      <point x="386" y="668" type="curve" smooth="yes"/>
      <point x="435" y="668"/>
      <point x="456" y="628"/>
      <point x="456" y="583" type="curve" smooth="yes"/>
      <point x="456" y="535"/>
      <point x="410" y="425"/>
      <point x="358" y="416" type="curve"/>
      <point x="341" y="424"/>
      <point x="328" y="428"/>
      <point x="317" y="428" type="curve" smooth="yes"/>
      <point x="293" y="428"/>
      <point x="272" y="422"/>
      <point x="272" y="394" type="curve" smooth="yes"/>
      <point x="272" y="378"/>
      <point x="286" y="370"/>
      <point x="301" y="370" type="curve" smooth="yes"/>
      <point x="316" y="370"/>
      <point x="328" y="375"/>
      <point x="349" y="385" type="curve"/>
      <point x="395" y="375"/>
      <point x="411" y="326"/>
      <point x="411" y="272" type="curve" smooth="yes"/>
      <point x="411" y="192"/>
      <point x="350" y="17"/>
      <point x="250" y="17" type="curve" smooth="yes"/>
      <point x="194" y="17"/>
      <point x="166" y="45"/>
    </contour>
  </outline>
</glyph>
<glyph name="epsilon" format="2">
  <advance width="369"/>
  <unicode hex="03B5"/>
  <anchor x="306" y="510" name="t.uni0302"/>
  <outline>
    <contour>
      <point x="138" y="93" type="curve" smooth="yes"/>
      <point x="138" y="153.101"/>
      <point x="182.073" y="210"/>
      <point x="245" y="210" type="curve" smooth="yes"/>
      <point x="260.478" y="210"/>
      <point x="276.427" y="204"/>
      <point x="292" y="204" type="curve" smooth="yes"/>
      <point x="308.603" y="204"/>
      <point x="324" y="211.683"/>
      <point x="324" y="230" type="curve" smooth="yes"/>
      <point x="324" y="241.607"/>
      <point x="311.044" y="244"/>
      <point x="302" y="244" type="curve" smooth="yes"/>
      <point x="285.708" y="244"/>
      <point x="269.14" y="239"/>
      <point x="253" y="239" type="curve" smooth="yes"/>
      <point x="217.758" y="239"/>
      <point x="195" y="253.07" name=".hr01"/>
      <point x="195" y="291" type="curve" smooth="yes"/>
      <point x="195" y="344.111"/>
      <point x="230.573" y="413"/>
      <point x="291" y="413" type="curve" smooth="yes"/>
      <point x="355.275" y="413"/>
      <point x="323.366" y="333"/>
      <point x="370" y="333" type="curve" smooth="yes"/>
      <point x="393.901" y="333"/>
      <point x="413" y="355.939"/>
      <point x="413" y="379" type="curve" smooth="yes"/>
      <point x="413" y="426.884"/>
      <point x="338.898" y="442"/>
      <point x="303" y="442" type="curve" smooth="yes"/>
      <point x="221.833" y="442"/>
      <point x="130" y="382.871"/>
      <point x="130" y="294" type="curve" smooth="yes"/>
      <point x="130" y="260.139"/>
      <point x="151.07" y="240.514"/>
      <point x="180" y="227" type="curve"/>
      <point x="113.107" y="204.467"/>
      <point x="64" y="156.659" name=".hr02"/>
      <point x="64" y="83" type="curve" smooth="yes"/>
      <point x="64" y="0.750954"/>
      <point x="137.287" y="-12"/>
      <point x="203" y="-12" type="curve" smooth="yes"/>
      <point x="248.727" y="-12"/>
      <point x="309.944" y="19.7605"/>
      <point x="345" y="48" type="curve"/>
      <point x="345" y="54.9542"/>
      <point x="340.561" y="63.3257"/>
      <point x="335" y="67" type="curve"/>
      <point x="297.268" y="42.8825"/>
      <point x="254.68" y="22"/>
      <point x="209" y="22" type="curve" smooth="yes"/>
      <point x="165.647" y="22"/>
      <point x="138" y="49.7246"/>
    </contour>
  </outline>
</glyph>
<glyph name="phi" format="2">
  <advance width="546"/>
  <unicode hex="03C6"/>
  <outline>
    <contour>
      <point x="195" y="-233" type="line"/>
      <point x="256" y="-217" type="line"/>
      <point x="261" y="-203"/>
      <point x="264" y="-187"/>
      <point x="267" y="-166" type="curve" smooth="yes"/>
      <point x="292" y="-10" type="line"/>
      <point x="452" y="5"/>
      <point x="569" y="149"/>
      <point x="569" y="306" type="curve" smooth="yes"/>
      <point x="569" y="381"/>
      <point x="536" y="442"/>
      <point x="455" y="442" type="curve" smooth="yes"/>
      <point x="351" y="442"/>
      <point x="318" y="342"/>
      <point x="299" y="260" type="curve" smooth="yes"/>
      <point x="244" y="19" type="line"/>
      <point x="172" y="26"/>
      <point x="149" y="69"/>
      <point x="149" y="129" type="curve" smooth="yes"/>
      <point x="149" y="233"/>
      <point x="196" y="353"/>
      <point x="281" y="414" type="curve"/>
      <point x="269" y="435" type="line"/>
      <point x="159" y="385"/>
      <point x="79" y="268"/>
      <point x="79" y="147" type="curve" smooth="yes"/>
      <point x="79" y="55"/>
      <point x="128" y="-3"/>
      <point x="237" y="-10" type="curve"/>
      <point x="218" y="-103"/>
      <point x="200" y="-182"/>
      <point x="187" y="-215" type="curve"/>
    </contour>
    <contour>
      <point x="297" y="20" type="curve"/>
      <point x="349" y="248" type="line" smooth="yes"/>
      <point x="361" y="299"/>
      <point x="376" y="403"/>
      <point x="445" y="403" type="curve" smooth="yes"/>
      <point x="481" y="403"/>
      <point x="496" y="370"/>
      <point x="496" y="319" type="curve" smooth="yes"/>
      <point x="496" y="223"/>
      <point x="451" y="41"/>
    </contour>
  </outline>
</glyph>
<glyph name="omega" format="2">
  <advance width="630"/>
  <unicode hex="03C9"/>
  <anchor x="436" y="500" name="t.uni0302"/>
  <anchor x="301" y="-60" name="b.minus-60"/>
  <outline>
    <contour>
      <point x="652" y="256" type="curve" smooth="yes"/>
      <point x="652" y="338.562"/>
      <point x="598.944" y="404.353"/>
      <point x="528.233" y="442" type="curve"/>
      <point x="520.114" y="439.043"/>
      <point x="512.648" y="432.062"/>
      <point x="510.314" y="423" type="curve"/>
      <point x="550.534" y="378.278"/>
      <point x="580" y="323.458"/>
      <point x="580" y="262" type="curve" smooth="yes"/>
      <point x="580" y="180.241"/>
      <point x="533.938" y="22"/>
      <point x="432.664" y="22" type="curve" smooth="yes"/>
      <point x="370.448" y="22"/>
      <point x="360.925" y="81"/>
      <point x="356.009" y="131" type="curve"/>
      <point x="372.492" y="158.687"/>
      <point x="407.776" y="234.939"/>
      <point x="407.776" y="266" type="curve" smooth="yes"/>
      <point x="407.776" y="280.917"/>
      <point x="398.144" y="284"/>
      <point x="384.879" y="284" type="curve" smooth="yes"/>
      <point x="336.047" y="284"/>
      <point x="325.03" y="162.651"/>
      <point x="329.13" y="128" type="curve"/>
      <point x="304.742" y="88.387"/>
      <point x="262.495" y="22"/>
      <point x="209.668" y="22" type="curve" smooth="yes"/>
      <point x="155.362" y="22"/>
      <point x="136" y="53.68"/>
      <point x="136" y="105" type="curve" smooth="yes"/>
      <point x="136" y="217.381"/>
      <point x="213.056" y="368.835"/>
      <point x="315.193" y="422" type="curve"/>
      <point x="315.193" y="429"/>
      <point x="311.663" y="437.554"/>
      <point x="308.224" y="442" type="curve"/>
      <point x="184.76" y="375.776"/>
      <point x="64" y="256.864"/>
      <point x="64" y="107" type="curve" smooth="yes"/>
      <point x="64" y="26.812"/>
      <point x="110.386" y="-12"/>
      <point x="187.767" y="-12" type="curve" smooth="yes"/>
      <point x="255.501" y="-12"/>
      <point x="299.329" y="40.08"/>
      <point x="333.112" y="93" type="curve"/>
      <point x="339.996" y="32.113"/>
      <point x="372.364" y="-12"/>
      <point x="436.646" y="-12" type="curve" smooth="yes"/>
      <point x="565.591" y="-12"/>
      <point x="652" y="139.542"/>
    </contour>
  </outline>
</glyph>
<glyph name="uni042C" format="2">
  <advance width="558"/>
  <unicode hex="042C"/>
  <outline>
    <contour>
      <point x="206" y="520" type="curve"/>
      <point x="288" y="520" type="line"/>
      <point x="301" y="589"/>
      <point x="328" y="614"/>
      <point x="393" y="618" type="curve"/>
      <point x="398" y="627"/>
      <point x="401" y="640"/>
      <point x="399" y="646" type="curve"/>
      <point x="354" y="646"/>
      <point x="310" y="643"/>
      <point x="265" y="643" type="curve" smooth="yes"/>
      <point x="225" y="643"/>
      <point x="185" y="646"/>
      <point x="145" y="646" type="curve"/>
      <point x="142" y="644"/>
      <point x="137" y="629"/>
      <point x="140" y="618" type="curve"/>
      <point x="195" y="612"/>
      <point x="210" y="592"/>
      <point x="210" y="556" type="curve" smooth="yes"/>
      <point x="210" y="543"/>
      <point x="209" y="537"/>
    </contour>
    <contour>
      <point x="24" y="-1" type="curve"/>
      <point x="65" y="-1"/>
      <point x="107" y="2"/>
      <point x="148" y="2" type="curve" smooth="yes"/>
      <point x="180" y="2"/>
      <point x="212" y="-1"/>
      <point x="244" y="-1" type="curve" smooth="yes"/>
      <point x="401" y="-1"/>
      <point x="563" y="40"/>
      <point x="563" y="234" type="curve" smooth="yes"/>
      <point x="563" y="361"/>
      <point x="416" y="373"/>
      <point x="320" y="373" type="curve" smooth="yes"/>
      <point x="244" y="373" type="line"/>
      <point x="236" y="334" type="line"/>
      <point x="339" y="334" type="line" smooth="yes"/>
      <point x="417" y="334"/>
      <point x="472" y="299"/>
      <point x="472" y="218" type="curve" smooth="yes"/>
      <point x="472" y="92"/>
      <point x="365" y="30"/>
      <point x="251" y="30" type="curve" smooth="yes"/>
      <point x="210" y="30"/>
      <point x="199" y="39"/>
      <point x="199" y="58" type="curve" smooth="yes"/>
      <point x="199" y="64"/>
      <point x="200" y="71"/>
      <point x="202" y="79" type="curve"/>
      <point x="288" y="520" type="line"/>
      <point x="206" y="520" type="line"/>
      <point x="120" y="72" type="line" smooth="yes"/>
      <point x="112" y="31"/>
      <point x="69" y="30"/>
      <point x="30" y="30" type="curve"/>
      <point x="24" y="26"/>
      <point x="21" y="12"/>
    </contour>
  </outline>
  <guideline angle="259.066" x="205" y="512"/>
  <guideline angle="78.9591" x="202" y="79"/>
  <guideline angle="0" x="0" y="520"/>
</glyph>
<glyph name="uni0447" format="2">
  <advance width="523"/>
  <unicode hex="0447"/>
  <anchor x="345" y="500" name="t.uni0302"/>
  <outline>
    <contour>
      <point x="380" y="115" type="line" smooth="yes"/>
      <point x="374" y="88"/>
      <point x="363" y="34"/>
      <point x="363" y="17" type="curve" smooth="yes"/>
      <point x="363" y="4"/>
      <point x="370" y="-10"/>
      <point x="400" y="-10" type="curve" smooth="yes"/>
      <point x="458" y="-10"/>
      <point x="506" y="40"/>
      <point x="539" y="83" type="curve"/>
      <point x="536" y="92"/>
      <point x="530" y="100"/>
      <point x="516" y="100" type="curve"/>
      <point x="490" y="70"/>
      <point x="461" y="55"/>
      <point x="451" y="55" type="curve" smooth="yes"/>
      <point x="444" y="55"/>
      <point x="441" y="60"/>
      <point x="441" y="68" type="curve" smooth="yes"/>
      <point x="441" y="74"/>
      <point x="443" y="86"/>
      <point x="452" y="124" type="curve" smooth="yes"/>
      <point x="508" y="352" type="line" smooth="yes"/>
      <point x="520" y="399"/>
      <point x="521" y="408"/>
      <point x="521" y="414" type="curve" smooth="yes"/>
      <point x="521" y="429"/>
      <point x="514" y="439"/>
      <point x="491" y="439" type="curve" smooth="yes"/>
      <point x="459" y="439"/>
      <point x="447" y="421"/>
      <point x="433" y="357" type="curve" smooth="yes"/>
      <point x="410" y="251" type="line"/>
      <point x="381" y="229"/>
      <point x="310" y="181"/>
      <point x="266" y="181" type="curve" smooth="yes"/>
      <point x="239" y="181"/>
      <point x="234" y="200"/>
      <point x="234" y="225" type="curve" smooth="yes"/>
      <point x="234" y="249"/>
      <point x="239" y="271"/>
      <point x="244" y="293" type="curve"/>
      <point x="249" y="311" type="line" smooth="yes"/>
      <point x="265" y="368"/>
      <point x="269" y="385"/>
      <point x="269" y="398" type="curve" smooth="yes"/>
      <point x="269" y="421"/>
      <point x="256" y="436"/>
      <point x="234" y="436" type="curve" smooth="yes"/>
      <point x="176" y="436"/>
      <point x="129" y="415"/>
      <point x="92" y="380" type="curve"/>
      <point x="92" y="371"/>
      <point x="96" y="359"/>
      <point x="104" y="354" type="curve"/>
      <point x="117" y="369"/>
      <point x="155" y="392"/>
      <point x="169" y="392" type="curve" smooth="yes"/>
      <point x="179" y="392"/>
      <point x="186" y="382"/>
      <point x="186" y="371" type="curve" smooth="yes"/>
      <point x="186" y="363"/>
      <point x="183" y="349"/>
      <point x="177" y="321" type="curve" smooth="yes"/>
      <point x="164" y="264" type="line" smooth="yes"/>
      <point x="159" y="242"/>
      <point x="155" y="218"/>
      <point x="155" y="197" type="curve" smooth="yes"/>
      <point x="155" y="151"/>
      <point x="173" y="131"/>
      <point x="216" y="131" type="curve" smooth="yes"/>
      <point x="281" y="131"/>
      <point x="354" y="176"/>
      <point x="400" y="211" type="curve"/>
      <point x="401" y="211" type="line"/>
    </contour>
  </outline>
</glyph>
<glyph name="uni0454" format="2">
  <advance width="408"/>
  <unicode hex="0454"/>
  <outline>
    <contour>
      <point x="238" y="23" type="curve" smooth="yes"/>
      <point x="176" y="23"/>
      <point x="154" y="82"/>
      <point x="154" y="148" type="curve" smooth="yes"/>
      <point x="154" y="162"/>
      <point x="155" y="178"/>
      <point x="157" y="193" type="curve"/>
      <point x="169" y="197"/>
      <point x="181" y="199"/>
      <point x="193" y="199" type="curve" smooth="yes"/>
      <point x="230" y="199"/>
      <point x="242" y="180" name=".hr01"/>
      <point x="282" y="180" type="curve" smooth="yes"/>
      <point x="324" y="180"/>
      <point x="374" y="201"/>
      <point x="374" y="219" type="curve" smooth="yes"/>
      <point x="374" y="223"/>
      <point x="372" y="226"/>
      <point x="368" y="226" type="curve" smooth="yes"/>
      <point x="362" y="226"/>
      <point x="352" y="221"/>
      <point x="339" y="221" type="curve" smooth="yes"/>
      <point x="308" y="221"/>
      <point x="287" y="248" name=".hr02"/>
      <point x="248" y="248" type="curve" smooth="yes"/>
      <point x="219" y="248"/>
      <point x="187" y="233"/>
      <point x="166" y="222" type="curve"/>
      <point x="165.518" y="222.643"/>
      <point x="163.482" y="225.357"/>
      <point x="163" y="226" type="curve"/>
      <point x="180" y="294"/>
      <point x="209" y="406"/>
      <point x="310" y="406" type="curve" smooth="yes"/>
      <point x="377" y="406"/>
      <point x="395" y="357"/>
      <point x="395" y="293" type="curve"/>
      <point x="404" y="292"/>
      <point x="412" y="294"/>
      <point x="421" y="297" type="curve"/>
      <point x="430" y="340"/>
      <point x="435" y="371"/>
      <point x="441" y="427" type="curve"/>
      <point x="378" y="427"/>
      <point x="388" y="439"/>
      <point x="325" y="439" type="curve" smooth="yes"/>
      <point x="173" y="439"/>
      <point x="79" y="270"/>
      <point x="79" y="140" type="curve" smooth="yes"/>
      <point x="79" y="28"/>
      <point x="149" y="-10"/>
      <point x="216" y="-10" type="curve" smooth="yes"/>
      <point x="280" y="-10"/>
      <point x="386" y="25"/>
      <point x="386" y="90" type="curve" smooth="yes"/>
      <point x="386" y="106"/>
      <point x="380" y="116"/>
      <point x="366" y="116" type="curve" smooth="yes"/>
      <point x="356" y="116"/>
      <point x="334" y="112"/>
      <point x="323" y="80" type="curve"/>
      <point x="310" y="46"/>
      <point x="277" y="23"/>
    </contour>
  </outline>
</glyph>
<glyph name="uni1E79" format="2">
  <advance width="521"/>
  <unicode hex="1E79"/>
  <outline>
    <component base="u"/>
    <component base="tildecomb" xOffset="378" yOffset="-88"/>
    <contour>
      <point x="453" y="720" type="curve"/>
      <point x="376" y="615" type="line" smooth="yes"/>
      <point x="370" y="607"/>
      <point x="363" y="599"/>
      <point x="363" y="589" type="curve" smooth="yes"/>
      <point x="363" y="584"/>
      <point x="367" y="579"/>
      <point x="372" y="579" type="curve" smooth="yes"/>
      <point x="377" y="579"/>
      <point x="384" y="583"/>
      <point x="398" y="596" type="curve" smooth="yes"/>
      <point x="503" y="692" type="line"/>
      <point x="503" y="702" type="line"/>
      <point x="488" y="721"/>
      <point x="469" y="722"/>
      <point x="464" y="722" type="curve" smooth="yes"/>
      <point x="460" y="722"/>
      <point x="455" y="721"/>
    </contour>
  </outline>
</glyph>
<glyph name="uni1E7B" format="2">
  <advance width="521"/>
  <unicode hex="1E7B"/>
  <outline>
    <component base="u"/>
    <contour>
      <point x="468" y="497" type="line" smooth="yes"/>
      <point x="481" y="497"/>
      <point x="495" y="515"/>
      <point x="498" y="527" type="curve"/>
      <point x="499" y="533"/>
      <point x="496" y="541"/>
      <point x="486" y="541" type="curve" smooth="yes"/>
      <point x="241" y="541" type="line" smooth="yes"/>
      <point x="230" y="541"/>
      <point x="216" y="524"/>
      <point x="214" y="512" type="curve"/>
      <point x="212" y="505"/>
      <point x="215" y="497"/>
      <point x="224" y="497" type="curve" smooth="yes"/>
    </contour>
    <contour>
      <point x="259" y="601" type="curve" smooth="yes"/>
      <point x="259" y="579"/>
      <point x="275" y="563"/>
      <point x="297" y="563" type="curve" smooth="yes"/>
      <point x="321" y="563"/>
      <point x="351" y="585"/>
      <point x="351" y="617" type="curve" smooth="yes"/>
      <point x="351" y="638"/>
      <point x="335" y="654"/>
      <point x="313" y="654" type="curve" smooth="yes"/>
      <point x="288" y="654"/>
      <point x="259" y="632"/>
    </contour>
    <contour>
      <point x="420" y="601" type="curve" smooth="yes"/>
      <point x="420" y="580"/>
      <point x="436" y="564"/>
      <point x="458" y="564" type="curve" smooth="yes"/>
      <point x="483" y="564"/>
      <point x="512" y="586"/>
      <point x="512" y="617" type="curve" smooth="yes"/>
      <point x="512" y="638"/>
      <point x="496" y="655"/>
      <point x="474" y="655" type="curve" smooth="yes"/>
      <point x="449" y="655"/>
      <point x="420" y="633"/>
    </contour>
  </outline>
</glyph>
<glyph name="Wgrave" format="2">
  <advance width="909"/>
  <unicode hex="1E80"/>
  <outline>
    <component base="W"/>
    <contour>
      <point x="526" y="818" type="curve"/>
      <point x="497" y="803"/>
      <point x="468" y="788"/>
      <point x="439" y="773" type="curve"/>
      <point x="447" y="769" type="line"/>
      <point x="580" y="710" type="line" smooth="yes"/>
      <point x="593" y="704"/>
      <point x="604" y="700"/>
      <point x="614" y="699" type="curve"/>
      <point x="616" y="698"/>
      <point x="618" y="698"/>
      <point x="620" y="698" type="curve" smooth="yes"/>
      <point x="635" y="698"/>
      <point x="639" y="711"/>
      <point x="639" y="717" type="curve" smooth="yes"/>
      <point x="639" y="720"/>
      <point x="637" y="724"/>
      <point x="634" y="728" type="curve"/>
      <point x="632" y="730"/>
      <point x="630" y="732"/>
      <point x="628" y="734" type="curve"/>
      <point x="594" y="762"/>
      <point x="560" y="790"/>
    </contour>
  </outline>
</glyph>
<glyph name="wgrave" format="2">
  <advance width="688"/>
  <unicode hex="1E81"/>
  <outline>
    <component base="w"/>
    <contour>
      <point x="464" y="671" type="line"/>
      <point x="460" y="672"/>
      <point x="455" y="673"/>
      <point x="450" y="673" type="curve"/>
      <point x="450" y="673"/>
      <point x="450" y="673"/>
      <point x="450" y="673" type="curve"/>
      <point x="416" y="673"/>
      <point x="389" y="656"/>
      <point x="380" y="650" type="curve"/>
      <point x="376" y="639" type="line"/>
      <point x="467" y="530" type="line" smooth="yes"/>
      <point x="480" y="515"/>
      <point x="486" y="510"/>
      <point x="492" y="510" type="curve" smooth="yes"/>
      <point x="500" y="510"/>
      <point x="509" y="516"/>
      <point x="510" y="521" type="curve"/>
      <point x="510" y="523"/>
      <point x="510" y="525"/>
      <point x="511" y="526" type="curve"/>
      <point x="511" y="532"/>
      <point x="510" y="538"/>
      <point x="508" y="545" type="curve"/>
      <point x="507" y="547"/>
      <point x="506" y="550"/>
      <point x="505" y="552" type="curve"/>
    </contour>
  </outline>
</glyph>
<glyph name="Wacute" format="2">
  <advance width="909"/>
  <unicode hex="1E82"/>
  <outline>
    <component base="W"/>
    <contour>
      <point x="667" y="817" type="curve"/>
      <point x="620" y="789"/>
      <point x="573" y="761"/>
      <point x="526" y="733" type="curve"/>
      <point x="523" y="731"/>
      <point x="519" y="729"/>
      <point x="517" y="727" type="curve"/>
      <point x="509" y="720"/>
      <point x="505" y="715"/>
      <point x="505" y="708" type="curve" smooth="yes"/>
      <point x="505" y="700"/>
      <point x="509" y="697"/>
      <point x="517" y="697" type="curve" smooth="yes"/>
      <point x="519" y="697"/>
      <point x="521" y="697"/>
      <point x="523" y="698" type="curve"/>
      <point x="533" y="699"/>
      <point x="546" y="703"/>
      <point x="563" y="709" type="curve" smooth="yes"/>
      <point x="714" y="765" type="line"/>
      <point x="732" y="772" type="line"/>
      <point x="710" y="787"/>
      <point x="689" y="802"/>
    </contour>
  </outline>
</glyph>
<glyph name="wacute" format="2">
  <advance width="688"/>
  <unicode hex="1E83"/>
  <outline>
    <component base="w"/>
    <contour>
      <point x="556" y="671" type="curve"/>
      <point x="456" y="552" type="line"/>
      <point x="454" y="549"/>
      <point x="451" y="546"/>
      <point x="449" y="544" type="curve"/>
      <point x="444" y="537"/>
      <point x="441" y="532"/>
      <point x="439" y="524" type="curve"/>
      <point x="438" y="517"/>
      <point x="444" y="511"/>
      <point x="451" y="511" type="curve" smooth="yes"/>
      <point x="458" y="511"/>
      <point x="466" y="515"/>
      <point x="484" y="530" type="curve"/>
      <point x="622" y="639" type="line"/>
      <point x="621" y="650" type="line"/>
      <point x="602" y="672"/>
      <point x="577" y="673"/>
      <point x="571" y="673" type="curve" smooth="yes"/>
      <point x="566" y="673"/>
      <point x="559" y="672"/>
    </contour>
  </outline>
</glyph>
<glyph name="Wdieresis" format="2">
  <advance width="909"/>
  <unicode hex="1E84"/>
  <outline>
    <component base="W"/>
    <contour>
      <point x="478" y="748" type="curve" smooth="yes"/>
      <point x="478" y="726"/>
      <point x="494" y="710"/>
      <point x="516" y="710" type="curve" smooth="yes"/>
      <point x="518" y="710"/>
      <point x="520" y="710"/>
      <point x="523" y="711" type="curve"/>
      <point x="543" y="714"/>
      <point x="565" y="731"/>
      <point x="569" y="756" type="curve"/>
      <point x="570" y="758"/>
      <point x="570" y="761"/>
      <point x="570" y="764" type="curve" smooth="yes"/>
      <point x="570" y="785"/>
      <point x="554" y="801"/>
      <point x="532" y="801" type="curve" smooth="yes"/>
      <point x="530" y="801"/>
      <point x="527" y="801"/>
      <point x="525" y="800" type="curve"/>
      <point x="502" y="797"/>
      <point x="478" y="776"/>
    </contour>
    <contour>
      <point x="639" y="748" type="curve" smooth="yes"/>
      <point x="639" y="727"/>
      <point x="655" y="711"/>
      <point x="677" y="711" type="curve" smooth="yes"/>
      <point x="679" y="711"/>
      <point x="682" y="711"/>
      <point x="684" y="712" type="curve"/>
      <point x="705" y="715"/>
      <point x="726" y="732"/>
      <point x="730" y="756" type="curve"/>
      <point x="731" y="758"/>
      <point x="731" y="761"/>
      <point x="731" y="764" type="curve" smooth="yes"/>
      <point x="731" y="785"/>
      <point x="715" y="802"/>
      <point x="693" y="802" type="curve" smooth="yes"/>
      <point x="691" y="802"/>
      <point x="688" y="802"/>
      <point x="686" y="801" type="curve"/>
      <point x="663" y="798"/>
      <point x="639" y="777"/>
    </contour>
  </outline>
</glyph>
<glyph name="wdieresis" format="2">
  <advance width="688"/>
  <unicode hex="1E85"/>
  <outline>
    <component base="w"/>
    <contour>
      <point x="343" y="563" type="curve" smooth="yes"/>
      <point x="343" y="541"/>
      <point x="359" y="525"/>
      <point x="381" y="525" type="curve" smooth="yes"/>
      <point x="383" y="525"/>
      <point x="385" y="525"/>
      <point x="388" y="526" type="curve"/>
      <point x="408" y="529"/>
      <point x="430" y="546"/>
      <point x="434" y="571" type="curve"/>
      <point x="435" y="573"/>
      <point x="435" y="576"/>
      <point x="435" y="579" type="curve" smooth="yes"/>
      <point x="435" y="600"/>
      <point x="419" y="616"/>
      <point x="397" y="616" type="curve" smooth="yes"/>
      <point x="395" y="616"/>
      <point x="392" y="616"/>
      <point x="390" y="615" type="curve"/>
      <point x="367" y="612"/>
      <point x="343" y="591"/>
    </contour>
    <contour>
      <point x="504" y="563" type="curve" smooth="yes"/>
      <point x="504" y="542"/>
      <point x="520" y="526"/>
      <point x="542" y="526" type="curve" smooth="yes"/>
      <point x="544" y="526"/>
      <point x="547" y="526"/>
      <point x="549" y="527" type="curve"/>
      <point x="570" y="530"/>
      <point x="591" y="547"/>
      <point x="595" y="571" type="curve"/>
      <point x="596" y="573"/>
      <point x="596" y="576"/>
      <point x="596" y="579" type="curve" smooth="yes"/>
      <point x="596" y="600"/>
      <point x="580" y="617"/>
      <point x="558" y="617" type="curve" smooth="yes"/>
      <point x="556" y="617"/>
      <point x="553" y="617"/>
      <point x="551" y="616" type="curve"/>
      <point x="528" y="613"/>
      <point x="504" y="592"/>
    </contour>
  </outline>
</glyph>
<glyph name="uni1E9E" format="2">
  <advance width="714"/>
  <unicode hex="1E9E"/>
  <outline>
    <contour>
      <point x="34" y="-1" type="curve"/>
      <point x="42" y="-1"/>
      <point x="113" y="1"/>
      <point x="148" y="1" type="curve" smooth="yes"/>
      <point x="170" y="1" type="line" smooth="yes"/>
      <point x="210" y="1"/>
      <point x="256" y="-1"/>
      <point x="261" y="-1" type="curve"/>
      <point x="262" y="0"/>
      <point x="269" y="16"/>
      <point x="263" y="29" type="curve"/>
      <point x="210" y="40"/>
      <point x="202" y="47"/>
      <point x="202" y="64" type="curve" smooth="yes"/>
      <point x="202" y="77"/>
      <point x="205" y="97"/>
      <point x="207" y="109" type="curve" smooth="yes"/>
      <point x="244" y="320" type="line" smooth="yes"/>
      <point x="269" y="465"/>
      <point x="352" y="621"/>
      <point x="512" y="621" type="curve" smooth="yes"/>
      <point x="552" y="621"/>
      <point x="602" y="606"/>
      <point x="602" y="594" type="curve"/>
      <point x="602" y="593" type="line"/>
      <point x="598" y="570"/>
      <point x="479" y="416"/>
      <point x="418" y="348" type="curve"/>
      <point x="420" y="324" type="line"/>
      <point x="427" y="325"/>
      <point x="432" y="325"/>
      <point x="438" y="325" type="curve" smooth="yes"/>
      <point x="575" y="325"/>
      <point x="597" y="242"/>
      <point x="597" y="196" type="curve" smooth="yes"/>
      <point x="597" y="119"/>
      <point x="544" y="28"/>
      <point x="459" y="28" type="curve" smooth="yes"/>
      <point x="392" y="28"/>
      <point x="363" y="74"/>
      <point x="358" y="154" type="curve"/>
      <point x="348" y="153"/>
      <point x="338" y="152"/>
      <point x="328" y="151" type="curve"/>
      <point x="326" y="72"/>
      <point x="322" y="21"/>
      <point x="317" y="-2" type="curve"/>
      <point x="328" y="3"/>
      <point x="337" y="5"/>
      <point x="345" y="5" type="curve" smooth="yes"/>
      <point x="381" y="5"/>
      <point x="412" y="-12"/>
      <point x="450" y="-12" type="curve" smooth="yes"/>
      <point x="566" y="-12"/>
      <point x="688" y="87"/>
      <point x="688" y="208" type="curve" smooth="yes"/>
      <point x="688" y="290"/>
      <point x="618" y="351"/>
      <point x="528" y="356" type="curve"/>
      <point x="522" y="356"/>
      <point x="520" y="361"/>
      <point x="526" y="369" type="curve"/>
      <point x="715" y="605" type="line"/>
      <point x="719" y="629" type="line"/>
      <point x="665" y="648"/>
      <point x="602" y="658"/>
      <point x="541" y="658" type="curve" smooth="yes"/>
      <point x="278" y="658"/>
      <point x="194" y="496"/>
      <point x="159" y="295" type="curve" smooth="yes"/>
      <point x="119" y="71" type="line" smooth="yes"/>
      <point x="115" y="47"/>
      <point x="79" y="29"/>
      <point x="40" y="29" type="curve"/>
      <point x="35" y="20"/>
      <point x="32" y="8"/>
    </contour>
  </outline>
</glyph>
<glyph name="uni1FCF" format="2">
  <advance width="320"/>
  <unicode hex="1FCF"/>
  <outline>
    <contour>
      <point x="379.956" y="758" type="curve" smooth="yes"/>
      <point x="339.956" y="758"/>
      <point x="328.956" y="803"/>
      <point x="273.956" y="803" type="curve" smooth="yes"/>
      <point x="232.956" y="803"/>
      <point x="205.956" y="775"/>
      <point x="180.956" y="720" type="curve"/>
      <point x="201.956" y="715" type="line"/>
      <point x="218.956" y="745"/>
      <point x="236.956" y="758"/>
      <point x="257.956" y="758" type="curve" smooth="yes"/>
      <point x="295.956" y="758"/>
      <point x="316.956" y="715"/>
      <point x="358.956" y="715" type="curve" smooth="yes"/>
      <point x="401.956" y="715"/>
      <point x="433.956" y="741"/>
      <point x="457.956" y="797" type="curve"/>
      <point x="436.956" y="803" type="line"/>
      <point x="415.956" y="769"/>
      <point x="400.956" y="758"/>
    </contour>
    <contour>
      <point x="299.956" y="689" type="curve" smooth="yes"/>
      <point x="269.195" y="689"/>
      <point x="244.279" y="674.75"/>
      <point x="244.279" y="642.505" type="curve" smooth="yes"/>
      <point x="244.279" y="628.516"/>
      <point x="251.714" y="614"/>
      <point x="282.956" y="614" type="curve" smooth="yes"/>
      <point x="289.956" y="614"/>
      <point x="292.072" y="605.976"/>
      <point x="289.956" y="596" type="curve" smooth="yes"/>
      <point x="285.072" y="572.975"/>
      <point x="258.956" y="536"/>
      <point x="215.956" y="527" type="curve"/>
      <point x="215.956" y="510" type="line"/>
      <point x="281.606" y="513.568"/>
      <point x="346.126" y="566.891"/>
      <point x="346.126" y="635.351" type="curve" smooth="yes"/>
      <point x="346.126" y="664.142"/>
      <point x="331.103" y="689"/>
    </contour>
  </outline>
</glyph>
<glyph name="quoteleft" format="2">
  <advance width="268"/>
  <unicode hex="2018"/>
  <anchor x="260" y="500" name="_t.uni0302"/>
  <outline>
    <contour>
      <point x="262" y="500" type="curve" smooth="yes"/>
      <point x="291" y="500"/>
      <point x="321" y="518"/>
      <point x="321" y="550" type="curve" smooth="yes"/>
      <point x="321" y="572"/>
      <point x="308" y="584"/>
      <point x="291" y="590" type="curve"/>
      <point x="290" y="590"/>
      <point x="288" y="591"/>
      <point x="287" y="591" type="curve"/>
      <point x="271" y="595"/>
      <point x="256" y="599"/>
      <point x="256" y="617" type="curve" smooth="yes"/>
      <point x="256" y="645"/>
      <point x="308" y="692"/>
      <point x="361" y="704" type="curve"/>
      <point x="363" y="713"/>
      <point x="360" y="721"/>
      <point x="352" y="727" type="curve"/>
      <point x="267" y="712"/>
      <point x="208" y="651"/>
      <point x="208" y="564" type="curve" smooth="yes"/>
      <point x="208" y="524"/>
      <point x="231" y="500"/>
    </contour>
  </outline>
  <guideline angle="0" x="0" y="500"/>
  <guideline angle="0" x="0" y="728"/>
</glyph>
<glyph name="quoteright" format="2">
  <advance width="268"/>
  <unicode hex="2019"/>
  <outline>
    <contour>
      <point x="268.377" y="728" type="curve" smooth="yes"/>
      <point x="233.476" y="728"/>
      <point x="209.377" y="707.278"/>
      <point x="209.377" y="678" type="curve" smooth="yes"/>
      <point x="209.377" y="654"/>
      <point x="220.172" y="647.204"/>
      <point x="237.988" y="638.923" type="curve" smooth="yes"/>
      <point x="245.17" y="635.584" type="line" smooth="yes"/>
      <point x="260.126" y="628.632"/>
      <point x="274.377" y="621.332"/>
      <point x="274.377" y="611" type="curve" smooth="yes"/>
      <point x="274.377" y="583"/>
      <point x="223.377" y="536"/>
      <point x="170.377" y="524" type="curve"/>
      <point x="167.377" y="515"/>
      <point x="170.377" y="507"/>
      <point x="178.377" y="501" type="curve"/>
      <point x="261.423" y="515.906"/>
      <point x="322.377" y="575.873"/>
      <point x="322.377" y="664" type="curve" smooth="yes"/>
      <point x="322.377" y="702.37"/>
      <point x="300.752" y="728"/>
    </contour>
  </outline>
  <guideline angle="0" x="0" y="500"/>
  <guideline angle="0" x="0" y="728"/>
</glyph>
<glyph name="quotereversed" format="2">
  <advance width="268"/>
  <unicode hex="201B"/>
  <outline>
    <contour>
      <point x="198.377" y="606" type="curve" smooth="yes"/>
      <point x="198.377" y="548"/>
      <point x="243.377" y="510"/>
      <point x="294.377" y="500" type="curve"/>
      <point x="302.377" y="506"/>
      <point x="305.377" y="515"/>
      <point x="304.377" y="525" type="curve"/>
      <point x="258.377" y="537"/>
      <point x="234.377" y="577"/>
      <point x="234.377" y="599" type="curve" smooth="yes"/>
      <point x="234.377" y="624.061"/>
      <point x="255.054" y="629.738"/>
      <point x="277.217" y="635.822" type="curve" smooth="yes"/>
      <point x="302.807" y="642.847"/>
      <point x="330.377" y="650.415"/>
      <point x="330.377" y="689" type="curve" smooth="yes"/>
      <point x="330.377" y="712"/>
      <point x="313.377" y="728"/>
      <point x="286.377" y="728" type="curve" smooth="yes"/>
      <point x="231.377" y="728"/>
      <point x="198.377" y="654"/>
    </contour>
  </outline>
</glyph>
<glyph name="quotedblleft" format="2">
  <advance width="375"/>
  <unicode hex="201C"/>
  <outline>
    <contour>
      <point x="395.213" y="500" type="curve" smooth="yes"/>
      <point x="424.322" y="500"/>
      <point x="454.213" y="518.841"/>
      <point x="454.213" y="550" type="curve" smooth="yes"/>
      <point x="454.213" y="574"/>
      <point x="439.241" y="586.107"/>
      <point x="420.213" y="591" type="curve" smooth="yes"/>
      <point x="404.241" y="595.107"/>
      <point x="389.213" y="599"/>
      <point x="389.213" y="617" type="curve" smooth="yes"/>
      <point x="389.213" y="645"/>
      <point x="440.213" y="692"/>
      <point x="493.213" y="704" type="curve"/>
      <point x="495.213" y="713"/>
      <point x="492.213" y="721"/>
      <point x="485.213" y="727" type="curve"/>
      <point x="401.213" y="711.923"/>
      <point x="341.213" y="650.674"/>
      <point x="341.213" y="564" type="curve" smooth="yes"/>
      <point x="341.213" y="524"/>
      <point x="364.213" y="500"/>
    </contour>
    <contour>
      <point x="221.213" y="500" type="curve" smooth="yes"/>
      <point x="250.322" y="500"/>
      <point x="280.213" y="518.841"/>
      <point x="280.213" y="550" type="curve" smooth="yes"/>
      <point x="280.213" y="574"/>
      <point x="265.241" y="586.107"/>
      <point x="246.213" y="591" type="curve" smooth="yes"/>
      <point x="230.241" y="595.107"/>
      <point x="215.213" y="599"/>
      <point x="215.213" y="617" type="curve" smooth="yes"/>
      <point x="215.213" y="645"/>
      <point x="266.213" y="692"/>
      <point x="319.213" y="704" type="curve"/>
      <point x="321.213" y="713"/>
      <point x="318.213" y="721"/>
      <point x="311.213" y="727" type="curve"/>
      <point x="227.213" y="711.923"/>
      <point x="167.213" y="650.674"/>
      <point x="167.213" y="564" type="curve" smooth="yes"/>
      <point x="167.213" y="524"/>
      <point x="190.213" y="500"/>
    </contour>
  </outline>
</glyph>
<glyph name="uni201F" format="2">
  <advance width="373"/>
  <unicode hex="201F"/>
  <outline>
    <contour>
      <point x="331.377" y="606" type="curve" smooth="yes"/>
      <point x="331.377" y="548"/>
      <point x="376.377" y="510"/>
      <point x="427.377" y="500" type="curve"/>
      <point x="435.377" y="506"/>
      <point x="438.377" y="515"/>
      <point x="437.377" y="525" type="curve"/>
      <point x="391.377" y="537"/>
      <point x="367.377" y="577"/>
      <point x="367.377" y="599" type="curve" smooth="yes"/>
      <point x="367.377" y="624.061"/>
      <point x="388.054" y="629.738"/>
      <point x="410.216" y="635.822" type="curve" smooth="yes"/>
      <point x="435.807" y="642.847"/>
      <point x="463.377" y="650.415"/>
      <point x="463.377" y="689" type="curve" smooth="yes"/>
      <point x="463.377" y="712"/>
      <point x="446.377" y="728"/>
      <point x="419.377" y="728" type="curve" smooth="yes"/>
      <point x="364.377" y="728"/>
      <point x="331.377" y="654"/>
    </contour>
    <contour>
      <point x="175.377" y="606" type="curve" smooth="yes"/>
      <point x="175.377" y="548"/>
      <point x="220.377" y="510"/>
      <point x="271.377" y="500" type="curve"/>
      <point x="279.377" y="506"/>
      <point x="282.377" y="515"/>
      <point x="281.377" y="525" type="curve"/>
      <point x="235.377" y="537"/>
      <point x="211.377" y="577"/>
      <point x="211.377" y="599" type="curve" smooth="yes"/>
      <point x="211.377" y="624.061"/>
      <point x="232.054" y="629.738"/>
      <point x="254.216" y="635.822" type="curve" smooth="yes"/>
      <point x="279.807" y="642.847"/>
      <point x="307.377" y="650.415"/>
      <point x="307.377" y="689" type="curve" smooth="yes"/>
      <point x="307.377" y="712"/>
      <point x="290.377" y="728"/>
      <point x="263.377" y="728" type="curve" smooth="yes"/>
      <point x="208.377" y="728"/>
      <point x="175.377" y="654"/>
    </contour>
  </outline>
  <guideline angle="0" x="0" y="500"/>
  <guideline angle="0" x="0" y="728"/>
</glyph>
<glyph name="uni2070" format="2">
  <advance width="327"/>
  <unicode hex="2070"/>
  <outline>
    <contour>
      <point x="161.468" y="569" type="curve" smooth="yes"/>
      <point x="161.468" y="499.873"/>
      <point x="194.056" y="460"/>
      <point x="251.468" y="460" type="curve" smooth="yes"/>
      <point x="343.395" y="460"/>
      <point x="420.938" y="564.487"/>
      <point x="420.784" y="688.146" type="curve" smooth="yes"/>
      <point x="420.702" y="753.802"/>
      <point x="388.135" y="789"/>
      <point x="327.468" y="789" type="curve" smooth="yes"/>
      <point x="242.622" y="789"/>
      <point x="161.468" y="681.455"/>
    </contour>
    <contour>
      <point x="215.343" y="549.094" type="curve" smooth="yes"/>
      <point x="215.384" y="570.145"/>
      <point x="219.096" y="591.512"/>
      <point x="222.468" y="605" type="curve" smooth="yes"/>
      <point x="228.468" y="629" type="line" smooth="yes"/>
      <point x="251.61" y="721.566"/>
      <point x="281.63" y="765"/>
      <point x="322.468" y="765" type="curve" smooth="yes"/>
      <point x="349.792" y="765"/>
      <point x="365.472" y="740.166"/>
      <point x="365.467" y="696.899" type="curve" smooth="yes"/>
      <point x="365.465" y="682.756"/>
      <point x="363.742" y="667.28"/>
      <point x="360.468" y="652" type="curve" smooth="yes"/>
      <point x="354.468" y="624" type="line" smooth="yes"/>
      <point x="334.404" y="530.369"/>
      <point x="302.278" y="484"/>
      <point x="257.468" y="484" type="curve" smooth="yes"/>
      <point x="224.199" y="484"/>
      <point x="215.278" y="516.16"/>
    </contour>
  </outline>
</glyph>
<glyph name="uni2071" format="2">
  <advance width="194"/>
  <unicode hex="2071"/>
  <outline>
    <contour>
      <point x="221" y="418" type="curve" smooth="yes"/>
      <point x="256" y="576" type="line" smooth="yes"/>
      <point x="262.508" y="605.381"/>
      <point x="268.887" y="620"/>
      <point x="269" y="626" type="curve" smooth="yes"/>
      <point x="269.149" y="633.904"/>
      <point x="265.008" y="637"/>
      <point x="260.419" y="637" type="curve"/>
      <point x="243.419" y="630"/>
      <point x="198" y="622"/>
      <point x="172" y="620" type="curve"/>
      <point x="170.389" y="617.347"/>
      <point x="168.207" y="604.071"/>
      <point x="172" y="599" type="curve"/>
      <point x="201.979" y="598"/>
      <point x="210.911" y="592.036"/>
      <point x="206" y="570.286" type="curve" smooth="yes"/>
      <point x="201.696" y="551.225"/>
      <point x="179.896" y="454.684"/>
      <point x="173.149" y="424.803" type="curve" smooth="yes"/>
      <point x="167.292" y="398.864"/>
      <point x="148.406" y="389.907"/>
      <point x="117" y="387" type="curve"/>
      <point x="113.346" y="382.08"/>
      <point x="111.804" y="370.744"/>
      <point x="112.533" y="365" type="curve"/>
      <point x="117.033" y="365.1"/>
      <point x="156" y="366"/>
      <point x="184" y="366" type="curve" smooth="yes"/>
      <point x="193" y="366" type="line" smooth="yes"/>
      <point x="222" y="366"/>
      <point x="241.245" y="365.465"/>
      <point x="258" y="365" type="curve"/>
      <point x="260.846" y="370.619"/>
      <point x="263.217" y="379.802"/>
      <point x="261" y="387" type="curve"/>
      <point x="232.862" y="389.719"/>
      <point x="215.211" y="391.865"/>
    </contour>
    <contour>
      <point x="229" y="704" type="curve" smooth="yes"/>
      <point x="229" y="691"/>
      <point x="237" y="681"/>
      <point x="252" y="681" type="curve" smooth="yes"/>
      <point x="272.154" y="681"/>
      <point x="288" y="698.576"/>
      <point x="288" y="718" type="curve" smooth="yes"/>
      <point x="288" y="729"/>
      <point x="282" y="739"/>
      <point x="265" y="739" type="curve" smooth="yes"/>
      <point x="236" y="739"/>
      <point x="229" y="713"/>
    </contour>
  </outline>
  <guideline angle="257.276" x="196" y="526"/>
</glyph>
<glyph name="uni2074" format="2">
  <advance width="307"/>
  <unicode hex="2074"/>
  <outline>
    <contour>
      <point x="325.831" y="538" type="curve" smooth="yes"/>
      <point x="330.831" y="562" type="line"/>
      <point x="380.831" y="562" type="line"/>
      <point x="394.831" y="596" type="line"/>
      <point x="338.831" y="596" type="line"/>
      <point x="378.831" y="776" type="line" smooth="yes"/>
      <point x="380.831" y="785"/>
      <point x="367.831" y="786"/>
      <point x="361.831" y="786" type="curve" smooth="yes"/>
      <point x="358.831" y="786"/>
      <point x="348.831" y="785"/>
      <point x="347.831" y="785" type="curve"/>
      <point x="347.831" y="785" type="line"/>
      <point x="323.831" y="779"/>
      <point x="314.84" y="764.992"/>
      <point x="305.831" y="754" type="curve" smooth="yes"/>
      <point x="264.84" y="703.992"/>
      <point x="216.034" y="650.762"/>
      <point x="151.831" y="596" type="curve" smooth="yes"/>
      <point x="148.026" y="592.755"/>
      <point x="142.831" y="585"/>
      <point x="142.831" y="574" type="curve" smooth="yes"/>
      <point x="142.831" y="568"/>
      <point x="146.831" y="562"/>
      <point x="160.831" y="562" type="curve" smooth="yes"/>
      <point x="278.831" y="562" type="line"/>
      <point x="273.831" y="538" type="line" smooth="yes"/>
      <point x="265.269" y="496.906"/>
      <point x="250.831" y="494"/>
      <point x="210.831" y="492" type="curve"/>
      <point x="203.831" y="484"/>
      <point x="200.831" y="469"/>
      <point x="203.831" y="463" type="curve"/>
      <point x="229.831" y="464"/>
      <point x="243.831" y="464"/>
      <point x="268.831" y="464" type="curve" smooth="yes"/>
      <point x="282.831" y="464" type="line" smooth="yes"/>
      <point x="312.831" y="464"/>
      <point x="329.831" y="464"/>
      <point x="359.831" y="463" type="curve"/>
      <point x="365.831" y="470"/>
      <point x="368.831" y="484"/>
      <point x="366.831" y="492" type="curve"/>
      <point x="328.831" y="494"/>
      <point x="317.831" y="503"/>
    </contour>
    <contour>
      <point x="318.831" y="739" type="curve"/>
      <point x="286.831" y="596" type="line"/>
      <point x="181.831" y="596" type="line"/>
      <point x="237.831" y="645"/>
      <point x="280.831" y="692"/>
    </contour>
  </outline>
</glyph>
<glyph name="uni2075" format="2">
  <advance width="273"/>
  <unicode hex="2075"/>
  <outline>
    <contour>
      <point x="190" y="386" type="curve" smooth="yes"/>
      <point x="168" y="386"/>
      <point x="159" y="393"/>
      <point x="152" y="402" type="curve" smooth="yes"/>
      <point x="146" y="410"/>
      <point x="139" y="417"/>
      <point x="126" y="417" type="curve" smooth="yes"/>
      <point x="116" y="417"/>
      <point x="99" y="408"/>
      <point x="99" y="393" type="curve" smooth="yes"/>
      <point x="99" y="371"/>
      <point x="152" y="359"/>
      <point x="185" y="359" type="curve" smooth="yes"/>
      <point x="260.063" y="359"/>
      <point x="331" y="421.637"/>
      <point x="331" y="498" type="curve" smooth="yes"/>
      <point x="331" y="553.378"/>
      <point x="289.217" y="578"/>
      <point x="238" y="578" type="curve" smooth="yes"/>
      <point x="224" y="578"/>
      <point x="197" y="573"/>
      <point x="187" y="567" type="curve"/>
      <point x="217.85" y="652" type="line"/>
      <point x="236.336" y="648.68"/>
      <point x="256.199" y="648"/>
      <point x="275.155" y="648" type="curve" smooth="yes"/>
      <point x="288.606" y="648" type="line" smooth="yes"/>
      <point x="309.848" y="648"/>
      <point x="331.225" y="648.68"/>
      <point x="352.85" y="652" type="curve"/>
      <point x="367.153" y="686.965" type="line"/>
      <point x="365.984" y="688.587" type="line"/>
      <point x="339.141" y="684.637"/>
      <point x="313.607" y="683"/>
      <point x="288.346" y="683" type="curve" smooth="yes"/>
      <point x="277.042" y="683" type="line" smooth="yes"/>
      <point x="252.739" y="683"/>
      <point x="227.346" y="683.656"/>
      <point x="203.503" y="686.965" type="curve"/>
      <point x="148" y="540" type="line"/>
      <point x="154" y="537" type="line"/>
      <point x="170" y="544"/>
      <point x="192" y="551"/>
      <point x="214" y="551" type="curve" smooth="yes"/>
      <point x="263" y="551"/>
      <point x="274" y="524"/>
      <point x="274" y="497" type="curve" smooth="yes"/>
      <point x="274" y="447.299"/>
      <point x="247.743" y="386"/>
    </contour>
  </outline>
  <guideline angle="249.312" x="202" y="683"/>
  <guideline angle="69.6769" x="187" y="567"/>
  <guideline angle="68.7495" x="352" y="648"/>
</glyph>
<glyph name="uni2076" format="2">
  <advance width="290"/>
  <unicode hex="2076"/>
  <outline>
    <contour>
      <point x="376.285" y="584.35" type="curve" smooth="yes"/>
      <point x="376.328" y="635.516"/>
      <point x="334.552" y="657"/>
      <point x="288.468" y="657" type="curve" smooth="yes"/>
      <point x="263.468" y="657"/>
      <point x="232.468" y="640"/>
      <point x="215.468" y="626" type="curve"/>
      <point x="239.468" y="684"/>
      <point x="289.468" y="751"/>
      <point x="402.468" y="770" type="curve"/>
      <point x="406.468" y="789" type="line"/>
      <point x="281.36" y="780.339"/>
      <point x="147.468" y="688.908"/>
      <point x="147.468" y="553" type="curve" smooth="yes"/>
      <point x="147.468" y="493.555"/>
      <point x="183.967" y="460"/>
      <point x="243.468" y="460" type="curve" smooth="yes"/>
      <point x="308.823" y="460"/>
      <point x="376.228" y="516.062"/>
    </contour>
    <contour>
      <point x="248.468" y="484" type="curve" smooth="yes"/>
      <point x="226.468" y="484"/>
      <point x="199.468" y="499"/>
      <point x="199.468" y="548" type="curve" smooth="yes"/>
      <point x="199.468" y="562.807"/>
      <point x="203.583" y="596.267"/>
      <point x="209.468" y="610" type="curve"/>
      <point x="234.468" y="627"/>
      <point x="257.468" y="633"/>
      <point x="271.468" y="633" type="curve" smooth="yes"/>
      <point x="310.468" y="633"/>
      <point x="319.468" y="608"/>
      <point x="319.468" y="584" type="curve" smooth="yes"/>
      <point x="319.468" y="540.433"/>
      <point x="300.114" y="484"/>
    </contour>
  </outline>
</glyph>
<glyph name="uni2077" format="2">
  <advance width="268"/>
  <unicode hex="2077"/>
  <outline>
    <contour>
      <point x="352.681" y="747" type="line"/>
      <point x="316.681" y="702"/>
      <point x="233.043" y="575"/>
      <point x="173.043" y="464" type="curve"/>
      <point x="207.043" y="464" type="line"/>
      <point x="261.043" y="569"/>
      <point x="346.681" y="694"/>
      <point x="419.681" y="785" type="curve"/>
      <point x="405.681" y="785" type="line" smooth="yes"/>
      <point x="385.681" y="785"/>
      <point x="366.681" y="785"/>
      <point x="346.681" y="785" type="curve" smooth="yes"/>
      <point x="260.681" y="785" type="line" smooth="yes"/>
      <point x="255.681" y="785"/>
      <point x="250.681" y="785"/>
      <point x="245.681" y="785" type="curve" smooth="yes"/>
      <point x="229.681" y="785"/>
      <point x="224.681" y="786"/>
      <point x="225.681" y="790" type="curve"/>
      <point x="207.681" y="790" type="line"/>
      <point x="207.681" y="790"/>
      <point x="207.681" y="790"/>
      <point x="207.681" y="790" type="curve"/>
      <point x="200.681" y="764"/>
      <point x="184.681" y="724"/>
      <point x="173.681" y="696" type="curve"/>
      <point x="193.681" y="693" type="line"/>
      <point x="216.681" y="741"/>
      <point x="224.681" y="747"/>
      <point x="252.681" y="747" type="curve" smooth="yes"/>
      <point x="262.681" y="747"/>
      <point x="271.681" y="747"/>
      <point x="281.681" y="747" type="curve" smooth="yes"/>
    </contour>
  </outline>
</glyph>
<glyph name="uni2079" format="2">
  <advance width="312"/>
  <unicode hex="2079"/>
  <outline>
    <contour>
      <point x="148.468" y="460" type="line"/>
      <point x="272.468" y="470"/>
      <point x="410.468" y="559"/>
      <point x="410.468" y="696" type="curve" smooth="yes"/>
      <point x="410.468" y="768"/>
      <point x="353.468" y="789"/>
      <point x="310.468" y="789" type="curve" smooth="yes"/>
      <point x="225.468" y="789"/>
      <point x="179.468" y="719"/>
      <point x="179.468" y="667" type="curve" smooth="yes"/>
      <point x="179.468" y="638"/>
      <point x="191.468" y="592"/>
      <point x="265.468" y="592" type="curve" smooth="yes"/>
      <point x="290.468" y="592"/>
      <point x="321.468" y="609"/>
      <point x="339.468" y="623" type="curve"/>
      <point x="314.468" y="565"/>
      <point x="265.468" y="498"/>
      <point x="152.468" y="479" type="curve"/>
    </contour>
    <contour>
      <point x="282.468" y="617" type="curve" smooth="yes"/>
      <point x="243.468" y="617"/>
      <point x="235.468" y="643"/>
      <point x="235.468" y="666" type="curve" smooth="yes"/>
      <point x="235.468" y="716"/>
      <point x="256.468" y="765"/>
      <point x="305.468" y="765" type="curve" smooth="yes"/>
      <point x="328.468" y="765"/>
      <point x="354.468" y="750"/>
      <point x="354.468" y="701" type="curve" smooth="yes"/>
      <point x="354.468" y="684"/>
      <point x="349.468" y="657"/>
      <point x="345.468" y="639" type="curve"/>
      <point x="319.468" y="622"/>
      <point x="296.468" y="617"/>
    </contour>
  </outline>
</glyph>
<glyph name="uni2082" format="2">
  <advance width="277"/>
  <unicode hex="2082"/>
  <outline>
    <contour>
      <point x="-28.2027" y="-160" type="curve"/>
      <point x="177.797" y="-160" type="line"/>
      <point x="188.326" y="-130.091"/>
      <point x="201.288" y="-100.222"/>
      <point x="217.797" y="-66" type="curve"/>
      <point x="212.797" y="-62"/>
      <point x="205.797" y="-61"/>
      <point x="194.797" y="-61" type="curve"/>
      <point x="180.718" y="-90.641"/>
      <point x="151.694" y="-128"/>
      <point x="123.797" y="-128" type="curve" smooth="yes"/>
      <point x="40.7973" y="-128" type="line"/>
      <point x="61.6173" y="-86.36"/>
      <point x="87.8903" y="-61.344"/>
      <point x="126.797" y="-38" type="curve" smooth="yes"/>
      <point x="136.797" y="-32" type="line" smooth="yes"/>
      <point x="184.219" y="-3.547"/>
      <point x="245.219" y="38.131"/>
      <point x="245.219" y="100.36" type="curve" smooth="yes"/>
      <point x="245.219" y="147.411"/>
      <point x="198.673" y="164"/>
      <point x="152.797" y="164" type="curve" smooth="yes"/>
      <point x="113.312" y="164"/>
      <point x="28.3313" y="133.858"/>
      <point x="28.3313" y="82.96" type="curve" smooth="yes"/>
      <point x="28.3313" y="71.8"/>
      <point x="39.0643" y="63"/>
      <point x="49.7973" y="63" type="curve" smooth="yes"/>
      <point x="70.0203" y="63"/>
      <point x="77.1283" y="73.993"/>
      <point x="82.7973" y="91" type="curve"/>
      <point x="89.4823" y="124.425"/>
      <point x="107.461" y="134"/>
      <point x="141.797" y="134" type="curve" smooth="yes"/>
      <point x="169.018" y="134"/>
      <point x="181.864" y="120.272"/>
      <point x="181.998" y="97.992" type="curve" smooth="yes"/>
      <point x="182.258" y="54.852"/>
      <point x="153.784" y="14.991"/>
      <point x="119.797" y="-9" type="curve" smooth="yes"/>
      <point x="85.7973" y="-33" type="line" smooth="yes"/>
      <point x="42.9003" y="-63.28"/>
      <point x="-15.9357" y="-108.205"/>
    </contour>
  </outline>
</glyph>
<glyph name="uni2083" format="2">
  <advance width="289"/>
  <unicode hex="2083"/>
  <outline>
    <contour>
      <point x="84.7256" y="2" type="curve"/>
      <point x="92.7256" y="3"/>
      <point x="97.7256" y="4"/>
      <point x="104.726" y="4" type="curve" smooth="yes"/>
      <point x="125.726" y="4"/>
      <point x="168.726" y="1"/>
      <point x="168.726" y="-40" type="curve" smooth="yes"/>
      <point x="168.726" y="-93"/>
      <point x="128.726" y="-138"/>
      <point x="75.7256" y="-138" type="curve" smooth="yes"/>
      <point x="52.7256" y="-138"/>
      <point x="40.7256" y="-129"/>
      <point x="35.7256" y="-121" type="curve"/>
      <point x="33.7256" y="-106"/>
      <point x="21.7256" y="-99"/>
      <point x="7.7256" y="-99" type="curve" smooth="yes"/>
      <point x="-9.2744" y="-99"/>
      <point x="-20.2744" y="-109"/>
      <point x="-20.2744" y="-122" type="curve" smooth="yes"/>
      <point x="-20.2744" y="-141"/>
      <point x="3.7256" y="-164"/>
      <point x="65.7256" y="-164" type="curve" smooth="yes"/>
      <point x="142.726" y="-164"/>
      <point x="232.726" y="-123"/>
      <point x="232.726" y="-37" type="curve" smooth="yes"/>
      <point x="232.726" y="-5"/>
      <point x="205.726" y="24"/>
      <point x="158.726" y="29" type="curve"/>
      <point x="223.726" y="61"/>
      <point x="236.726" y="88"/>
      <point x="236.726" y="119" type="curve" smooth="yes"/>
      <point x="236.726" y="149"/>
      <point x="209.726" y="166"/>
      <point x="163.726" y="166" type="curve" smooth="yes"/>
      <point x="87.7256" y="166"/>
      <point x="35.7256" y="119"/>
      <point x="35.7256" y="96" type="curve" smooth="yes"/>
      <point x="35.7256" y="88"/>
      <point x="41.7256" y="83"/>
      <point x="54.7256" y="83" type="curve" smooth="yes"/>
      <point x="75.7256" y="83"/>
      <point x="82.7256" y="98"/>
      <point x="87.7256" y="112" type="curve"/>
      <point x="98.7256" y="128"/>
      <point x="127.726" y="140"/>
      <point x="144.726" y="140" type="curve" smooth="yes"/>
      <point x="158.726" y="140"/>
      <point x="176.726" y="130"/>
      <point x="176.726" y="111" type="curve" smooth="yes"/>
      <point x="176.726" y="66"/>
      <point x="129.726" y="34"/>
      <point x="88.7256" y="29" type="curve"/>
      <point x="83.7256" y="20"/>
      <point x="80.7256" y="8"/>
    </contour>
  </outline>
  <guideline angle="0" x="0" y="-160"/>
  <guideline angle="0" x="0" y="-164"/>
</glyph>
<glyph name="uni2084" format="2">
  <advance width="307"/>
  <unicode hex="2084"/>
  <outline>
    <contour>
      <point x="193.85" y="-86" type="curve" smooth="yes"/>
      <point x="198.85" y="-62" type="line"/>
      <point x="248.85" y="-62" type="line"/>
      <point x="262.85" y="-28" type="line"/>
      <point x="206.85" y="-28" type="line"/>
      <point x="246.85" y="152" type="line" smooth="yes"/>
      <point x="248.85" y="161"/>
      <point x="235.85" y="162"/>
      <point x="229.85" y="162" type="curve" smooth="yes"/>
      <point x="226.85" y="162"/>
      <point x="216.85" y="161"/>
      <point x="215.85" y="161" type="curve"/>
      <point x="215.85" y="161" type="line"/>
      <point x="191.85" y="155"/>
      <point x="182.85" y="141"/>
      <point x="173.85" y="130" type="curve" smooth="yes"/>
      <point x="132.85" y="80"/>
      <point x="83.8502" y="27"/>
      <point x="19.8502" y="-28" type="curve"/>
      <point x="15.8502" y="-31"/>
      <point x="10.8502" y="-39"/>
      <point x="10.8502" y="-50" type="curve" smooth="yes"/>
      <point x="10.8502" y="-56"/>
      <point x="14.8502" y="-62"/>
      <point x="28.8502" y="-62" type="curve" smooth="yes"/>
      <point x="146.85" y="-62" type="line"/>
      <point x="141.85" y="-86" type="line" smooth="yes"/>
      <point x="132.85" y="-127"/>
      <point x="118.85" y="-130"/>
      <point x="78.8502" y="-132" type="curve"/>
      <point x="71.8502" y="-140"/>
      <point x="68.8502" y="-155"/>
      <point x="71.8502" y="-161" type="curve"/>
      <point x="97.8502" y="-160"/>
      <point x="111.85" y="-160"/>
      <point x="136.85" y="-160" type="curve" smooth="yes"/>
      <point x="150.85" y="-160" type="line" smooth="yes"/>
      <point x="180.85" y="-160"/>
      <point x="197.85" y="-160"/>
      <point x="227.85" y="-161" type="curve"/>
      <point x="233.85" y="-154"/>
      <point x="236.85" y="-140"/>
      <point x="234.85" y="-132" type="curve"/>
      <point x="196.85" y="-130"/>
      <point x="185.85" y="-121"/>
    </contour>
    <contour>
      <point x="186.85" y="115" type="curve"/>
      <point x="154.85" y="-28" type="line"/>
      <point x="49.8502" y="-28" type="line"/>
      <point x="105.85" y="21"/>
      <point x="148.85" y="68"/>
    </contour>
  </outline>
</glyph>
<glyph name="uni2085" format="2">
  <advance width="274"/>
  <unicode hex="2085"/>
  <outline>
    <contour>
      <point x="163.773" y="-26" type="curve" smooth="yes"/>
      <point x="163.773" y="-58"/>
      <point x="154.773" y="-85"/>
      <point x="139.773" y="-105" type="curve"/>
      <point x="126.773" y="-124"/>
      <point x="106.773" y="-137"/>
      <point x="79.7732" y="-137" type="curve" smooth="yes"/>
      <point x="57.7732" y="-137"/>
      <point x="48.7732" y="-130"/>
      <point x="41.7732" y="-121" type="curve" smooth="yes"/>
      <point x="35.7732" y="-113"/>
      <point x="28.7732" y="-106"/>
      <point x="15.7732" y="-106" type="curve" smooth="yes"/>
      <point x="5.7732" y="-106"/>
      <point x="-11.2268" y="-115"/>
      <point x="-11.2268" y="-130" type="curve" smooth="yes"/>
      <point x="-11.2268" y="-152"/>
      <point x="41.7732" y="-164"/>
      <point x="74.7732" y="-164" type="curve" smooth="yes"/>
      <point x="107.773" y="-164"/>
      <point x="138.773" y="-152"/>
      <point x="163.773" y="-133" type="curve" smooth="yes"/>
      <point x="189.773" y="-113"/>
      <point x="210.773" y="-87"/>
      <point x="217.773" y="-52" type="curve"/>
      <point x="219.773" y="-44"/>
      <point x="220.773" y="-35"/>
      <point x="220.773" y="-25" type="curve" smooth="yes"/>
      <point x="220.773" y="-3"/>
      <point x="213.773" y="17"/>
      <point x="198.773" y="31" type="curve"/>
      <point x="183.773" y="46"/>
      <point x="160.773" y="55"/>
      <point x="127.773" y="55" type="curve" smooth="yes"/>
      <point x="113.773" y="55"/>
      <point x="86.7732" y="50"/>
      <point x="76.7732" y="44" type="curve"/>
      <point x="106.773" y="125" type="line"/>
      <point x="241.773" y="125" type="line"/>
      <point x="241.773" y="126" type="line"/>
      <point x="254.773" y="160" type="line"/>
      <point x="91.7732" y="160" type="line"/>
      <point x="37.7732" y="17" type="line"/>
      <point x="43.7732" y="14" type="line"/>
      <point x="59.7732" y="21"/>
      <point x="81.7732" y="28"/>
      <point x="103.773" y="28" type="curve" smooth="yes"/>
      <point x="152.773" y="28"/>
      <point x="163.773" y="1"/>
    </contour>
  </outline>
  <guideline angle="0" x="0" y="-160"/>
  <guideline angle="0" x="0" y="-164"/>
</glyph>
<glyph name="uni2086" format="2">
  <advance width="290"/>
  <unicode hex="2086"/>
  <outline>
    <contour>
      <point x="15.127" y="-71.2469" type="curve" smooth="yes"/>
      <point x="15.127" y="-130.197"/>
      <point x="52.134" y="-164.247"/>
      <point x="111.127" y="-164.247" type="curve" smooth="yes"/>
      <point x="175.895" y="-164.247"/>
      <point x="243.127" y="-111.091"/>
      <point x="243.127" y="-43.2469" type="curve" smooth="yes"/>
      <point x="243.127" y="10.4841"/>
      <point x="206.092" y="32.7531"/>
      <point x="156.127" y="32.7531" type="curve" smooth="yes"/>
      <point x="131.127" y="32.7531"/>
      <point x="100.127" y="15.7531"/>
      <point x="83.127" y="1.75312" type="curve"/>
      <point x="107.127" y="59.7531"/>
      <point x="157.127" y="126.753"/>
      <point x="270.127" y="145.753" type="curve"/>
      <point x="274.127" y="164.753" type="line"/>
      <point x="149.508" y="156.126"/>
      <point x="15.127" y="64.4141"/>
    </contour>
    <contour>
      <point x="67.127" y="-76.2469" type="curve" smooth="yes"/>
      <point x="67.127" y="-61.4399"/>
      <point x="71.241" y="-27.9799"/>
      <point x="77.127" y="-14.2469" type="curve"/>
      <point x="102.127" y="2.75312"/>
      <point x="125.127" y="8.75312"/>
      <point x="139.127" y="8.75312" type="curve" smooth="yes"/>
      <point x="178.127" y="8.75312"/>
      <point x="187.127" y="-16.2469"/>
      <point x="187.127" y="-40.2469" type="curve" smooth="yes"/>
      <point x="187.127" y="-83.8139"/>
      <point x="167.773" y="-140.247"/>
      <point x="116.127" y="-140.247" type="curve" smooth="yes"/>
      <point x="94.127" y="-140.247"/>
      <point x="67.127" y="-125.247"/>
    </contour>
  </outline>
</glyph>
<glyph name="uni2088" format="2">
  <advance width="294"/>
  <unicode hex="2088"/>
  <outline>
    <contour>
      <point x="176.424" y="19.6878" type="line"/>
      <point x="247.424" y="55.6878"/>
      <point x="256.424" y="81.6878"/>
      <point x="256.424" y="108.688" type="curve" smooth="yes"/>
      <point x="256.424" y="142.688"/>
      <point x="219.424" y="164.688"/>
      <point x="178.424" y="164.688" type="curve" smooth="yes"/>
      <point x="146.424" y="164.688"/>
      <point x="112.424" y="154.688"/>
      <point x="88.4245" y="134.688" type="curve"/>
      <point x="71.4245" y="119.688"/>
      <point x="59.4245" y="99.6878"/>
      <point x="59.4245" y="74.6878" type="curve" smooth="yes"/>
      <point x="59.4245" y="71.6878"/>
      <point x="59.4245" y="68.6878"/>
      <point x="60.4245" y="65.6878" type="curve"/>
      <point x="62.4245" y="49.6878"/>
      <point x="71.4245" y="35.6878"/>
      <point x="89.4245" y="23.6878" type="curve" smooth="yes"/>
      <point x="92.4245" y="21.6878"/>
      <point x="96.4245" y="18.6878"/>
      <point x="100.424" y="16.6878" type="curve"/>
      <point x="111.424" y="10.6878" type="line"/>
      <point x="63.4245" y="-12.3122"/>
      <point x="5.42449" y="-48.3122"/>
      <point x="5.42449" y="-100.312" type="curve" smooth="yes"/>
      <point x="5.42449" y="-151.312"/>
      <point x="61.4245" y="-164.312"/>
      <point x="101.424" y="-164.312" type="curve" smooth="yes"/>
      <point x="196.424" y="-164.312"/>
      <point x="244.424" y="-105.312"/>
      <point x="244.424" y="-59.3122" type="curve" smooth="yes"/>
      <point x="244.424" y="-55.3122"/>
      <point x="244.424" y="-51.3122"/>
      <point x="243.424" y="-47.3122" type="curve"/>
      <point x="240.424" y="-28.3122"/>
      <point x="228.424" y="-12.3122"/>
      <point x="210.424" y="-0.312191" type="curve" smooth="yes"/>
      <point x="207.424" y="1.68781"/>
      <point x="204.424" y="2.68781"/>
      <point x="202.424" y="4.68781" type="curve"/>
    </contour>
    <contour>
      <point x="130.424" y="-0.312191" type="curve"/>
      <point x="156.424" y="-14.3122" type="line" smooth="yes"/>
      <point x="180.424" y="-27.3122"/>
      <point x="186.424" y="-43.3122"/>
      <point x="186.424" y="-59.3122" type="curve"/>
      <point x="186.424" y="-59.3122"/>
      <point x="186.424" y="-59.3122"/>
      <point x="186.424" y="-59.3122" type="curve"/>
      <point x="186.424" y="-114.312"/>
      <point x="153.424" y="-138.312"/>
      <point x="108.424" y="-138.312" type="curve" smooth="yes"/>
      <point x="87.4245" y="-138.312"/>
      <point x="55.4245" y="-129.312"/>
      <point x="55.4245" y="-96.3122" type="curve" smooth="yes"/>
      <point x="55.4245" y="-92.3122"/>
      <point x="55.4245" y="-89.3122"/>
      <point x="56.4245" y="-85.3122" type="curve"/>
      <point x="64.4245" y="-46.3122"/>
      <point x="112.424" y="-9.31219"/>
    </contour>
    <contour>
      <point x="168.424" y="138.688" type="curve" smooth="yes"/>
      <point x="190.424" y="138.688"/>
      <point x="209.424" y="127.688"/>
      <point x="209.424" y="106.688" type="curve" smooth="yes"/>
      <point x="209.424" y="103.688"/>
      <point x="209.424" y="101.688"/>
      <point x="208.424" y="98.6878" type="curve"/>
      <point x="204.424" y="67.6878"/>
      <point x="173.424" y="38.6878"/>
      <point x="156.424" y="30.6878" type="curve"/>
      <point x="138.424" y="40.6878" type="line"/>
      <point x="115.424" y="54.6878"/>
      <point x="110.424" y="71.6878"/>
      <point x="110.424" y="84.6878" type="curve" smooth="yes"/>
      <point x="110.424" y="124.688"/>
      <point x="137.424" y="138.688"/>
    </contour>
  </outline>
</glyph>
<glyph name="euroarchaic" format="2">
  <advance width="793"/>
  <unicode hex="20A0"/>
  <outline>
    <contour>
      <point x="401" y="157" type="curve" smooth="yes"/>
      <point x="411" y="157"/>
      <point x="422" y="157"/>
      <point x="432" y="158" type="curve"/>
      <point x="432" y="189" type="line"/>
      <point x="422" y="188"/>
      <point x="411" y="188"/>
      <point x="400" y="188" type="curve" smooth="yes"/>
      <point x="265" y="188"/>
      <point x="212" y="302"/>
      <point x="212" y="411" type="curve" smooth="yes"/>
      <point x="212" y="506"/>
      <point x="241" y="630"/>
      <point x="391" y="630" type="curve" smooth="yes"/>
      <point x="529" y="630"/>
      <point x="584" y="569"/>
      <point x="610" y="504" type="curve"/>
      <point x="622" y="501"/>
      <point x="632" y="504"/>
      <point x="643" y="508" type="curve"/>
      <point x="632" y="546"/>
      <point x="626" y="582"/>
      <point x="621" y="624" type="curve"/>
      <point x="570" y="628"/>
      <point x="525" y="658"/>
      <point x="402" y="658" type="curve" smooth="yes"/>
      <point x="208" y="658"/>
      <point x="121" y="537"/>
      <point x="121" y="397" type="curve" smooth="yes"/>
      <point x="121" y="267"/>
      <point x="186" y="157"/>
    </contour>
    <contour>
      <point x="491" y="405" type="line" smooth="yes"/>
      <point x="491" y="438"/>
      <point x="503" y="453"/>
      <point x="557" y="453" type="curve" smooth="yes"/>
      <point x="592" y="453" type="line" smooth="yes"/>
      <point x="667" y="453"/>
      <point x="683" y="423"/>
      <point x="705" y="372" type="curve"/>
      <point x="717" y="370"/>
      <point x="728" y="372"/>
      <point x="738" y="375" type="curve"/>
      <point x="729" y="406"/>
      <point x="716" y="475"/>
      <point x="716" y="484" type="curve"/>
      <point x="716" y="485"/>
      <point x="715" y="486"/>
      <point x="712" y="486" type="curve"/>
      <point x="695" y="484"/>
      <point x="687" y="483"/>
      <point x="663" y="483" type="curve" smooth="yes"/>
      <point x="449" y="483" type="line"/>
      <point x="449" y="-1" type="line"/>
      <point x="624" y="-1" type="line" smooth="yes"/>
      <point x="672" y="-1"/>
      <point x="744" y="-2"/>
      <point x="752" y="-2" type="curve"/>
      <point x="760" y="39"/>
      <point x="775" y="85"/>
      <point x="789" y="123" type="curve"/>
      <point x="779" y="128"/>
      <point x="767" y="129"/>
      <point x="754" y="127" type="curve"/>
      <point x="734" y="73"/>
      <point x="699" y="29"/>
      <point x="623" y="29" type="curve" smooth="yes"/>
      <point x="547" y="29" type="line" smooth="yes"/>
      <point x="505" y="29"/>
      <point x="491" y="41"/>
      <point x="491" y="76" type="curve" smooth="yes"/>
    </contour>
    <contour>
      <point x="542" y="270" type="curve" smooth="yes"/>
      <point x="476" y="270" type="line"/>
      <point x="476" y="242" type="line"/>
      <point x="542" y="242" type="line" smooth="yes"/>
      <point x="627" y="242"/>
      <point x="630" y="225"/>
      <point x="633" y="191" type="curve"/>
      <point x="639" y="186"/>
      <point x="660" y="186"/>
      <point x="666" y="191" type="curve"/>
      <point x="665" y="210"/>
      <point x="664" y="231"/>
      <point x="664" y="257" type="curve" smooth="yes"/>
      <point x="664" y="278"/>
      <point x="665" y="303"/>
      <point x="666" y="321" type="curve"/>
      <point x="660" y="326"/>
      <point x="639" y="326"/>
      <point x="633" y="321" type="curve"/>
      <point x="630" y="280"/>
      <point x="627" y="270"/>
    </contour>
    <contour>
      <point x="319" y="-2" type="curve"/>
      <point x="356" y="-1"/>
      <point x="416" y="-1"/>
      <point x="449" y="-1" type="curve"/>
      <point x="449" y="483" type="line"/>
      <point x="419" y="483"/>
      <point x="359" y="484"/>
      <point x="319" y="485" type="curve"/>
      <point x="313" y="480"/>
      <point x="313" y="465"/>
      <point x="319" y="460" type="curve"/>
      <point x="389" y="458"/>
      <point x="406" y="453"/>
      <point x="406" y="395" type="curve" smooth="yes"/>
      <point x="406" y="90" type="line" smooth="yes"/>
      <point x="406" y="29"/>
      <point x="389" y="25"/>
      <point x="319" y="23" type="curve"/>
      <point x="313" y="18"/>
      <point x="313" y="3"/>
    </contour>
  </outline>
</glyph>
<glyph name="germanpenny" format="2">
  <advance width="506"/>
  <unicode hex="20B0"/>
  <outline>
    <contour>
      <point x="368" y="0" type="curve" smooth="yes"/>
      <point x="333" y="0"/>
      <point x="279" y="18"/>
      <point x="246" y="29" type="curve"/>
      <point x="241" y="34"/>
      <point x="239" y="39"/>
      <point x="239" y="46" type="curve" smooth="yes"/>
      <point x="239" y="58"/>
      <point x="244" y="81"/>
      <point x="255" y="86" type="curve"/>
      <point x="263" y="86"/>
      <point x="268" y="79"/>
      <point x="273" y="74" type="curve"/>
      <point x="290" y="54"/>
      <point x="342" y="42"/>
      <point x="368" y="42" type="curve" smooth="yes"/>
      <point x="415" y="42"/>
      <point x="445" y="82"/>
      <point x="445" y="126" type="curve" smooth="yes"/>
      <point x="445" y="195"/>
      <point x="408" y="231"/>
      <point x="361" y="277" type="curve"/>
      <point x="339" y="230"/>
      <point x="313" y="196"/>
      <point x="264" y="172" type="curve"/>
      <point x="246" y="186" type="line"/>
      <point x="210" y="295" type="line"/>
      <point x="159" y="162" type="line" smooth="yes"/>
      <point x="149" y="136"/>
      <point x="128" y="101"/>
      <point x="96" y="101" type="curve"/>
      <point x="86" y="106"/>
      <point x="57" y="126"/>
      <point x="57" y="139" type="curve" smooth="yes"/>
      <point x="57" y="142"/>
      <point x="58" y="146"/>
      <point x="59" y="149" type="curve"/>
      <point x="63" y="153" type="line"/>
      <point x="72" y="147"/>
      <point x="90" y="132"/>
      <point x="100" y="132" type="curve" smooth="yes"/>
      <point x="153" y="132"/>
      <point x="171" y="371"/>
      <point x="208" y="371" type="curve" smooth="yes"/>
      <point x="212" y="371"/>
      <point x="216" y="370"/>
      <point x="219" y="366" type="curve"/>
      <point x="225" y="357"/>
      <point x="258" y="247"/>
      <point x="272" y="218" type="curve"/>
      <point x="305" y="235"/>
      <point x="328" y="270"/>
      <point x="344" y="302" type="curve"/>
      <point x="299" y="366"/>
      <point x="253" y="437"/>
      <point x="253" y="518" type="curve" smooth="yes"/>
      <point x="253" y="560"/>
      <point x="264" y="658"/>
      <point x="323" y="658" type="curve" smooth="yes"/>
      <point x="397" y="658"/>
      <point x="434" y="563"/>
      <point x="434" y="501" type="curve" smooth="yes"/>
      <point x="434" y="434"/>
      <point x="407" y="365"/>
      <point x="377" y="306" type="curve"/>
      <point x="423" y="253"/>
      <point x="493" y="204"/>
      <point x="493" y="126" type="curve" smooth="yes"/>
      <point x="493" y="77"/>
      <point x="475" y="42"/>
      <point x="431" y="20" type="curve" smooth="yes"/>
      <point x="412" y="10"/>
      <point x="390" y="0"/>
    </contour>
    <contour>
      <point x="359" y="334" type="curve"/>
      <point x="385" y="390"/>
      <point x="401" y="438"/>
      <point x="401" y="500" type="curve" smooth="yes"/>
      <point x="401" y="540"/>
      <point x="380" y="620"/>
      <point x="329" y="620" type="curve" smooth="yes"/>
      <point x="299" y="620"/>
      <point x="296" y="538"/>
      <point x="296" y="517" type="curve" smooth="yes"/>
      <point x="296" y="452"/>
      <point x="328" y="390"/>
    </contour>
  </outline>
</glyph>
<glyph name="uni20C0" format="2">
  <advance width="638"/>
  <unicode hex="20C0"/>
  <outline>
    <contour>
      <point x="346.809" y="601.44" type="line"/>
      <point x="333.725" y="588.3"/>
      <point x="320.944" y="573.482"/>
      <point x="306.749" y="561.595" type="curve"/>
      <point x="306.888" y="511.236" type="line"/>
      <point x="209.825" y="482.203"/>
      <point x="137.715" y="388.899"/>
      <point x="137.715" y="286.914" type="curve" smooth="yes"/>
      <point x="137.715" y="220.025"/>
      <point x="177.875" y="113.715"/>
      <point x="244.372" y="83.696" type="curve"/>
      <point x="177.421" y="83.696" type="line"/>
      <point x="137.791" y="44.066" type="line"/>
      <point x="536.076" y="44.066" type="line"/>
      <point x="575.567" y="83.696" type="line"/>
      <point x="367.976" y="83.759" type="line" smooth="yes"/>
      <point x="265.928" y="83.79"/>
      <point x="177.421" y="178.829"/>
      <point x="177.421" y="279.117" type="curve" smooth="yes"/>
      <point x="177.421" y="376.75"/>
      <point x="226.145" y="427.864"/>
      <point x="306.888" y="469.179" type="curve"/>
      <point x="306.888" y="282.693" type="line"/>
      <point x="346.733" y="322.386" type="line"/>
      <point x="346.809" y="479.479" type="line"/>
      <point x="353.464" y="480.86"/>
      <point x="363.113" y="481.578"/>
      <point x="380.144" y="481.589" type="curve" smooth="yes"/>
      <point x="387.792" y="481.594"/>
      <point x="400.871" y="480.111"/>
      <point x="406.216" y="479.403" type="curve"/>
      <point x="406.279" y="282.617" type="line"/>
      <point x="446.238" y="322.323" type="line"/>
      <point x="446.238" y="469.028" type="line"/>
      <point x="520.666" y="453.64"/>
      <point x="576.288" y="355.309"/>
      <point x="575.706" y="282.908" type="curve"/>
      <point x="612.442" y="319.644" type="line"/>
      <point x="612.505" y="320.314" type="line"/>
      <point x="612.505" y="391.348"/>
      <point x="516.343" y="502.805"/>
      <point x="446.301" y="511.16" type="curve"/>
      <point x="446.238" y="601.326" type="line"/>
      <point x="406.216" y="561.519" type="line"/>
      <point x="406.242" y="519.64" type="line"/>
      <point x="400.342" y="521.483"/>
      <point x="387.195" y="521.573"/>
      <point x="374.03" y="521.573" type="curve" smooth="yes"/>
      <point x="365.709" y="521.573"/>
      <point x="349.892" y="520.146"/>
      <point x="346.872" y="519.324" type="curve"/>
    </contour>
  </outline>
</glyph>
<glyph name="uni2155" format="2">
  <advance width="638"/>
  <unicode hex="2155"/>
  <outline>
    <component base="uni2075" xOffset="275.646" yOffset="-464"/>
    <contour>
      <point x="227.401" y="589" type="curve" smooth="yes"/>
      <point x="239.401" y="589"/>
      <point x="239.503" y="578.981"/>
      <point x="233.401" y="547" type="curve" smooth="yes"/>
      <point x="204.401" y="395" type="line" smooth="yes"/>
      <point x="200.05" y="372.193"/>
      <point x="163.515" y="361.6"/>
      <point x="128.199" y="358" type="curve"/>
      <point x="123.153" y="352.008"/>
      <point x="121.444" y="339.585"/>
      <point x="122.615" y="332" type="curve"/>
      <point x="128.193" y="332.1"/>
      <point x="178.401" y="333"/>
      <point x="216.401" y="333" type="curve" smooth="yes"/>
      <point x="246.401" y="333"/>
      <point x="291.401" y="332"/>
      <point x="302.401" y="332" type="curve"/>
      <point x="305.023" y="336.787"/>
      <point x="308.577" y="353.824"/>
      <point x="305.401" y="357" type="curve"/>
      <point x="278.799" y="358"/>
      <point x="250.05" y="367.344"/>
      <point x="257.401" y="405" type="curve" smooth="yes"/>
      <point x="287.462" y="558.987" type="line" smooth="yes"/>
      <point x="293.796" y="591.43"/>
      <point x="300.587" y="618.218"/>
      <point x="311.551" y="652" type="curve"/>
      <point x="307.504" y="654.687"/>
      <point x="304.828" y="656.231"/>
      <point x="299.834" y="656" type="curve" smooth="yes"/>
      <point x="294.683" y="655.762"/>
      <point x="283.401" y="652"/>
      <point x="279.401" y="650" type="curve"/>
      <point x="237.401" y="627"/>
      <point x="209.401" y="616"/>
      <point x="163.401" y="600" type="curve"/>
      <point x="161.865" y="591.948"/>
      <point x="163.605" y="581.707"/>
      <point x="167.401" y="573" type="curve"/>
      <point x="183.401" y="580"/>
      <point x="214.401" y="589"/>
    </contour>
    <contour>
      <point x="619.157" y="657" type="line"/>
      <point x="152.766" y="-10" type="line"/>
      <point x="193.766" y="-10" type="line"/>
      <point x="661.157" y="657" type="line"/>
    </contour>
  </outline>
  <guideline angle="0" x="0" y="657"/>
  <guideline angle="0" x="0" y="-4"/>
</glyph>
<glyph name="eighteencircle" format="2">
  <advance width="739"/>
  <unicode hex="2471"/>
  <outline>
    <contour>
      <point x="431" y="-15" type="curve" smooth="yes"/>
      <point x="614" y="-15"/>
      <point x="762" y="134"/>
      <point x="762" y="316" type="curve" smooth="yes"/>
      <point x="762" y="497"/>
      <point x="614" y="645"/>
      <point x="431" y="645" type="curve" smooth="yes"/>
      <point x="249" y="645"/>
      <point x="102" y="498"/>
      <point x="102" y="316" type="curve" smooth="yes"/>
      <point x="102" y="133"/>
      <point x="249" y="-15"/>
    </contour>
    <contour>
      <point x="431" y="609" type="curve" smooth="yes"/>
      <point x="594" y="609"/>
      <point x="725" y="478"/>
      <point x="725" y="316" type="curve" smooth="yes"/>
      <point x="725" y="154"/>
      <point x="593" y="21"/>
      <point x="431" y="21" type="curve" smooth="yes"/>
      <point x="269" y="21"/>
      <point x="139" y="153"/>
      <point x="139" y="316" type="curve" smooth="yes"/>
      <point x="139" y="478"/>
      <point x="270" y="609"/>
    </contour>
    <contour>
      <point x="336.579" y="185.474" type="curve" smooth="yes"/>
      <point x="385.779" y="432.074" type="line"/>
      <point x="389.979" y="456.074"/>
      <point x="394.779" y="479.474"/>
      <point x="399.579" y="502.874" type="curve"/>
      <point x="399.579" y="504.074"/>
      <point x="398.379" y="505.274"/>
      <point x="396.579" y="505.274" type="curve"/>
      <point x="395.979" y="505.274"/>
      <point x="395.379" y="505.274"/>
      <point x="394.779" y="504.674" type="curve"/>
      <point x="389.979" y="501.674"/>
      <point x="385.179" y="498.674"/>
      <point x="379.779" y="495.674" type="curve"/>
      <point x="377.979" y="494.474"/>
      <point x="376.179" y="493.874"/>
      <point x="374.379" y="492.674" type="curve"/>
      <point x="349.179" y="478.874"/>
      <point x="315.579" y="463.274"/>
      <point x="269.379" y="448.874" type="curve"/>
      <point x="269.379" y="442.274"/>
      <point x="271.179" y="436.874"/>
      <point x="274.179" y="431.474" type="curve"/>
      <point x="290.379" y="436.874"/>
      <point x="310.779" y="439.874"/>
      <point x="323.979" y="441.074" type="curve"/>
      <point x="325.779" y="441.074"/>
      <point x="327.579" y="441.074"/>
      <point x="329.379" y="441.074" type="curve" smooth="yes"/>
      <point x="335.379" y="441.074"/>
      <point x="338.379" y="435.674"/>
      <point x="338.379" y="426.074" type="curve" smooth="yes"/>
      <point x="338.379" y="420.674"/>
      <point x="337.179" y="416.474"/>
      <point x="335.979" y="408.674" type="curve"/>
      <point x="296.379" y="202.874" type="line"/>
      <point x="292.779" y="185.474" type="line"/>
      <point x="289.779" y="168.674"/>
      <point x="277.179" y="159.074"/>
      <point x="249.579" y="157.274" type="curve" smooth="yes"/>
      <point x="242.379" y="156.674"/>
      <point x="235.179" y="156.674"/>
      <point x="227.979" y="156.074" type="curve"/>
      <point x="225.579" y="153.674"/>
      <point x="224.379" y="144.074"/>
      <point x="226.779" y="138.674" type="curve"/>
      <point x="256.179" y="139.274"/>
      <point x="275.979" y="139.274"/>
      <point x="308.379" y="139.274" type="curve" smooth="yes"/>
      <point x="337.179" y="139.274"/>
      <point x="352.779" y="139.274"/>
      <point x="382.779" y="138.674" type="curve"/>
      <point x="385.179" y="141.074"/>
      <point x="386.379" y="153.074"/>
      <point x="384.579" y="156.074" type="curve"/>
      <point x="377.979" y="156.674"/>
      <point x="371.379" y="156.674"/>
      <point x="364.779" y="157.274" type="curve" smooth="yes"/>
      <point x="339.579" y="159.074"/>
      <point x="333.579" y="169.274"/>
    </contour>
    <contour>
      <point x="596.979" y="378.674" type="curve" smooth="yes"/>
      <point x="618.579" y="396.674"/>
      <point x="630.579" y="414.074"/>
      <point x="630.579" y="439.274" type="curve" smooth="yes"/>
      <point x="630.579" y="474.074"/>
      <point x="602.379" y="501.074"/>
      <point x="559.179" y="504.674" type="curve"/>
      <point x="555.579" y="505.274"/>
      <point x="551.379" y="505.274"/>
      <point x="547.779" y="505.274" type="curve" smooth="yes"/>
      <point x="518.379" y="505.274"/>
      <point x="490.179" y="492.674"/>
      <point x="469.779" y="474.074" type="curve" smooth="yes"/>
      <point x="448.779" y="455.474"/>
      <point x="435.579" y="430.274"/>
      <point x="435.579" y="405.074" type="curve" smooth="yes"/>
      <point x="435.579" y="402.674"/>
      <point x="435.579" y="399.674"/>
      <point x="436.179" y="397.274" type="curve"/>
      <point x="438.579" y="376.874"/>
      <point x="452.379" y="360.074"/>
      <point x="476.979" y="342.074" type="curve" smooth="yes"/>
      <point x="488.979" y="333.074" type="line"/>
      <point x="468.579" y="319.874"/>
      <point x="442.779" y="305.474"/>
      <point x="422.979" y="286.274" type="curve" smooth="yes"/>
      <point x="402.579" y="267.074"/>
      <point x="387.579" y="243.074"/>
      <point x="387.579" y="210.074" type="curve" smooth="yes"/>
      <point x="387.579" y="156.074"/>
      <point x="429.579" y="133.274"/>
      <point x="480.579" y="133.274" type="curve" smooth="yes"/>
      <point x="515.979" y="133.274"/>
      <point x="545.979" y="145.874"/>
      <point x="568.179" y="166.274" type="curve"/>
      <point x="592.179" y="189.674"/>
      <point x="605.979" y="222.074"/>
      <point x="605.979" y="259.274" type="curve" smooth="yes"/>
      <point x="605.979" y="281.474"/>
      <point x="598.779" y="304.274"/>
      <point x="578.979" y="320.474" type="curve"/>
      <point x="576.579" y="322.874"/>
      <point x="574.179" y="324.674"/>
      <point x="571.179" y="326.474" type="curve"/>
      <point x="546.579" y="342.674" type="line"/>
      <point x="566.979" y="356.474"/>
      <point x="583.779" y="367.874"/>
    </contour>
    <contour>
      <point x="484.779" y="150.074" type="curve" smooth="yes"/>
      <point x="462.579" y="150.074"/>
      <point x="430.779" y="164.474"/>
      <point x="424.779" y="201.074" type="curve" smooth="yes"/>
      <point x="424.179" y="204.674"/>
      <point x="423.579" y="208.874"/>
      <point x="423.579" y="213.674" type="curve" smooth="yes"/>
      <point x="423.579" y="259.274"/>
      <point x="465.579" y="293.474"/>
      <point x="506.379" y="319.874" type="curve"/>
      <point x="524.979" y="306.074" type="line" smooth="yes"/>
      <point x="548.379" y="288.674"/>
      <point x="560.979" y="270.074"/>
      <point x="563.979" y="249.674" type="curve"/>
      <point x="564.579" y="247.274"/>
      <point x="564.579" y="244.274"/>
      <point x="564.579" y="241.274" type="curve" smooth="yes"/>
      <point x="564.579" y="211.874"/>
      <point x="554.979" y="186.074"/>
      <point x="536.979" y="169.874" type="curve"/>
      <point x="523.779" y="157.274"/>
      <point x="506.379" y="150.074"/>
    </contour>
    <contour>
      <point x="541.179" y="488.474" type="curve" smooth="yes"/>
      <point x="570.579" y="488.474"/>
      <point x="590.379" y="464.474"/>
      <point x="593.379" y="442.874" type="curve"/>
      <point x="593.979" y="441.074"/>
      <point x="593.979" y="438.674"/>
      <point x="593.979" y="436.874" type="curve" smooth="yes"/>
      <point x="593.979" y="419.474"/>
      <point x="586.779" y="400.874"/>
      <point x="528.579" y="355.274" type="curve"/>
      <point x="514.779" y="364.874" type="line" smooth="yes"/>
      <point x="511.179" y="367.274"/>
      <point x="508.179" y="369.674"/>
      <point x="505.179" y="372.074" type="curve" smooth="yes"/>
      <point x="482.379" y="390.074"/>
      <point x="475.779" y="403.274"/>
      <point x="474.579" y="416.474" type="curve"/>
      <point x="474.579" y="418.274"/>
      <point x="474.579" y="420.074"/>
      <point x="474.579" y="421.874" type="curve" smooth="yes"/>
      <point x="474.579" y="436.274"/>
      <point x="482.379" y="452.474"/>
      <point x="494.379" y="465.674" type="curve" smooth="yes"/>
      <point x="506.979" y="478.874"/>
      <point x="523.779" y="488.474"/>
    </contour>
  </outline>
</glyph>
<glyph name="nineteencircle" format="2">
  <advance width="739"/>
  <unicode hex="2472"/>
  <outline>
    <contour>
      <point x="431" y="-15" type="curve" smooth="yes"/>
      <point x="614" y="-15"/>
      <point x="762" y="134"/>
      <point x="762" y="316" type="curve" smooth="yes"/>
      <point x="762" y="497"/>
      <point x="614" y="645"/>
      <point x="431" y="645" type="curve" smooth="yes"/>
      <point x="249" y="645"/>
      <point x="102" y="498"/>
      <point x="102" y="316" type="curve" smooth="yes"/>
      <point x="102" y="133"/>
      <point x="249" y="-15"/>
    </contour>
    <contour>
      <point x="431" y="609" type="curve" smooth="yes"/>
      <point x="594" y="609"/>
      <point x="725" y="478"/>
      <point x="725" y="316" type="curve" smooth="yes"/>
      <point x="725" y="154"/>
      <point x="593" y="21"/>
      <point x="431" y="21" type="curve" smooth="yes"/>
      <point x="269" y="21"/>
      <point x="139" y="153"/>
      <point x="139" y="316" type="curve" smooth="yes"/>
      <point x="139" y="478"/>
      <point x="270" y="609"/>
    </contour>
    <contour>
      <point x="339.643" y="185.247" type="curve" smooth="yes"/>
      <point x="388.843" y="431.847" type="line"/>
      <point x="393.043" y="455.847"/>
      <point x="397.843" y="479.247"/>
      <point x="402.643" y="502.647" type="curve"/>
      <point x="402.643" y="503.847"/>
      <point x="401.443" y="505.047"/>
      <point x="399.643" y="505.047" type="curve"/>
      <point x="399.043" y="505.047"/>
      <point x="398.443" y="505.047"/>
      <point x="397.843" y="504.447" type="curve"/>
      <point x="393.043" y="501.447"/>
      <point x="388.243" y="498.447"/>
      <point x="382.843" y="495.447" type="curve"/>
      <point x="381.043" y="494.247"/>
      <point x="379.243" y="493.647"/>
      <point x="377.443" y="492.447" type="curve"/>
      <point x="352.243" y="478.647"/>
      <point x="318.643" y="463.047"/>
      <point x="272.443" y="448.647" type="curve"/>
      <point x="272.443" y="442.047"/>
      <point x="274.243" y="436.647"/>
      <point x="277.243" y="431.247" type="curve"/>
      <point x="293.443" y="436.647"/>
      <point x="313.843" y="439.647"/>
      <point x="327.043" y="440.847" type="curve"/>
      <point x="328.843" y="440.847"/>
      <point x="330.643" y="440.847"/>
      <point x="332.443" y="440.847" type="curve" smooth="yes"/>
      <point x="338.443" y="440.847"/>
      <point x="341.443" y="435.447"/>
      <point x="341.443" y="425.847" type="curve" smooth="yes"/>
      <point x="341.443" y="420.447"/>
      <point x="340.243" y="416.247"/>
      <point x="339.043" y="408.447" type="curve"/>
      <point x="299.443" y="202.647" type="line"/>
      <point x="295.843" y="185.247" type="line"/>
      <point x="292.843" y="168.447"/>
      <point x="280.243" y="158.847"/>
      <point x="252.643" y="157.047" type="curve" smooth="yes"/>
      <point x="245.443" y="156.447"/>
      <point x="238.243" y="156.447"/>
      <point x="231.043" y="155.847" type="curve"/>
      <point x="228.643" y="153.447"/>
      <point x="227.443" y="143.847"/>
      <point x="229.843" y="138.447" type="curve"/>
      <point x="259.243" y="139.047"/>
      <point x="279.043" y="139.047"/>
      <point x="311.443" y="139.047" type="curve" smooth="yes"/>
      <point x="340.243" y="139.047"/>
      <point x="355.843" y="139.047"/>
      <point x="385.843" y="138.447" type="curve"/>
      <point x="388.243" y="140.847"/>
      <point x="389.443" y="152.847"/>
      <point x="387.643" y="155.847" type="curve"/>
      <point x="381.043" y="156.447"/>
      <point x="374.443" y="156.447"/>
      <point x="367.843" y="157.047" type="curve" smooth="yes"/>
      <point x="342.643" y="158.847"/>
      <point x="336.643" y="169.047"/>
    </contour>
    <contour>
      <point x="401.443" y="148.647" type="curve"/>
      <point x="400.243" y="142.647"/>
      <point x="400.243" y="137.247"/>
      <point x="402.043" y="131.847" type="curve"/>
      <point x="459.643" y="133.647"/>
      <point x="523.843" y="161.847"/>
      <point x="570.643" y="209.247" type="curve" smooth="yes"/>
      <point x="649.243" y="288.447"/>
      <point x="651.643" y="382.647"/>
      <point x="651.643" y="400.647" type="curve" smooth="yes"/>
      <point x="651.643" y="484.047"/>
      <point x="607.843" y="505.047"/>
      <point x="563.443" y="505.047" type="curve" smooth="yes"/>
      <point x="488.443" y="505.047"/>
      <point x="430.243" y="433.647"/>
      <point x="430.243" y="370.047" type="curve" smooth="yes"/>
      <point x="430.243" y="331.647"/>
      <point x="445.843" y="283.047"/>
      <point x="520.843" y="283.047" type="curve" smooth="yes"/>
      <point x="543.043" y="283.047"/>
      <point x="575.443" y="296.847"/>
      <point x="595.843" y="313.647" type="curve"/>
      <point x="582.643" y="273.447"/>
      <point x="556.843" y="236.247"/>
      <point x="529.843" y="209.847" type="curve" smooth="yes"/>
      <point x="495.643" y="176.247"/>
      <point x="444.643" y="154.047"/>
    </contour>
    <contour>
      <point x="599.443" y="331.647" type="curve"/>
      <point x="570.043" y="310.047"/>
      <point x="550.843" y="304.647"/>
      <point x="535.843" y="304.647" type="curve" smooth="yes"/>
      <point x="486.643" y="304.647"/>
      <point x="474.043" y="346.047"/>
      <point x="474.043" y="376.047" type="curve" smooth="yes"/>
      <point x="474.043" y="418.647"/>
      <point x="508.843" y="487.047"/>
      <point x="552.043" y="487.047" type="curve" smooth="yes"/>
      <point x="575.443" y="487.047"/>
      <point x="608.443" y="466.647"/>
      <point x="608.443" y="403.647" type="curve" smooth="yes"/>
      <point x="608.443" y="378.447"/>
      <point x="603.643" y="346.047"/>
    </contour>
  </outline>
</glyph>
<glyph name="uni25D5" format="2">
  <advance width="564"/>
  <unicode hex="25D5"/>
  <outline>
    <contour>
      <point x="90" y="219" type="curve" smooth="yes"/>
      <point x="90" y="90.1883"/>
      <point x="193.541" y="-15"/>
      <point x="323" y="-15" type="curve" smooth="yes"/>
      <point x="452.424" y="-15"/>
      <point x="557" y="89.8868"/>
      <point x="557" y="219" type="curve" smooth="yes"/>
      <point x="557" y="347.763"/>
      <point x="451.775" y="452"/>
      <point x="323" y="452" type="curve" smooth="yes"/>
      <point x="194.45" y="452"/>
      <point x="90" y="347.905"/>
    </contour>
    <contour>
      <point x="101" y="219" type="line"/>
      <point x="101" y="338.678"/>
      <point x="203.322" y="441"/>
      <point x="323" y="441" type="curve"/>
      <point x="323" y="219" type="line"/>
    </contour>
  </outline>
</glyph>
<glyph name="floralheart" format="2">
  <advance width="700"/>
  <unicode hex="2766"/>
  <outline>
    <contour>
      <point x="519" y="519" type="curve"/>
      <point x="472" y="541"/>
      <point x="443" y="571"/>
      <point x="443" y="594" type="curve" smooth="yes"/>
      <point x="443" y="610"/>
      <point x="455" y="621"/>
      <point x="472" y="621" type="curve" smooth="yes"/>
      <point x="501" y="621"/>
      <point x="526" y="590"/>
      <point x="526" y="555" type="curve" smooth="yes"/>
      <point x="526" y="545"/>
      <point x="525" y="536"/>
    </contour>
    <contour>
      <point x="530" y="478" type="line"/>
      <point x="558" y="467"/>
      <point x="581" y="461"/>
      <point x="604" y="461" type="curve" smooth="yes"/>
      <point x="686" y="461"/>
      <point x="772" y="531"/>
      <point x="772" y="598" type="curve" smooth="yes"/>
      <point x="772" y="633"/>
      <point x="749" y="658"/>
      <point x="718" y="658" type="curve" smooth="yes"/>
      <point x="688" y="658"/>
      <point x="662" y="634"/>
      <point x="662" y="605" type="curve" smooth="yes"/>
      <point x="662" y="597"/>
      <point x="665" y="591"/>
      <point x="674" y="583" type="curve" smooth="yes"/>
      <point x="688" y="570"/>
      <point x="695" y="555"/>
      <point x="695" y="541" type="curve" smooth="yes"/>
      <point x="695" y="510"/>
      <point x="661" y="484"/>
      <point x="620" y="484" type="curve" smooth="yes"/>
      <point x="597" y="484"/>
      <point x="574" y="492"/>
      <point x="539" y="510" type="curve"/>
      <point x="544" y="526"/>
      <point x="546" y="541"/>
      <point x="546" y="556" type="curve" smooth="yes"/>
      <point x="546" y="613"/>
      <point x="513" y="654"/>
      <point x="468" y="654" type="curve" smooth="yes"/>
      <point x="443" y="654"/>
      <point x="420" y="641"/>
      <point x="405" y="618" type="curve"/>
      <point x="417" y="585" type="line"/>
      <point x="367" y="623"/>
      <point x="333" y="639"/>
      <point x="300" y="639" type="curve" smooth="yes"/>
      <point x="226" y="639"/>
      <point x="141" y="557"/>
      <point x="141" y="487" type="curve" smooth="yes"/>
      <point x="141" y="459"/>
      <point x="155" y="440"/>
      <point x="176" y="440" type="curve" smooth="yes"/>
      <point x="194" y="440"/>
      <point x="208" y="453"/>
      <point x="213" y="476" type="curve"/>
      <point x="197" y="494"/>
      <point x="189" y="511"/>
      <point x="189" y="528" type="curve" smooth="yes"/>
      <point x="189" y="566"/>
      <point x="234" y="604"/>
      <point x="280" y="604" type="curve" smooth="yes"/>
      <point x="316" y="604"/>
      <point x="371" y="578"/>
      <point x="448" y="525" type="curve" smooth="yes"/>
      <point x="475" y="506"/>
      <point x="494" y="495"/>
      <point x="511" y="487" type="curve"/>
      <point x="470" y="386" type="line"/>
      <point x="473" y="363" type="line"/>
    </contour>
    <contour>
      <point x="456" y="348" type="line"/>
      <point x="452" y="414"/>
      <point x="424" y="446"/>
      <point x="371" y="446" type="curve" smooth="yes"/>
      <point x="295" y="446"/>
      <point x="243" y="379"/>
      <point x="243" y="281" type="curve" smooth="yes"/>
      <point x="243" y="129"/>
      <point x="370" y="0"/>
      <point x="520" y="0" type="curve" smooth="yes"/>
      <point x="600" y="0"/>
      <point x="671" y="38"/>
      <point x="671" y="80" type="curve" smooth="yes"/>
      <point x="671" y="101"/>
      <point x="654" y="118"/>
      <point x="632" y="118" type="curve" smooth="yes"/>
      <point x="609" y="118"/>
      <point x="604" y="99"/>
      <point x="599" y="77" type="curve" smooth="yes"/>
      <point x="589" y="37"/>
      <point x="573" y="22"/>
      <point x="540" y="22" type="curve" smooth="yes"/>
      <point x="504" y="22"/>
      <point x="478" y="41"/>
      <point x="478" y="69" type="curve" smooth="yes"/>
      <point x="478" y="94"/>
      <point x="499" y="114"/>
      <point x="542" y="135" type="curve" smooth="yes"/>
      <point x="655" y="189"/>
      <point x="696" y="233"/>
      <point x="696" y="300" type="curve" smooth="yes"/>
      <point x="696" y="371"/>
      <point x="650" y="421"/>
      <point x="585" y="421" type="curve" smooth="yes"/>
      <point x="538" y="421"/>
      <point x="504" y="395"/>
      <point x="473" y="336" type="curve"/>
      <point x="456" y="342" type="line"/>
    </contour>
  </outline>
</glyph>
<glyph name="u1D106" format="2">
  <advance width="520"/>
  <unicode hex="1D106"/>
  <outline>
    <contour>
      <point x="60" y="-233" type="line"/>
      <point x="148" y="-233" type="line"/>
      <point x="304" y="652" type="line"/>
      <point x="216" y="652" type="line"/>
    </contour>
    <contour>
      <point x="189" y="-233" type="line"/>
      <point x="233" y="-233" type="line"/>
      <point x="389" y="652" type="line"/>
      <point x="345" y="652" type="line"/>
    </contour>
    <contour>
      <point x="350" y="53" type="curve" smooth="yes" name=".hr01"/>
      <point x="350" y="27"/>
      <point x="370" y="7"/>
      <point x="396" y="7" type="curve" smooth="yes"/>
      <point x="431" y="7"/>
      <point x="458" y="39"/>
      <point x="458" y="69" type="curve" smooth="yes"/>
      <point x="458" y="94"/>
      <point x="438" y="113"/>
      <point x="412" y="113" type="curve" smooth="yes"/>
      <point x="376" y="113"/>
      <point x="350" y="80"/>
    </contour>
    <contour>
      <point x="414" y="352" type="curve" smooth="yes"/>
      <point x="414" y="326" name=".hr02"/>
      <point x="434" y="306"/>
      <point x="460" y="306" type="curve" smooth="yes"/>
      <point x="495" y="306"/>
      <point x="522" y="338"/>
      <point x="522" y="368" type="curve" smooth="yes"/>
      <point x="522" y="393"/>
      <point x="502" y="412"/>
      <point x="476" y="412" type="curve" smooth="yes"/>
      <point x="440" y="412"/>
      <point x="414" y="379"/>
    </contour>
  </outline>
</glyph>
<glyph name="ampersand.alt" format="2">
  <advance width="682"/>
  <outline>
    <contour>
      <point x="374" y="432" type="line"/>
      <point x="367" y="435"/>
      <point x="358" y="437"/>
      <point x="352" y="437" type="curve" smooth="yes"/>
      <point x="301" y="437"/>
      <point x="234" y="418"/>
      <point x="177" y="370" type="curve" smooth="yes"/>
      <point x="128" y="329"/>
      <point x="86" y="267"/>
      <point x="70" y="177" type="curve" smooth="yes"/>
      <point x="68" y="166"/>
      <point x="67" y="155"/>
      <point x="67" y="144" type="curve" smooth="yes"/>
      <point x="67" y="54"/>
      <point x="133" y="-14"/>
      <point x="224" y="-14" type="curve" smooth="yes"/>
      <point x="232" y="-14"/>
      <point x="239" y="-14"/>
      <point x="247" y="-13" type="curve"/>
      <point x="342" y="-5"/>
      <point x="443" y="53"/>
      <point x="518" y="148" type="curve" smooth="yes"/>
      <point x="562" y="205"/>
      <point x="598" y="276"/>
      <point x="617" y="357" type="curve"/>
      <point x="631" y="349"/>
      <point x="649" y="347"/>
      <point x="667" y="347" type="curve" smooth="yes"/>
      <point x="691" y="347"/>
      <point x="753" y="376"/>
      <point x="766" y="451" type="curve"/>
      <point x="767" y="453"/>
      <point x="767" y="455"/>
      <point x="767" y="456" type="curve"/>
      <point x="767" y="458"/>
      <point x="767" y="459"/>
      <point x="767" y="460" type="curve"/>
      <point x="767" y="480"/>
      <point x="753" y="489"/>
      <point x="738" y="489" type="curve" smooth="yes"/>
      <point x="720" y="489"/>
      <point x="704" y="477"/>
      <point x="699" y="452" type="curve"/>
      <point x="699" y="450"/>
      <point x="699" y="448"/>
      <point x="699" y="446" type="curve" smooth="yes"/>
      <point x="699" y="439"/>
      <point x="701" y="431"/>
      <point x="703" y="424" type="curve"/>
      <point x="705" y="416"/>
      <point x="707" y="410"/>
      <point x="707" y="404" type="curve"/>
      <point x="707" y="404"/>
      <point x="707" y="403"/>
      <point x="707" y="403" type="curve"/>
      <point x="707" y="401" type="line"/>
      <point x="706" y="396"/>
      <point x="702" y="394"/>
      <point x="694" y="394" type="curve" smooth="yes"/>
      <point x="682" y="394"/>
      <point x="668" y="404"/>
      <point x="649" y="415" type="curve"/>
      <point x="623" y="432"/>
      <point x="589" y="451"/>
      <point x="545" y="451" type="curve"/>
      <point x="545" y="451"/>
      <point x="545" y="451"/>
      <point x="545" y="451" type="curve"/>
      <point x="466" y="451"/>
      <point x="425" y="402"/>
      <point x="416" y="346" type="curve" smooth="yes"/>
      <point x="415" y="340"/>
      <point x="414" y="335"/>
      <point x="414" y="330" type="curve" smooth="yes"/>
      <point x="414" y="303"/>
      <point x="431" y="295"/>
      <point x="447" y="295" type="curve" smooth="yes"/>
      <point x="465" y="295"/>
      <point x="487" y="315"/>
      <point x="490" y="335" type="curve"/>
      <point x="491" y="338"/>
      <point x="491" y="341"/>
      <point x="491" y="344" type="curve" smooth="yes"/>
      <point x="491" y="356"/>
      <point x="485" y="362"/>
      <point x="479" y="367" type="curve" smooth="yes"/>
      <point x="472" y="373"/>
      <point x="466" y="378"/>
      <point x="466" y="389" type="curve" smooth="yes"/>
      <point x="466" y="391"/>
      <point x="466" y="393"/>
      <point x="467" y="395" type="curve"/>
      <point x="469" y="407"/>
      <point x="483" y="412"/>
      <point x="500" y="412" type="curve" smooth="yes"/>
      <point x="543" y="412"/>
      <point x="568" y="392"/>
      <point x="589" y="372" type="curve"/>
      <point x="576" y="312"/>
      <point x="548" y="241"/>
      <point x="503" y="181" type="curve" smooth="yes"/>
      <point x="452" y="115"/>
      <point x="380" y="63"/>
      <point x="284" y="57" type="curve"/>
      <point x="279" y="57"/>
      <point x="273" y="57"/>
      <point x="268" y="57" type="curve" smooth="yes"/>
      <point x="213" y="57"/>
      <point x="180" y="79"/>
      <point x="160" y="108" type="curve"/>
      <point x="498" y="561" type="line"/>
      <point x="498" y="561" type="line"/>
      <point x="513" y="581"/>
      <point x="532" y="612"/>
      <point x="534" y="623" type="curve"/>
      <point x="534" y="626"/>
      <point x="534" y="628"/>
      <point x="534" y="631" type="curve" smooth="yes"/>
      <point x="534" y="648"/>
      <point x="524" y="662"/>
      <point x="504" y="667" type="curve"/>
      <point x="499" y="668"/>
      <point x="493" y="669"/>
      <point x="487" y="669" type="curve" smooth="yes"/>
      <point x="431" y="669"/>
      <point x="389" y="635"/>
      <point x="383" y="580" type="curve"/>
      <point x="382" y="576"/>
      <point x="382" y="570"/>
      <point x="382" y="565" type="curve"/>
      <point x="404" y="567" type="line"/>
      <point x="404" y="572"/>
      <point x="405" y="577"/>
      <point x="406" y="582" type="curve" smooth="yes"/>
      <point x="412" y="612"/>
      <point x="432" y="633"/>
      <point x="459" y="633" type="curve" smooth="yes"/>
      <point x="477" y="633"/>
      <point x="491" y="620"/>
      <point x="491" y="605" type="curve"/>
      <point x="491" y="604"/>
      <point x="491" y="602"/>
      <point x="490" y="601" type="curve"/>
      <point x="487" y="585"/>
      <point x="476" y="569"/>
      <point x="461" y="549" type="curve" smooth="yes"/>
    </contour>
    <contour>
      <point x="320" y="359" type="curve"/>
      <point x="148" y="129" type="line"/>
      <point x="139" y="149"/>
      <point x="135" y="171"/>
      <point x="133" y="190" type="curve"/>
      <point x="132" y="197"/>
      <point x="132" y="203"/>
      <point x="132" y="208" type="curve" smooth="yes"/>
      <point x="132" y="219"/>
      <point x="132" y="228"/>
      <point x="134" y="234" type="curve"/>
      <point x="146" y="303"/>
      <point x="210" y="386"/>
      <point x="277" y="386" type="curve" smooth="yes"/>
      <point x="299" y="386"/>
      <point x="312" y="373"/>
    </contour>
  </outline>
</glyph>
